<svg width="36" height="36" viewBox="0 0 36 36" fill="none" xmlns="http://www.w3.org/2000/svg">
<g clip-path="url(#clip0_440_12044)">
<path fill-rule="evenodd" clip-rule="evenodd" d="M36 0.354505L0 0.156494V35.7984L36 35.9965V0.354505ZM10.1013 6.53944C10.382 6.02223 11.1266 6.02859 11.3985 6.55053L15.4164 14.2631C15.6712 14.7523 15.3164 15.3373 14.7649 15.3373H6.55994C6.00291 15.3373 5.6485 14.7416 5.91426 14.2521L10.1013 6.53944ZM28.7819 6.17749C29.1877 6.17749 29.5166 6.50642 29.5166 6.91218V14.3895C29.5166 14.7953 29.1877 15.1242 28.7819 15.1242H21.3045C20.8988 15.1242 20.5699 14.7953 20.5699 14.3895V6.91218C20.5699 6.50642 20.8988 6.17749 21.3045 6.17749H28.7819ZM19.5038 26.1425C19.3725 25.9152 19.3725 25.6351 19.5038 25.4078L21.9553 21.1616C22.0866 20.9343 22.3291 20.7942 22.5916 20.7942H27.4947C27.7572 20.7942 27.9997 20.9343 28.131 21.1616L30.5825 25.4078C30.7138 25.6351 30.7138 25.9152 30.5825 26.1425L28.131 30.3887C27.9997 30.6161 27.7572 30.7561 27.4947 30.7561H22.5916C22.3291 30.7561 22.0866 30.6161 21.9553 30.3887L19.5038 26.1425ZM15.6663 25.8333C15.6663 28.6868 13.3531 31 10.4997 31C7.6462 31 5.33301 28.6868 5.33301 25.8333C5.33301 22.9799 7.6462 20.6667 10.4997 20.6667C13.3531 20.6667 15.6663 22.9799 15.6663 25.8333Z" fill="white"/>
</g>
<defs>
<clipPath id="clip0_440_12044">
<rect width="36" height="36" fill="white"/>
</clipPath>
</defs>
</svg>
