<svg width="25" height="25" viewBox="0 0 25 25" fill="none" xmlns="http://www.w3.org/2000/svg">
<g style="mix-blend-mode:exclusion">
<rect x="4" y="3" width="18" height="18" fill="white"/>
</g>
<g style="mix-blend-mode:difference">
<path d="M17.2195 13.0117C17.2185 13.4088 16.8958 13.73 16.4987 13.729C16.1017 13.728 15.7806 13.4054 15.7815 13.0084L15.7821 12.7573C15.7841 11.8924 14.7388 11.4574 14.1267 12.0684L9.37469 16.8113C9.09371 17.0918 8.63857 17.0913 8.35814 16.8103C8.07772 16.5294 8.07817 16.0743 8.35913 15.7938L13.1147 11.0474C13.7201 10.4432 13.2935 9.40863 12.4383 9.40664L12.1959 9.40608C11.7991 9.40515 11.4782 9.08268 11.4792 8.68585C11.4802 8.28912 11.8025 7.96827 12.1993 7.96919L15.2313 7.97615C16.3359 7.97869 17.2293 8.87629 17.2267 9.98092L17.2195 13.0117Z" fill="white"/>
</g>
</svg>
