<svg width="111" height="25" viewBox="0 0 111 25" fill="none" xmlns="http://www.w3.org/2000/svg">
<path d="M33.62 17.64C33.62 18.68 34.34 19 36 19.08V20H29.36V19.08C30.6 19.02 31.34 18.68 31.34 17.64V8.36C31.34 7.32 30.6 6.98 29.36 6.92V6H40.54V10H39.58C39.26 8.12 38.5 7.02 36.44 7.02H33.62V12.24H35.92C37 12.24 37.44 11.54 37.48 10.34H38.36V15.22H37.48C37.44 14.02 37 13.32 35.92 13.32H33.62V17.64ZM46.1733 19.12V20H40.6933V19.12C41.5933 19.06 42.1333 18.78 42.1333 18.1V12.54L40.6933 11.64V11.2L43.9733 10H44.3333V12.02C45.2333 11 46.0933 10 47.1533 10C48.1533 10 48.6333 10.98 48.6533 11.84L47.0933 12.9H46.7533C46.4533 12.3 46.2133 11.92 45.6933 11.92C45.2533 11.92 44.7933 12.26 44.3333 12.7V18.1C44.3333 18.78 44.7933 19.04 46.1733 19.12ZM49.0327 15.28C49.0327 12.38 50.9527 10 53.7727 10C56.4327 10 58.4927 12.02 58.4927 14.92C58.4927 17.8 56.5727 20.2 53.7727 20.2C51.1127 20.2 49.0327 18.18 49.0327 15.28ZM51.4127 14.54C51.4127 16.9 52.4327 19.26 53.9727 19.26C55.4927 19.26 56.1127 17.86 56.1127 15.66C56.1127 13.3 55.1127 10.96 53.5127 10.96C52.0527 10.96 51.4127 12.36 51.4127 14.54ZM61.0786 12.54L59.6386 11.64V11.2L62.9186 10H63.2786V11.7C64.0986 10.9 65.1786 10 66.5186 10C68.3386 10 69.1786 11.38 69.1786 12.9V18.1C69.1786 18.78 69.7186 19.06 70.6186 19.12V20H65.5586V19.12C66.4586 19.06 66.9786 18.78 66.9786 18.1V13.76C66.9786 12.28 66.3586 11.62 65.2186 11.62C64.4786 11.62 63.7586 11.98 63.2786 12.42V18.1C63.2786 18.78 63.7786 19.06 64.6786 19.12V20H59.6386V19.12C60.5386 19.06 61.0786 18.78 61.0786 18.1V12.54ZM74.6945 7.92V10.2H77.6945V11.46H74.6945V17.48C74.6945 18.34 75.4145 18.68 76.3545 18.68C76.7545 18.68 77.3745 18.6 77.7545 18.48V19.42C77.0345 19.88 76.0745 20.2 75.0545 20.2C73.5745 20.2 72.4945 19.38 72.4945 18.14V11.46H71.1145V10.7C72.1145 10.22 73.2945 9.16 73.8545 7.92H74.6945ZM81.2011 8.38C80.3811 8.38 79.7411 7.7 79.7411 6.9C79.7411 6.08 80.3811 5.42 81.2011 5.42C82.0411 5.42 82.7011 6.08 82.7011 6.9C82.7011 7.7 82.0411 8.38 81.2011 8.38ZM82.3411 18.1C82.3411 18.78 82.8811 19.06 83.7811 19.12V20H78.7011V19.12C79.6011 19.06 80.1411 18.78 80.1411 18.1V12.54L78.7011 11.64V11.2L81.9811 10H82.3411V18.1ZM86.6177 14.38C86.6177 16.7 87.9977 18.36 89.9577 18.36C90.9177 18.36 91.8177 18.06 92.5577 17.22L93.0177 17.64C92.2977 19.12 90.9577 20.2 89.1177 20.2C86.6177 20.2 84.6577 18.18 84.6577 15.28C84.6577 12.34 86.6577 10 89.1377 10C91.7977 10 92.9377 12.42 92.9377 14.34H86.6177V14.38ZM88.7577 11C87.7777 11 86.9577 11.88 86.6977 13.38L90.6177 13.4C90.5977 12.18 90.0177 11 88.7577 11ZM99.5327 19.12V20H94.0527V19.12C94.9527 19.06 95.4927 18.78 95.4927 18.1V12.54L94.0527 11.64V11.2L97.3327 10H97.6927V12.02C98.5927 11 99.4527 10 100.513 10C101.513 10 101.993 10.98 102.013 11.84L100.453 12.9H100.113C99.8127 12.3 99.5727 11.92 99.0527 11.92C98.6127 11.92 98.1527 12.26 97.6927 12.7V18.1C97.6927 18.78 98.1527 19.04 99.5327 19.12ZM106.27 11.04C105.37 11.04 104.79 11.58 104.79 12.36C104.79 14.4 109.83 13.7 109.83 17C109.83 18.88 108.13 20.2 105.99 20.2C104.71 20.2 103.43 19.72 102.71 19.12V16.6H103.61C103.99 18.38 104.85 19.16 106.13 19.16C107.17 19.16 107.91 18.56 107.91 17.68C107.91 15.44 102.93 16.32 102.93 13.02C102.93 11.3 104.43 10 106.45 10C107.55 10 108.59 10.36 109.29 10.88V13.28H108.39C108.13 11.92 107.47 11.04 106.27 11.04Z" fill="white"/>
<path d="M19 8.76936L7.30769 2L5.84615 2.84678V4.53871L4.38462 3.69193L2.92308 4.53871V6.23064L1.46154 5.38386L0 6.23064V19.7694L1.46154 20.6161L2.92308 19.7694V21.4613L4.38462 22.3081L5.84615 21.4613V23.1532L7.30769 24L19 17.2306V15.5387L17.5385 14.6919L19 13.8452V12.1532L17.5385 11.3064L19 10.4597V8.76936ZM2.92308 18.0774L1.46154 18.9242V7.07742L2.92308 7.9242V18.0774ZM7.30769 18.9226V17.2306L13.1538 13.8468L14.6154 14.6936L7.30769 18.9226ZM11.6923 13L7.30769 15.5387V10.4613L11.6923 13ZM13.1538 12.1532L7.30769 8.76936V7.07742L14.6154 11.3081L13.1538 12.1532ZM4.38462 5.38386L5.84615 6.23064V7.92258L4.38462 7.0758V5.38386ZM4.38462 8.76936L5.84615 9.61614V16.3855L4.38462 17.2323V8.76936ZM4.38462 18.9226L5.84615 18.0758V19.7677L4.38462 20.6145V18.9226ZM17.5385 16.3839L7.30769 22.3064V20.6145L16.0769 15.5371L17.5385 16.3839ZM17.5385 13L16.0769 13.8468L14.6154 13L16.0769 12.1532L17.5385 13ZM16.0769 10.4613L7.30769 5.38386V3.69193L17.5385 9.61451L16.0769 10.4613Z" fill="#00E100"/>
</svg>
