<svg width="642" height="131" viewBox="0 0 642 131" fill="none" xmlns="http://www.w3.org/2000/svg">
<path d="M33.8281 110.735C33.8281 118.968 39.5456 121.501 52.7274 122.134V129.417H0V122.134C9.84669 121.659 15.7229 118.968 15.7229 110.735V37.2733C15.7229 29.0406 9.84669 26.3491 0 25.8742V18.5913H88.779V50.2558H81.1558C78.6147 35.3735 72.5796 26.6658 56.2214 26.6658H33.8281V67.9878H52.0922C60.6683 67.9878 64.1623 62.4466 64.4799 52.9472H71.4679V91.5778H64.4799C64.1623 82.0785 60.6683 76.5372 52.0922 76.5372H33.8281V110.735Z" fill="white"/>
<path d="M133.512 122.451V129.417H89.9962V122.451C97.143 121.976 101.431 119.759 101.431 114.376V70.3626L89.9962 63.2382V59.7551L116.042 50.2558H118.901V66.2463C126.048 58.1719 132.877 50.2558 141.294 50.2558C149.235 50.2558 153.047 58.0135 153.206 64.8214L140.818 73.2124H138.118C135.736 68.4628 133.83 65.4547 129.701 65.4547C126.207 65.4547 122.554 68.1461 118.901 71.6292V114.376C118.901 119.759 122.554 121.817 133.512 122.451Z" fill="white"/>
<path d="M156.218 92.0528C156.218 69.0961 171.465 50.2558 193.858 50.2558C214.981 50.2558 231.339 66.2463 231.339 89.203C231.339 112.001 216.092 131 193.858 131C172.735 131 156.218 115.009 156.218 92.0528ZM175.117 86.1949C175.117 104.877 183.217 123.559 195.446 123.559C207.516 123.559 212.44 112.476 212.44 95.0609C212.44 76.3789 204.499 57.8552 191.793 57.8552C180.2 57.8552 175.117 68.9378 175.117 86.1949Z" fill="white"/>
<path d="M251.873 70.3626L240.439 63.2382V59.7551L266.485 50.2558H269.343V63.7131C275.855 57.3802 284.431 50.2558 295.072 50.2558C309.524 50.2558 316.195 61.18 316.195 73.2124V114.376C316.195 119.759 320.483 121.976 327.629 122.451V129.417H287.449V122.451C294.595 121.976 298.725 119.759 298.725 114.376V80.0203C298.725 68.3045 293.801 63.0798 284.749 63.0798C278.872 63.0798 273.155 65.9296 269.343 69.4127V114.376C269.343 119.759 273.314 121.976 280.461 122.451V129.417H240.439V122.451C247.585 121.976 251.873 119.759 251.873 114.376V70.3626Z" fill="white"/>
<path d="M359.996 33.7903V51.839H383.819V61.8133H359.996V109.468C359.996 116.276 365.713 118.968 373.178 118.968C376.354 118.968 381.278 118.334 384.295 117.384V124.825C378.578 128.467 370.954 131 362.855 131C351.102 131 342.526 124.509 342.526 114.693V61.8133H331.568V55.797C339.508 51.9973 348.879 43.6062 353.326 33.7903H359.996Z" fill="white"/>
<path d="M411.664 37.4317C405.152 37.4317 400.07 32.0487 400.07 25.7158C400.07 19.2246 405.152 14 411.664 14C418.334 14 423.575 19.2246 423.575 25.7158C423.575 32.0487 418.334 37.4317 411.664 37.4317ZM420.716 114.376C420.716 119.759 425.004 121.976 432.151 122.451V129.417H391.812V122.451C398.958 121.976 403.246 119.759 403.246 114.376V70.3626L391.812 63.2382V59.7551L417.858 50.2558H420.716V114.376Z" fill="white"/>
<path d="M454.676 84.9283C454.676 103.294 465.634 116.434 481.199 116.434C488.822 116.434 495.969 114.06 501.845 107.41L505.498 110.735C499.78 122.451 489.139 131 474.528 131C454.676 131 439.112 115.009 439.112 92.0528C439.112 68.7794 454.994 50.2558 474.687 50.2558C495.81 50.2558 504.862 69.4127 504.862 84.6116H454.676V84.9283ZM471.67 58.1719C463.887 58.1719 457.376 65.138 455.311 77.0122L486.44 77.1705C486.281 67.5129 481.675 58.1719 471.67 58.1719Z" fill="white"/>
<path d="M557.232 122.451V129.417H513.716V122.451C520.863 121.976 525.151 119.759 525.151 114.376V70.3626L513.716 63.2382V59.7551L539.763 50.2558H542.621V66.2463C549.768 58.1719 556.597 50.2558 565.015 50.2558C572.955 50.2558 576.767 58.0135 576.926 64.8214L564.538 73.2124H561.838C559.456 68.4628 557.55 65.4547 553.421 65.4547C549.927 65.4547 546.274 68.1461 542.621 71.6292V114.376C542.621 119.759 546.274 121.817 557.232 122.451Z" fill="white"/>
<path d="M610.73 58.4885C603.584 58.4885 598.978 62.7632 598.978 68.9378C598.978 85.0866 639 79.5453 639 105.668C639 120.551 625.5 131 608.507 131C598.343 131 588.178 127.2 582.461 122.451V102.502H589.608C592.625 116.593 599.454 122.767 609.619 122.767C617.877 122.767 623.753 118.018 623.753 111.051C623.753 93.3194 584.208 100.286 584.208 74.1624C584.208 60.5467 596.119 50.2558 612.16 50.2558C620.895 50.2558 629.153 53.1055 634.712 57.2219V76.2206H627.565C625.5 65.4547 620.259 58.4885 610.73 58.4885Z" fill="white"/>
<path opacity="0.7" d="M509.816 20H507.08V10.82H510.092C511.724 10.82 512.816 11.552 512.816 13.052C512.816 14.168 512.252 14.828 511.208 15.08V15.104C512.384 15.308 513.104 16.22 513.104 17.348C513.104 19.412 511.664 20 509.816 20ZM508.196 14.732H509.888C510.86 14.732 511.664 14.348 511.664 13.172C511.664 12.176 511.052 11.708 510.032 11.708H508.196V14.732ZM508.196 19.112H509.828C511.172 19.112 511.952 18.656 511.952 17.276C511.952 16.064 511.184 15.608 509.732 15.608H508.196V19.112ZM516.964 20V16.088L514.12 10.82H515.356L517.552 15.056H517.576L519.784 10.82H520.912L518.068 16.052V20H516.964Z" fill="white"/>
<g clip-path="url(#clip0_1272_112)">
<path d="M554.574 8.70047L540.8 0.204407L539.078 1.26718V3.39069L537.356 2.32791L535.635 3.39069V5.51419L533.913 4.45141L532.191 5.51419V22.5063L533.913 23.5691L535.635 22.5063V24.6298L537.356 25.6926L539.078 24.6298V26.7533L540.8 27.8161L554.574 19.32V17.1965L552.852 16.1338L554.574 15.071V12.9475L552.852 11.8847L554.574 10.8219V8.70047ZM535.635 20.3828L533.913 21.4456V6.57696L535.635 7.63974V20.3828V20.3828ZM540.8 21.4435V19.32L547.687 15.073L549.409 16.1358L540.8 21.4435V21.4435ZM545.965 14.0103L540.8 17.1965V10.824L545.965 14.0103V14.0103ZM547.687 12.9475L540.8 8.70047V6.57696L549.409 11.8867L547.687 12.9475V12.9475ZM537.356 4.45141L539.078 5.51419V7.63769L537.356 6.57492V4.45141ZM537.356 8.70047L539.078 9.76324V18.2593L537.356 19.3221V8.70047ZM537.356 21.4435L539.078 20.3808V22.5043L537.356 23.567V21.4435V21.4435ZM552.852 18.2573L540.8 25.6905V23.567L551.13 17.1945L552.852 18.2573ZM552.852 14.0103L551.13 15.073L549.409 14.0103L551.13 12.9475L552.852 14.0103ZM551.13 10.824L540.8 4.45141V2.32791L552.852 9.7612L551.13 10.824V10.824Z" fill="#00E100"/>
<path d="M561.727 21.4435H559.739V6.57693H565.803C568.587 6.57693 570.276 8.38161 570.276 11.0365C570.276 13.6914 568.587 15.4961 565.803 15.4961H561.729V21.4435H561.727ZM568.288 11.0365C568.288 9.55066 567.493 8.38161 565.803 8.38161H561.729V13.6914H565.803C567.493 13.6914 568.288 12.5223 568.288 11.0365V11.0365ZM571.013 13.2663C571.212 11.5025 572.602 10.08 575.407 10.08C577.117 10.08 578.567 10.5685 579.304 11.8847C579.621 12.459 579.801 13.2234 579.801 14.1145V21.4415H577.892V20.0599C577.295 20.9101 576.103 21.7582 574.412 21.7582C572.304 21.7582 570.515 20.5892 570.515 18.1469C570.515 16.2359 571.728 14.8768 574.313 14.6418L577.892 14.3229V14.1104C577.892 12.6245 577.295 11.668 575.407 11.668C573.896 11.668 573.081 12.3057 572.981 13.2601H571.013V13.2663ZM577.89 16.6651V15.8149L574.51 16.1337C573.117 16.2604 572.423 16.9839 572.423 18.1509C572.423 19.6388 573.417 20.1682 574.609 20.1682C576.4 20.1702 577.89 18.8949 577.89 16.6651V16.6651ZM585.684 12.0993C584.293 12.0993 583.398 12.9495 583.398 14.8604V21.4455H581.488V10.3988H583.398V11.6742C583.895 10.7177 584.689 10.1863 586.181 10.1863H586.719V12.0972H585.684V12.0993ZM587.295 13.2663C587.493 11.5025 588.884 10.08 591.689 10.08C593.399 10.08 594.849 10.5685 595.586 11.8847C595.903 12.459 596.083 13.2234 596.083 14.1145V21.4415H594.174V20.0599C593.577 20.9101 592.385 21.7582 590.694 21.7582C588.586 21.7582 586.797 20.5892 586.797 18.1469C586.797 16.2359 588.01 14.8768 590.595 14.6418L594.174 14.3229V14.1104C594.174 12.6245 593.577 11.668 591.689 11.668C590.177 11.668 589.363 12.3057 589.263 13.2601H587.295V13.2663ZM594.174 16.6651V15.8149L590.793 16.1337C589.401 16.2604 588.706 16.9839 588.706 18.1509C588.706 19.6388 589.701 20.1682 590.893 20.1682C592.682 20.1702 594.174 18.8949 594.174 16.6651V16.6651ZM605.467 19.9577C604.87 21.0204 603.678 21.7623 602.086 21.7623C598.985 21.7623 597.296 19.1074 597.296 15.9212C597.296 12.7349 598.985 10.08 602.086 10.08C603.676 10.08 604.87 10.8239 605.467 11.8847V6.57693H607.374V21.4455H605.465V19.9577H605.467ZM602.385 11.7804C600.297 11.7804 599.203 13.5851 599.203 15.9212C599.203 18.2572 600.297 20.0639 602.385 20.0639C604.472 20.0639 605.566 18.153 605.566 15.9212C605.566 13.6914 604.472 11.7804 602.385 11.7804ZM614.731 19.7451V21.4435H608.608V19.7451H610.716V12.0993H608.608V10.4009H612.623V19.7472H614.731V19.7451ZM612.623 8.70044H610.714V6.57693H612.623V8.70044V8.70044ZM622.762 19.7451C622.364 20.3828 621.272 21.3372 619.481 21.3372C616.579 21.3372 614.691 18.7886 614.691 15.7086C614.691 12.6286 616.579 10.08 619.481 10.08C621.27 10.08 622.364 11.0365 622.762 11.6721V10.3968H624.672V20.2724C624.672 23.7775 622.783 25.5822 619.78 25.5822C617.473 25.5822 615.784 24.3069 615.386 22.3959H617.373C617.553 23.1603 618.288 23.988 619.778 23.988C621.965 23.988 622.76 22.5022 622.76 20.2704V19.7451H622.762ZM619.682 11.7804C617.794 11.7804 616.6 13.5851 616.6 15.7107C616.6 17.8342 617.792 19.6409 619.682 19.6409C621.67 19.6409 622.864 17.8362 622.864 15.7107C622.862 13.5851 621.67 11.7804 619.682 11.7804ZM628.329 11.6742C628.926 10.5051 630.118 10.082 631.312 10.082C632.703 10.082 633.996 10.7197 634.593 11.993C635.19 10.8239 636.282 10.082 638.072 10.082C640.259 10.082 641.851 11.4636 641.851 14.2228V21.4435H639.942V14.5416C639.942 12.7369 639.245 11.7804 637.675 11.7804C636.381 11.7804 635.09 12.6307 635.09 14.8604V21.4455H633.181V14.5437C633.181 12.739 632.484 11.7825 630.914 11.7825C629.621 11.7825 628.329 12.6327 628.329 14.8625V21.4476H626.42V10.3988H628.329V11.6742V11.6742Z" fill="white"/>
</g>
<defs>
<clipPath id="clip0_1272_112">
<rect width="110" height="28" fill="white" transform="translate(532)"/>
</clipPath>
</defs>
</svg>
