<svg width="639" height="128" viewBox="0 0 639 128" fill="none" xmlns="http://www.w3.org/2000/svg">
<path d="M33.8281 107.735C33.8281 115.968 39.5456 118.501 52.7274 119.134V126.417H0V119.134C9.84669 118.659 15.7229 115.968 15.7229 107.735V34.2733C15.7229 26.0406 9.84669 23.3491 0 22.8742V15.5913H88.779V47.2558H81.1558C78.6147 32.3735 72.5796 23.6658 56.2214 23.6658H33.8281V64.9878H52.0922C60.6683 64.9878 64.1623 59.4465 64.4799 49.9472H71.4679V88.5778H64.4799C64.1623 79.0785 60.6683 73.5372 52.0922 73.5372H33.8281V107.735Z" fill="white"/>
<path d="M133.512 119.451V126.417H89.9962V119.451C97.143 118.976 101.431 116.759 101.431 111.376V67.3626L89.9962 60.2382V56.7551L116.042 47.2558H118.901V63.2463C126.048 55.1719 132.877 47.2558 141.294 47.2558C149.235 47.2558 153.047 55.0135 153.206 61.8214L140.818 70.2124H138.118C135.736 65.4628 133.83 62.4547 129.701 62.4547C126.207 62.4547 122.554 65.1461 118.901 68.6292V111.376C118.901 116.759 122.554 118.817 133.512 119.451Z" fill="white"/>
<path d="M156.218 89.0528C156.218 66.0961 171.465 47.2558 193.858 47.2558C214.981 47.2558 231.339 63.2463 231.339 86.203C231.339 109.001 216.092 128 193.858 128C172.735 128 156.218 112.009 156.218 89.0528ZM175.117 83.1949C175.117 101.877 183.217 120.559 195.446 120.559C207.516 120.559 212.44 109.476 212.44 92.0609C212.44 73.3789 204.499 54.8552 191.793 54.8552C180.2 54.8552 175.117 65.9378 175.117 83.1949Z" fill="white"/>
<path d="M251.873 67.3626L240.439 60.2382V56.7551L266.485 47.2558H269.343V60.7131C275.855 54.3802 284.431 47.2558 295.072 47.2558C309.524 47.2558 316.195 58.18 316.195 70.2124V111.376C316.195 116.759 320.483 118.976 327.629 119.451V126.417H287.449V119.451C294.595 118.976 298.725 116.759 298.725 111.376V77.0203C298.725 65.3045 293.801 60.0798 284.749 60.0798C278.872 60.0798 273.155 62.9296 269.343 66.4127V111.376C269.343 116.759 273.314 118.976 280.461 119.451V126.417H240.439V119.451C247.585 118.976 251.873 116.759 251.873 111.376V67.3626Z" fill="white"/>
<path d="M359.996 30.7903V48.839H383.819V58.8133H359.996V106.468C359.996 113.276 365.713 115.968 373.178 115.968C376.354 115.968 381.278 115.334 384.295 114.384V121.825C378.578 125.467 370.954 128 362.855 128C351.102 128 342.526 121.509 342.526 111.693V58.8133H331.568V52.797C339.508 48.9973 348.879 40.6062 353.326 30.7903H359.996Z" fill="white"/>
<path d="M411.664 34.4317C405.152 34.4317 400.07 29.0487 400.07 22.7158C400.07 16.2246 405.152 11 411.664 11C418.334 11 423.575 16.2246 423.575 22.7158C423.575 29.0487 418.334 34.4317 411.664 34.4317ZM420.716 111.376C420.716 116.759 425.004 118.976 432.151 119.451V126.417H391.812V119.451C398.958 118.976 403.246 116.759 403.246 111.376V67.3626L391.812 60.2382V56.7551L417.858 47.2558H420.716V111.376Z" fill="white"/>
<path d="M454.676 81.9283C454.676 100.294 465.634 113.434 481.199 113.434C488.822 113.434 495.969 111.06 501.845 104.41L505.498 107.735C499.78 119.451 489.139 128 474.528 128C454.676 128 439.112 112.009 439.112 89.0528C439.112 65.7794 454.994 47.2558 474.687 47.2558C495.81 47.2558 504.862 66.4127 504.862 81.6116H454.676V81.9283ZM471.67 55.1719C463.887 55.1719 457.376 62.138 455.311 74.0122L486.44 74.1705C486.281 64.5129 481.675 55.1719 471.67 55.1719Z" fill="white"/>
<path d="M557.232 119.451V126.417H513.716V119.451C520.863 118.976 525.151 116.759 525.151 111.376V67.3626L513.716 60.2382V56.7551L539.763 47.2558H542.621V63.2463C549.768 55.1719 556.597 47.2558 565.015 47.2558C572.955 47.2558 576.767 55.0135 576.926 61.8214L564.538 70.2124H561.838C559.456 65.4628 557.55 62.4547 553.421 62.4547C549.927 62.4547 546.274 65.1461 542.621 68.6292V111.376C542.621 116.759 546.274 118.817 557.232 119.451Z" fill="white"/>
<path d="M610.73 55.4885C603.584 55.4885 598.978 59.7632 598.978 65.9378C598.978 82.0866 639 76.5453 639 102.668C639 117.551 625.5 128 608.507 128C598.343 128 588.178 124.2 582.461 119.451V99.502H589.608C592.625 113.593 599.454 119.767 609.619 119.767C617.877 119.767 623.753 115.018 623.753 108.051C623.753 90.3194 584.208 97.2855 584.208 71.1624C584.208 57.5467 596.119 47.2558 612.16 47.2558C620.895 47.2558 629.153 50.1055 634.712 54.2219V73.2206H627.565C625.5 62.4547 620.259 55.4885 610.73 55.4885Z" fill="white"/>
<path opacity="0.7" d="M515.18 16H512.9V8.35H515.41C516.77 8.35 517.68 8.96 517.68 10.21C517.68 11.14 517.21 11.69 516.34 11.9V11.92C517.32 12.09 517.92 12.85 517.92 13.79C517.92 15.51 516.72 16 515.18 16ZM513.83 11.61H515.24C516.05 11.61 516.72 11.29 516.72 10.31C516.72 9.48 516.21 9.09 515.36 9.09H513.83V11.61ZM513.83 15.26H515.19C516.31 15.26 516.96 14.88 516.96 13.73C516.96 12.72 516.32 12.34 515.11 12.34H513.83V15.26ZM521.136 16V12.74L518.766 8.35H519.796L521.626 11.88H521.646L523.486 8.35H524.426L522.056 12.71V16H521.136Z" fill="white"/>
<path d="M554.109 7.07705L541.734 0L540.187 0.88527V2.65411L538.64 1.76884L537.094 2.65411V4.42295L535.547 3.53768L534 4.42295V18.5771L535.547 19.4623L537.094 18.5771V20.3459L538.64 21.2312L540.187 20.3459V22.1147L541.734 23L554.109 15.9229V14.1541L552.562 13.2688L554.109 12.3836V10.6147L552.562 9.72946L554.109 8.84419V7.07705ZM537.094 16.8082L535.547 17.6935V5.30822L537.094 6.19349V16.8082V16.8082ZM541.734 17.6918V15.9229L547.921 12.3853L549.468 13.2705L541.734 17.6918V17.6918ZM546.375 11.5L541.734 14.1541V8.84589L546.375 11.5V11.5ZM547.921 10.6147L541.734 7.07705V5.30822L549.468 9.73116L547.921 10.6147V10.6147ZM538.64 3.53768L540.187 4.42295V6.19178L538.64 5.30651V3.53768ZM538.64 7.07705L540.187 7.96232V15.0394L538.64 15.9246V7.07705ZM538.64 17.6918L540.187 16.8065V18.5754L538.64 19.4606V17.6918V17.6918ZM552.562 15.0377L541.734 21.2295V19.4606L551.015 14.1524L552.562 15.0377ZM552.562 11.5L551.015 12.3853L549.468 11.5L551.015 10.6147L552.562 11.5ZM551.015 8.84589L541.734 3.53768V1.76884L552.562 7.96062L551.015 8.84589V8.84589Z" fill="#00E100"/>
<g clip-path="url(#clip0_1282_3838)">
<path d="M561.958 16.3347C561.96 16.5216 562.489 16.7201 563.237 16.8144L563.764 16.8599L563.773 17.7606L558.39 17.8164L558.381 16.9157L558.788 16.8606C559.517 16.7341 559.939 16.5427 559.937 16.3558L559.835 6.49891C559.833 6.31195 559.407 6.12938 558.676 6.01794L558.268 5.9712L558.258 5.07052L562.741 5.02406C565.967 4.99061 568.424 6.08688 568.45 8.60209C568.475 10.9813 566.387 12.7536 562.944 13.1292L562.731 12.2136C564.8 11.9201 566.37 11.0711 566.352 9.3206C566.332 7.43427 565.062 6.08771 562.328 6.11608L561.853 6.12101L561.958 16.3348L561.958 16.3347Z" fill="white"/>
<path d="M568.985 15.244C568.985 13.3065 570.548 12.9156 572.025 12.6777C572.806 12.5417 573.316 12.3207 573.706 11.8958L573.723 11.08C573.74 9.7544 573.163 9.22751 572.331 9.22751C571.567 9.22751 571.295 9.56744 571.295 9.99235C571.295 10.2813 571.363 10.5022 571.363 10.6552C571.363 10.8762 571.023 11.0461 570.395 11.0461C569.868 11.0461 569.342 10.8762 569.342 10.6722C569.342 9.90737 571.193 7.96991 573.027 7.96991C574.589 7.96991 575.557 8.59864 575.523 10.4343L575.438 14.3432C575.404 15.8729 575.829 16.2636 576.576 16.2636C576.763 16.2636 576.882 16.2466 577.052 16.1957L577.103 16.2296C576.899 17.0625 576.237 17.6232 575.422 17.6232C574.556 17.6232 574.063 17.0793 573.791 16.2806C573.282 17.1644 572.552 17.7083 571.533 17.7083C570.14 17.7083 568.986 16.8245 568.986 15.244H568.985ZM572.11 16.4167C572.721 16.4167 573.231 16.0938 573.638 15.6859L573.689 12.7966C573.435 13.1536 573.044 13.3405 572.45 13.5275C571.533 13.8164 570.768 14.0884 570.768 15.091C570.768 15.9578 571.312 16.4167 572.11 16.4167Z" fill="white"/>
<path d="M579.073 10.4682C579.073 10.2983 578.937 10.1623 577.765 9.6184V9.00667L580.143 7.98688H580.567L580.839 9.73738C581.535 8.59861 582.147 8.00387 583.166 8.00387C583.709 8.00387 584.201 8.20783 584.201 8.41179C584.201 9.24462 583.641 10.3662 583.386 10.3662C583.335 10.3662 583.301 10.3492 583.182 10.2813C582.775 10.0433 582.384 9.89034 581.977 9.89034C581.62 9.89034 581.246 10.0943 580.907 10.4002V15.9917C580.907 16.1786 581.348 16.3656 582.18 16.4846L582.707 16.5525V17.3684H577.799V16.5525L578.105 16.4846C578.835 16.3316 579.073 16.1786 579.073 15.9917V10.4681L579.073 10.4682Z" fill="white"/>
<path d="M584.522 15.244C584.522 13.3065 586.084 12.9156 587.562 12.6777C588.343 12.5417 588.852 12.3207 589.243 11.8958L589.26 11.08C589.277 9.7544 588.7 9.22751 587.867 9.22751C587.103 9.22751 586.831 9.56744 586.831 9.99235C586.831 10.2813 586.899 10.5022 586.899 10.6552C586.899 10.8762 586.56 11.0461 585.932 11.0461C585.405 11.0461 584.879 10.8762 584.879 10.6722C584.879 9.90737 586.73 7.96991 588.564 7.96991C590.126 7.96991 591.094 8.59864 591.06 10.4343L590.975 14.3432C590.941 15.8729 591.366 16.2636 592.113 16.2636C592.3 16.2636 592.419 16.2466 592.588 16.1957L592.639 16.2296C592.436 17.0625 591.773 17.6232 590.958 17.6232C590.092 17.6232 589.6 17.0793 589.328 16.2806C588.819 17.1644 588.088 17.7083 587.069 17.7083C585.677 17.7083 584.522 16.8245 584.522 15.244H584.522ZM587.646 16.4167C588.258 16.4167 588.767 16.0938 589.175 15.6859L589.226 12.7966C588.971 13.1536 588.581 13.3405 587.986 13.5275C587.069 13.8164 586.305 14.0884 586.305 15.091C586.305 15.9578 586.848 16.4167 587.646 16.4167Z" fill="white"/>
<path d="M600.478 17.8246H600.037L599.799 16.465C598.814 17.1449 597.761 17.7058 596.776 17.7058C594.653 17.7058 592.972 15.8872 592.972 13.151C592.972 10.0068 595.044 8.00135 597.557 8.00135C598.44 8.00135 599.085 8.17131 599.595 8.49424V5.60937C599.595 5.4394 599.442 5.30343 598.253 4.6577V4.06283L601.005 3.12802H601.412V14.3066C601.412 15.7853 601.837 16.1761 602.465 16.1761C602.618 16.1761 602.77 16.1591 602.94 16.1251L602.991 16.1591V17.0769L600.478 17.8246ZM597.914 16.2441C598.542 16.2441 599.085 16.0911 599.595 15.8192V11.6043C599.595 10.0918 598.644 9.10598 597.319 9.10598C595.961 9.10598 594.891 10.0918 594.891 12.2332C594.891 14.8165 596.063 16.2441 597.914 16.2441Z" fill="white"/>
<path d="M603.622 17.3685V16.5526L603.927 16.4846C604.657 16.3147 604.895 16.1617 604.895 15.9747V10.4682C604.895 10.2982 604.759 10.1622 603.587 9.61834V9.0066L606.321 7.98682H606.729V15.9747C606.729 16.1617 606.984 16.3147 607.697 16.4846L608.003 16.5526V17.3685H603.621H603.622ZM607.103 4.84274C607.103 5.64158 606.559 6.13434 605.761 6.13434C604.963 6.13434 604.42 5.64144 604.42 4.84274C604.42 4.06091 604.963 3.56815 605.761 3.56815C606.576 3.56815 607.103 4.06104 607.103 4.84274Z" fill="white"/>
<path d="M611.7 14.2752C611.31 14.5811 611.004 14.938 611.004 15.295C611.004 15.6348 611.31 15.7879 612.278 15.8558L615.029 16.0598C616.693 16.1958 617.644 17.0285 617.644 18.3712C617.644 20.3936 615.521 22.2972 612.431 22.2972C609.9 22.2972 608.678 21.3624 608.678 19.9519C608.678 19.0512 609.306 18.4733 610.8 17.3855C610.07 17.2326 609.102 16.7057 609.102 16.0259C609.102 15.3292 609.782 14.7004 610.936 14.0885C609.765 13.6466 608.949 12.6778 608.949 11.3352C608.949 9.32975 610.512 8.00403 612.685 8.00403C613.517 8.00403 614.248 8.25898 614.791 8.68389L617.593 8.75187V9.63555L615.708 10.0605C615.912 10.3834 616.048 10.7572 616.048 11.2332C616.048 13.0347 614.502 14.3263 612.346 14.3263C612.125 14.3263 611.921 14.3093 611.7 14.2753L611.7 14.2752ZM612.957 21.2265C614.536 21.2265 615.827 20.2917 615.827 18.9661C615.827 18.1502 615.385 17.7933 614.027 17.6913L611.785 17.5384C611.055 18.0313 610.427 18.7451 610.427 19.425C610.427 20.4446 611.344 21.2266 612.957 21.2266V21.2265ZM614.332 11.6239C614.332 10.3153 613.636 9.15951 612.312 9.15951C611.395 9.15951 610.749 9.78838 610.749 10.808C610.749 12.0996 611.412 13.2724 612.753 13.2724C613.704 13.2724 614.332 12.6435 614.332 11.6239Z" fill="white"/>
<path d="M619.886 10.4689C619.886 10.299 619.75 10.163 618.578 9.6191V9.00737L620.956 7.98758H621.38L621.584 9.3133C622.671 8.63344 623.826 7.98758 624.929 7.98758C625.914 7.98758 626.628 8.32751 626.984 9.38115C628.122 8.68443 629.328 7.98758 630.482 7.98758C631.926 7.98758 632.792 8.75242 632.792 11.5567V15.9925C632.792 16.1795 633.047 16.3324 633.777 16.4854L634.065 16.5534V17.3692H629.701V16.5534L629.99 16.4854C630.72 16.3154 630.958 16.1795 630.958 15.9925V11.8116C630.958 10.1971 630.329 9.50026 629.005 9.50026C628.36 9.50026 627.697 9.70422 627.154 9.99316C627.239 10.4181 627.273 10.945 627.273 11.5567V15.9925C627.273 16.1795 627.51 16.3324 628.224 16.4854L628.529 16.5534V17.3692H624.182V16.5534L624.471 16.4854C625.201 16.3154 625.438 16.1795 625.438 15.9925V11.8116C625.438 10.1971 624.81 9.50026 623.469 9.50026C622.874 9.50026 622.246 9.68723 621.719 9.94217V15.9926C621.719 16.1796 621.957 16.3156 622.687 16.4855L622.976 16.5535V17.3694H618.612V16.5535L618.917 16.4855C619.648 16.3326 619.885 16.1796 619.885 15.9926V10.4691L619.886 10.4689Z" fill="white"/>
</g>
<defs>
<clipPath id="clip0_1282_3838">
<rect width="75.8074" height="19.1667" fill="white" transform="translate(558.258 3.13058)"/>
</clipPath>
</defs>
</svg>
