<svg width="3071" height="1200" viewBox="0 0 3071 1200" fill="none" xmlns="http://www.w3.org/2000/svg">
<path d="M834.86 495.475L542.023 328L505.418 348.95V390.808L468.814 369.859L432.209 390.808V432.667L395.605 411.717L359 432.667V767.617L395.605 788.567L432.209 767.617V809.476L468.814 830.426L505.418 809.476V851.335L542.023 872.284L834.86 704.809V662.95L798.255 642.001L834.86 621.051V579.193L798.255 558.243L834.86 537.294V495.475ZM432.209 725.759L395.605 746.708V453.616L432.209 474.566V725.759ZM542.023 746.668V704.809L688.441 621.092L725.046 642.041L542.023 746.668ZM651.837 600.142L542.023 662.95V537.334L651.837 600.142ZM688.441 579.193L542.023 495.475V453.616L725.046 558.283L688.441 579.193ZM468.814 411.717L505.418 432.667V474.526L468.814 453.576V411.717ZM468.814 495.475L505.418 516.425V683.9L468.814 704.849V495.475ZM468.814 746.668L505.418 725.718V767.577L468.814 788.527V746.668ZM798.255 683.86L542.023 830.385V788.527L761.651 662.91L798.255 683.86ZM798.255 600.142L761.651 621.092L725.046 600.142L761.651 579.193L798.255 600.142ZM761.651 537.334L542.023 411.717V369.859L798.255 516.384L761.651 537.334Z" fill="#00E100"/>
<g clip-path="url(#clip0_84_779)">
<path d="M1020.61 714.551C1020.66 718.976 1033.16 723.672 1050.87 725.904L1063.34 726.981L1063.56 748.295L936.174 749.615L935.953 728.301L945.585 726.997C962.837 724.003 972.836 719.475 972.79 715.051L970.376 481.793C970.331 477.368 960.238 473.048 942.931 470.411L933.276 469.305L933.056 447.991L1039.14 446.891C1115.49 446.1 1173.63 472.042 1174.25 531.564C1174.83 587.867 1125.43 629.807 1043.94 638.695L1038.89 617.027C1087.85 610.083 1125.02 589.992 1124.59 548.567C1124.13 503.928 1094.06 472.062 1029.36 472.733L1018.11 472.85L1020.61 714.554L1020.61 714.551Z" fill="white"/>
<path d="M1186.91 688.741C1186.91 642.892 1223.88 633.641 1258.85 628.01C1277.33 624.793 1289.39 619.564 1298.63 609.509L1299.03 590.202C1299.43 558.833 1285.77 546.364 1266.08 546.364C1247.99 546.364 1241.56 554.409 1241.56 564.464C1241.56 571.302 1243.17 576.53 1243.17 580.15C1243.17 585.379 1235.13 589.401 1220.27 589.401C1207.81 589.401 1195.35 585.379 1195.35 580.552C1195.35 562.453 1239.16 516.604 1282.56 516.604C1319.53 516.604 1342.43 531.482 1341.63 574.921L1339.62 667.424C1338.82 703.623 1348.86 712.871 1366.55 712.871C1370.97 712.871 1373.78 712.469 1377.8 711.262L1379.01 712.067C1374.18 731.775 1358.51 745.045 1339.22 745.045C1318.73 745.045 1307.07 732.174 1300.64 713.273C1288.59 734.188 1271.31 747.059 1247.2 747.059C1214.25 747.059 1186.92 726.144 1186.92 688.741H1186.91ZM1260.85 716.494C1275.32 716.494 1287.38 708.852 1297.02 699.199L1298.23 630.826C1292.2 639.272 1282.96 643.697 1268.89 648.121C1247.19 654.959 1229.11 661.394 1229.11 685.121C1229.11 705.634 1241.97 716.494 1260.85 716.494Z" fill="white"/>
<path d="M1425.63 575.725C1425.63 571.703 1422.41 568.485 1394.69 555.615V541.138L1450.95 517.005H1460.99L1467.42 558.43C1483.9 531.482 1498.37 517.408 1522.48 517.408C1535.34 517.408 1546.99 522.234 1546.99 527.061C1546.99 546.769 1533.73 573.312 1527.7 573.312C1526.49 573.312 1525.69 572.91 1522.88 571.301C1513.23 565.67 1503.99 562.05 1494.34 562.05C1485.9 562.05 1477.06 566.877 1469.02 574.116V706.435C1469.02 710.859 1479.47 715.284 1499.17 718.099L1511.62 719.708V739.014H1395.49V719.708L1402.72 718.099C1420 714.479 1425.62 710.859 1425.62 706.435V575.722L1425.63 575.725Z" fill="white"/>
<path d="M1554.58 688.741C1554.58 642.892 1591.55 633.641 1626.51 628.01C1645 624.793 1657.05 619.564 1666.3 609.509L1666.7 590.202C1667.1 558.833 1653.44 546.364 1633.75 546.364C1615.66 546.364 1609.23 554.409 1609.23 564.464C1609.23 571.302 1610.84 576.53 1610.84 580.15C1610.84 585.379 1602.8 589.401 1587.93 589.401C1575.48 589.401 1563.02 585.379 1563.02 580.552C1563.02 562.453 1606.82 516.604 1650.22 516.604C1687.19 516.604 1710.1 531.482 1709.3 574.921L1707.29 667.424C1706.48 703.623 1716.53 712.871 1734.21 712.871C1738.64 712.871 1741.45 712.469 1745.47 711.262L1746.67 712.067C1741.85 731.775 1726.18 745.045 1706.89 745.045C1686.39 745.045 1674.74 732.174 1668.31 713.273C1656.26 734.188 1638.98 747.059 1614.86 747.059C1581.91 747.059 1554.58 726.144 1554.58 688.741H1554.58ZM1628.52 716.494C1642.99 716.494 1655.04 708.852 1664.69 699.199L1665.89 630.826C1659.87 639.272 1650.62 643.697 1636.56 648.121C1614.86 654.959 1596.77 661.394 1596.77 685.121C1596.77 705.634 1609.63 716.494 1628.52 716.494Z" fill="white"/>
<path d="M1932.17 749.811H1921.72L1916.09 717.637C1892.79 733.726 1867.87 746.999 1844.56 746.999C1794.33 746.999 1754.54 703.962 1754.54 639.212C1754.54 564.806 1803.57 517.348 1863.05 517.348C1883.94 517.348 1899.21 521.37 1911.27 529.012V460.743C1911.27 456.72 1907.66 453.503 1879.52 438.222V424.144L1944.63 402.023H1954.27V666.559C1954.27 701.552 1964.32 710.799 1979.18 710.799C1982.8 710.799 1986.42 710.397 1990.44 709.593L1991.64 710.397V732.117L1932.17 749.811ZM1871.48 712.408C1886.35 712.408 1899.21 708.788 1911.27 702.353V602.61C1911.27 566.817 1888.76 543.488 1857.42 543.488C1825.27 543.488 1799.95 566.817 1799.95 617.492C1799.95 678.626 1827.68 712.408 1871.48 712.408Z" fill="white"/>
<path d="M2006.56 739.016V719.709L2013.79 718.101C2031.07 714.078 2036.69 710.458 2036.69 706.034V575.723C2036.69 571.701 2033.48 568.484 2005.75 555.613V541.136L2070.45 517.004H2080.09V706.034C2080.09 710.458 2086.12 714.078 2103 718.101L2110.23 719.709V739.016H2006.55H2006.56ZM2088.94 442.601C2088.94 461.505 2076.08 473.165 2057.19 473.165C2038.3 473.165 2025.44 461.501 2025.44 442.601C2025.44 424.099 2038.3 412.438 2057.19 412.438C2076.48 412.438 2088.94 424.102 2088.94 442.601Z" fill="white"/>
<path d="M2197.74 665.815C2188.49 673.055 2181.26 681.501 2181.26 689.948C2181.26 697.989 2188.49 701.612 2211.4 703.221L2276.5 708.048C2315.88 711.265 2338.39 730.971 2338.39 762.745C2338.39 810.606 2288.16 855.653 2215.02 855.653C2155.14 855.653 2126.21 833.532 2126.21 800.151C2126.21 778.837 2141.08 765.162 2176.44 739.42C2159.16 735.8 2136.26 723.332 2136.26 707.246C2136.26 690.759 2152.33 675.877 2179.66 661.397C2151.93 650.94 2132.64 628.014 2132.64 596.242C2132.64 548.784 2169.61 517.411 2221.05 517.411C2240.74 517.411 2258.02 523.445 2270.88 533.5L2337.19 535.109V556.021L2292.58 566.076C2297.4 573.718 2300.62 582.563 2300.62 593.829C2300.62 636.46 2264.05 667.025 2213.01 667.025C2207.79 667.025 2202.96 666.623 2197.74 665.818L2197.74 665.815ZM2227.48 830.314C2264.85 830.314 2295.39 808.192 2295.39 776.823C2295.39 757.517 2284.94 749.07 2252.79 746.657L2199.75 743.037C2182.47 754.701 2167.6 771.594 2167.6 787.683C2167.6 811.812 2189.3 830.317 2227.48 830.317V830.314ZM2260.03 603.073C2260.03 572.106 2243.55 544.755 2212.2 544.755C2190.51 544.755 2175.23 559.637 2175.23 583.767C2175.23 614.332 2190.91 642.085 2222.65 642.085C2245.16 642.085 2260.03 627.203 2260.03 603.073Z" fill="white"/>
<path d="M2391.45 575.741C2391.45 571.719 2388.23 568.502 2360.5 555.631V541.154L2416.76 517.021H2426.81L2431.63 548.394C2457.35 532.306 2484.68 517.021 2510.8 517.021C2534.1 517.021 2550.98 525.066 2559.43 550C2586.35 533.512 2614.88 517.021 2642.21 517.021C2676.37 517.021 2696.86 535.121 2696.86 601.483V706.454C2696.86 710.879 2702.89 714.499 2720.17 718.118L2727 719.727V739.034H2623.72V719.727L2630.55 718.118C2647.83 714.096 2653.45 710.879 2653.45 706.454V607.516C2653.45 569.309 2638.58 552.818 2607.24 552.818C2591.97 552.818 2576.3 557.645 2563.44 564.483C2565.44 574.538 2566.25 587.007 2566.25 601.483V706.454C2566.25 710.879 2571.88 714.499 2588.75 718.118L2595.98 719.727V739.034H2493.11V719.727L2499.94 718.118C2517.22 714.096 2522.84 710.879 2522.84 706.454V607.516C2522.84 569.309 2507.98 552.818 2476.23 552.818C2462.16 552.818 2447.29 557.243 2434.84 563.276V706.458C2434.84 710.882 2440.46 714.1 2457.74 718.122L2464.57 719.731V739.037H2361.29V719.731L2368.52 718.122C2385.81 714.502 2391.43 710.882 2391.43 706.458V575.745L2391.45 575.741Z" fill="white"/>
</g>
<defs>
<clipPath id="clip0_84_779">
<rect width="1793.95" height="453.57" fill="white" transform="translate(933.053 402.083)"/>
</clipPath>
</defs>
</svg>
