<svg width="464" height="464" viewBox="0 0 464 464" fill="none" xmlns="http://www.w3.org/2000/svg">
<mask id="mask0_1157_31965" style="mask-type:luminance" maskUnits="userSpaceOnUse" x="0" y="0" width="464" height="464">
<path d="M8 160C12.4183 160 16 156.418 16 152C16 147.582 12.4183 144 8 144C3.58172 144 0 147.582 0 152C0 156.418 3.58172 160 8 160Z" fill="white"/>
<path d="M8 192C12.4183 192 16 188.418 16 184C16 179.582 12.4183 176 8 176C3.58172 176 0 179.582 0 184C0 188.418 3.58172 192 8 192Z" fill="white"/>
<path d="M8 208C12.4183 208 16 204.418 16 200C16 195.582 12.4183 192 8 192C3.58172 192 0 195.582 0 200C0 204.418 3.58172 208 8 208Z" fill="white"/>
<path d="M8 224C12.4183 224 16 220.418 16 216C16 211.582 12.4183 208 8 208C3.58172 208 0 211.582 0 216C0 220.418 3.58172 224 8 224Z" fill="white"/>
<path d="M8 240C12.4183 240 16 236.418 16 232C16 227.582 12.4183 224 8 224C3.58172 224 0 227.582 0 232C0 236.418 3.58172 240 8 240Z" fill="white"/>
<path d="M8 272C12.4183 272 16 268.418 16 264C16 259.582 12.4183 256 8 256C3.58172 256 0 259.582 0 264C0 268.418 3.58172 272 8 272Z" fill="white"/>
<path d="M8 288C12.4183 288 16 284.418 16 280C16 275.582 12.4183 272 8 272C3.58172 272 0 275.582 0 280C0 284.418 3.58172 288 8 288Z" fill="white"/>
<path d="M8 304C12.4183 304 16 300.418 16 296C16 291.582 12.4183 288 8 288C3.58172 288 0 291.582 0 296C0 300.418 3.58172 304 8 304Z" fill="white"/>
<path d="M8 320C12.4183 320 16 316.418 16 312C16 307.582 12.4183 304 8 304C3.58172 304 0 307.582 0 312C0 316.418 3.58172 320 8 320Z" fill="white"/>
<path d="M24 176C28.4183 176 32 172.418 32 168C32 163.582 28.4183 160 24 160C19.5817 160 16 163.582 16 168C16 172.418 19.5817 176 24 176Z" fill="white"/>
<path d="M24 192C28.4183 192 32 188.418 32 184C32 179.582 28.4183 176 24 176C19.5817 176 16 179.582 16 184C16 188.418 19.5817 192 24 192Z" fill="white"/>
<path d="M24 256C28.4183 256 32 252.418 32 248C32 243.582 28.4183 240 24 240C19.5817 240 16 243.582 16 248C16 252.418 19.5817 256 24 256Z" fill="white"/>
<path d="M24 272C28.4183 272 32 268.418 32 264C32 259.582 28.4183 256 24 256C19.5817 256 16 259.582 16 264C16 268.418 19.5817 272 24 272Z" fill="white"/>
<path d="M24 336C28.4183 336 32 332.418 32 328C32 323.582 28.4183 320 24 320C19.5817 320 16 323.582 16 328C16 332.418 19.5817 336 24 336Z" fill="white"/>
<path d="M40 144C44.4183 144 48 140.418 48 136C48 131.582 44.4183 128 40 128C35.5817 128 32 131.582 32 136C32 140.418 35.5817 144 40 144Z" fill="white"/>
<path d="M40 160C44.4183 160 48 156.418 48 152C48 147.582 44.4183 144 40 144C35.5817 144 32 147.582 32 152C32 156.418 35.5817 160 40 160Z" fill="white"/>
<path d="M40 192C44.4183 192 48 188.418 48 184C48 179.582 44.4183 176 40 176C35.5817 176 32 179.582 32 184C32 188.418 35.5817 192 40 192Z" fill="white"/>
<path d="M40 208C44.4183 208 48 204.418 48 200C48 195.582 44.4183 192 40 192C35.5817 192 32 195.582 32 200C32 204.418 35.5817 208 40 208Z" fill="white"/>
<path d="M40 256C44.4183 256 48 252.418 48 248C48 243.582 44.4183 240 40 240C35.5817 240 32 243.582 32 248C32 252.418 35.5817 256 40 256Z" fill="white"/>
<path d="M40 272C44.4183 272 48 268.418 48 264C48 259.582 44.4183 256 40 256C35.5817 256 32 259.582 32 264C32 268.418 35.5817 272 40 272Z" fill="white"/>
<path d="M40 288C44.4183 288 48 284.418 48 280C48 275.582 44.4183 272 40 272C35.5817 272 32 275.582 32 280C32 284.418 35.5817 288 40 288Z" fill="white"/>
<path d="M40 304C44.4183 304 48 300.418 48 296C48 291.582 44.4183 288 40 288C35.5817 288 32 291.582 32 296C32 300.418 35.5817 304 40 304Z" fill="white"/>
<path d="M40 320C44.4183 320 48 316.418 48 312C48 307.582 44.4183 304 40 304C35.5817 304 32 307.582 32 312C32 316.418 35.5817 320 40 320Z" fill="white"/>
<path d="M40 336C44.4183 336 48 332.418 48 328C48 323.582 44.4183 320 40 320C35.5817 320 32 323.582 32 328C32 332.418 35.5817 336 40 336Z" fill="white"/>
<path d="M56 160C60.4183 160 64 156.418 64 152C64 147.582 60.4183 144 56 144C51.5817 144 48 147.582 48 152C48 156.418 51.5817 160 56 160Z" fill="white"/>
<path d="M56 208C60.4183 208 64 204.418 64 200C64 195.582 60.4183 192 56 192C51.5817 192 48 195.582 48 200C48 204.418 51.5817 208 56 208Z" fill="white"/>
<path d="M56 272C60.4183 272 64 268.418 64 264C64 259.582 60.4183 256 56 256C51.5817 256 48 259.582 48 264C48 268.418 51.5817 272 56 272Z" fill="white"/>
<path d="M56 304C60.4183 304 64 300.418 64 296C64 291.582 60.4183 288 56 288C51.5817 288 48 291.582 48 296C48 300.418 51.5817 304 56 304Z" fill="white"/>
<path d="M56 320C60.4183 320 64 316.418 64 312C64 307.582 60.4183 304 56 304C51.5817 304 48 307.582 48 312C48 316.418 51.5817 320 56 320Z" fill="white"/>
<path d="M72 144C76.4183 144 80 140.418 80 136C80 131.582 76.4183 128 72 128C67.5817 128 64 131.582 64 136C64 140.418 67.5817 144 72 144Z" fill="white"/>
<path d="M72 176C76.4183 176 80 172.418 80 168C80 163.582 76.4183 160 72 160C67.5817 160 64 163.582 64 168C64 172.418 67.5817 176 72 176Z" fill="white"/>
<path d="M72 192C76.4183 192 80 188.418 80 184C80 179.582 76.4183 176 72 176C67.5817 176 64 179.582 64 184C64 188.418 67.5817 192 72 192Z" fill="white"/>
<path d="M72 208C76.4183 208 80 204.418 80 200C80 195.582 76.4183 192 72 192C67.5817 192 64 195.582 64 200C64 204.418 67.5817 208 72 208Z" fill="white"/>
<path d="M72 240C76.4183 240 80 236.418 80 232C80 227.582 76.4183 224 72 224C67.5817 224 64 227.582 64 232C64 236.418 67.5817 240 72 240Z" fill="white"/>
<path d="M72 272C76.4183 272 80 268.418 80 264C80 259.582 76.4183 256 72 256C67.5817 256 64 259.582 64 264C64 268.418 67.5817 272 72 272Z" fill="white"/>
<path d="M72 304C76.4183 304 80 300.418 80 296C80 291.582 76.4183 288 72 288C67.5817 288 64 291.582 64 296C64 300.418 67.5817 304 72 304Z" fill="white"/>
<path d="M88 144C92.4183 144 96 140.418 96 136C96 131.582 92.4183 128 88 128C83.5817 128 80 131.582 80 136C80 140.418 83.5817 144 88 144Z" fill="white"/>
<path d="M88 160C92.4183 160 96 156.418 96 152C96 147.582 92.4183 144 88 144C83.5817 144 80 147.582 80 152C80 156.418 83.5817 160 88 160Z" fill="white"/>
<path d="M88 192C92.4183 192 96 188.418 96 184C96 179.582 92.4183 176 88 176C83.5817 176 80 179.582 80 184C80 188.418 83.5817 192 88 192Z" fill="white"/>
<path d="M88 208C92.4183 208 96 204.418 96 200C96 195.582 92.4183 192 88 192C83.5817 192 80 195.582 80 200C80 204.418 83.5817 208 88 208Z" fill="white"/>
<path d="M88 224C92.4183 224 96 220.418 96 216C96 211.582 92.4183 208 88 208C83.5817 208 80 211.582 80 216C80 220.418 83.5817 224 88 224Z" fill="white"/>
<path d="M88 240C92.4183 240 96 236.418 96 232C96 227.582 92.4183 224 88 224C83.5817 224 80 227.582 80 232C80 236.418 83.5817 240 88 240Z" fill="white"/>
<path d="M88 256C92.4183 256 96 252.418 96 248C96 243.582 92.4183 240 88 240C83.5817 240 80 243.582 80 248C80 252.418 83.5817 256 88 256Z" fill="white"/>
<path d="M88 304C92.4183 304 96 300.418 96 296C96 291.582 92.4183 288 88 288C83.5817 288 80 291.582 80 296C80 300.418 83.5817 304 88 304Z" fill="white"/>
<path d="M88 320C92.4183 320 96 316.418 96 312C96 307.582 92.4183 304 88 304C83.5817 304 80 307.582 80 312C80 316.418 83.5817 320 88 320Z" fill="white"/>
<path d="M88 336C92.4183 336 96 332.418 96 328C96 323.582 92.4183 320 88 320C83.5817 320 80 323.582 80 328C80 332.418 83.5817 336 88 336Z" fill="white"/>
<path d="M104 144C108.418 144 112 140.418 112 136C112 131.582 108.418 128 104 128C99.5817 128 96 131.582 96 136C96 140.418 99.5817 144 104 144Z" fill="white"/>
<path d="M104 176C108.418 176 112 172.418 112 168C112 163.582 108.418 160 104 160C99.5817 160 96 163.582 96 168C96 172.418 99.5817 176 104 176Z" fill="white"/>
<path d="M104 208C108.418 208 112 204.418 112 200C112 195.582 108.418 192 104 192C99.5817 192 96 195.582 96 200C96 204.418 99.5817 208 104 208Z" fill="white"/>
<path d="M104 240C108.418 240 112 236.418 112 232C112 227.582 108.418 224 104 224C99.5817 224 96 227.582 96 232C96 236.418 99.5817 240 104 240Z" fill="white"/>
<path d="M104 272C108.418 272 112 268.418 112 264C112 259.582 108.418 256 104 256C99.5817 256 96 259.582 96 264C96 268.418 99.5817 272 104 272Z" fill="white"/>
<path d="M104 304C108.418 304 112 300.418 112 296C112 291.582 108.418 288 104 288C99.5817 288 96 291.582 96 296C96 300.418 99.5817 304 104 304Z" fill="white"/>
<path d="M104 336C108.418 336 112 332.418 112 328C112 323.582 108.418 320 104 320C99.5817 320 96 323.582 96 328C96 332.418 99.5817 336 104 336Z" fill="white"/>
<path d="M120 160C124.418 160 128 156.418 128 152C128 147.582 124.418 144 120 144C115.582 144 112 147.582 112 152C112 156.418 115.582 160 120 160Z" fill="white"/>
<path d="M120 208C124.418 208 128 204.418 128 200C128 195.582 124.418 192 120 192C115.582 192 112 195.582 112 200C112 204.418 115.582 208 120 208Z" fill="white"/>
<path d="M120 256C124.418 256 128 252.418 128 248C128 243.582 124.418 240 120 240C115.582 240 112 243.582 112 248C112 252.418 115.582 256 120 256Z" fill="white"/>
<path d="M120 272C124.418 272 128 268.418 128 264C128 259.582 124.418 256 120 256C115.582 256 112 259.582 112 264C112 268.418 115.582 272 120 272Z" fill="white"/>
<path d="M120 288C124.418 288 128 284.418 128 280C128 275.582 124.418 272 120 272C115.582 272 112 275.582 112 280C112 284.418 115.582 288 120 288Z" fill="white"/>
<path d="M120 304C124.418 304 128 300.418 128 296C128 291.582 124.418 288 120 288C115.582 288 112 291.582 112 296C112 300.418 115.582 304 120 304Z" fill="white"/>
<path d="M120 320C124.418 320 128 316.418 128 312C128 307.582 124.418 304 120 304C115.582 304 112 307.582 112 312C112 316.418 115.582 320 120 320Z" fill="white"/>
<path d="M120 336C124.418 336 128 332.418 128 328C128 323.582 124.418 320 120 320C115.582 320 112 323.582 112 328C112 332.418 115.582 336 120 336Z" fill="white"/>
<path d="M136 32C140.418 32 144 28.4183 144 24C144 19.5817 140.418 16 136 16C131.582 16 128 19.5817 128 24C128 28.4183 131.582 32 136 32Z" fill="white"/>
<path d="M136 80C140.418 80 144 76.4183 144 72C144 67.5817 140.418 64 136 64C131.582 64 128 67.5817 128 72C128 76.4183 131.582 80 136 80Z" fill="white"/>
<path d="M136 112C140.418 112 144 108.418 144 104C144 99.5817 140.418 96 136 96C131.582 96 128 99.5817 128 104C128 108.418 131.582 112 136 112Z" fill="white"/>
<path d="M136 144C140.418 144 144 140.418 144 136C144 131.582 140.418 128 136 128C131.582 128 128 131.582 128 136C128 140.418 131.582 144 136 144Z" fill="white"/>
<path d="M136 160C140.418 160 144 156.418 144 152C144 147.582 140.418 144 136 144C131.582 144 128 147.582 128 152C128 156.418 131.582 160 136 160Z" fill="white"/>
<path d="M136 192C140.418 192 144 188.418 144 184C144 179.582 140.418 176 136 176C131.582 176 128 179.582 128 184C128 188.418 131.582 192 136 192Z" fill="white"/>
<path d="M136 208C140.418 208 144 204.418 144 200C144 195.582 140.418 192 136 192C131.582 192 128 195.582 128 200C128 204.418 131.582 208 136 208Z" fill="white"/>
<path d="M136 224C140.418 224 144 220.418 144 216C144 211.582 140.418 208 136 208C131.582 208 128 211.582 128 216C128 220.418 131.582 224 136 224Z" fill="white"/>
<path d="M136 256C140.418 256 144 252.418 144 248C144 243.582 140.418 240 136 240C131.582 240 128 243.582 128 248C128 252.418 131.582 256 136 256Z" fill="white"/>
<path d="M136 304C140.418 304 144 300.418 144 296C144 291.582 140.418 288 136 288C131.582 288 128 291.582 128 296C128 300.418 131.582 304 136 304Z" fill="white"/>
<path d="M136 336C140.418 336 144 332.418 144 328C144 323.582 140.418 320 136 320C131.582 320 128 323.582 128 328C128 332.418 131.582 336 136 336Z" fill="white"/>
<path d="M136 352C140.418 352 144 348.418 144 344C144 339.582 140.418 336 136 336C131.582 336 128 339.582 128 344C128 348.418 131.582 352 136 352Z" fill="white"/>
<path d="M136 384C140.418 384 144 380.418 144 376C144 371.582 140.418 368 136 368C131.582 368 128 371.582 128 376C128 380.418 131.582 384 136 384Z" fill="white"/>
<path d="M136 400C140.418 400 144 396.418 144 392C144 387.582 140.418 384 136 384C131.582 384 128 387.582 128 392C128 396.418 131.582 400 136 400Z" fill="white"/>
<path d="M136 432C140.418 432 144 428.418 144 424C144 419.582 140.418 416 136 416C131.582 416 128 419.582 128 424C128 428.418 131.582 432 136 432Z" fill="white"/>
<path d="M152 48C156.418 48 160 44.4183 160 40C160 35.5817 156.418 32 152 32C147.582 32 144 35.5817 144 40C144 44.4183 147.582 48 152 48Z" fill="white"/>
<path d="M152 64C156.418 64 160 60.4183 160 56C160 51.5817 156.418 48 152 48C147.582 48 144 51.5817 144 56C144 60.4183 147.582 64 152 64Z" fill="white"/>
<path d="M152 96C156.418 96 160 92.4183 160 88C160 83.5817 156.418 80 152 80C147.582 80 144 83.5817 144 88C144 92.4183 147.582 96 152 96Z" fill="white"/>
<path d="M152 144C156.418 144 160 140.418 160 136C160 131.582 156.418 128 152 128C147.582 128 144 131.582 144 136C144 140.418 147.582 144 152 144Z" fill="white"/>
<path d="M152 224C156.418 224 160 220.418 160 216C160 211.582 156.418 208 152 208C147.582 208 144 211.582 144 216C144 220.418 147.582 224 152 224Z" fill="white"/>
<path d="M152 272C156.418 272 160 268.418 160 264C160 259.582 156.418 256 152 256C147.582 256 144 259.582 144 264C144 268.418 147.582 272 152 272Z" fill="white"/>
<path d="M152 320C156.418 320 160 316.418 160 312C160 307.582 156.418 304 152 304C147.582 304 144 307.582 144 312C144 316.418 147.582 320 152 320Z" fill="white"/>
<path d="M152 336C156.418 336 160 332.418 160 328C160 323.582 156.418 320 152 320C147.582 320 144 323.582 144 328C144 332.418 147.582 336 152 336Z" fill="white"/>
<path d="M152 352C156.418 352 160 348.418 160 344C160 339.582 156.418 336 152 336C147.582 336 144 339.582 144 344C144 348.418 147.582 352 152 352Z" fill="white"/>
<path d="M152 368C156.418 368 160 364.418 160 360C160 355.582 156.418 352 152 352C147.582 352 144 355.582 144 360C144 364.418 147.582 368 152 368Z" fill="white"/>
<path d="M152 400C156.418 400 160 396.418 160 392C160 387.582 156.418 384 152 384C147.582 384 144 387.582 144 392C144 396.418 147.582 400 152 400Z" fill="white"/>
<path d="M152 432C156.418 432 160 428.418 160 424C160 419.582 156.418 416 152 416C147.582 416 144 419.582 144 424C144 428.418 147.582 432 152 432Z" fill="white"/>
<path d="M152 448C156.418 448 160 444.418 160 440C160 435.582 156.418 432 152 432C147.582 432 144 435.582 144 440C144 444.418 147.582 448 152 448Z" fill="white"/>
<path d="M152 464C156.418 464 160 460.418 160 456C160 451.582 156.418 448 152 448C147.582 448 144 451.582 144 456C144 460.418 147.582 464 152 464Z" fill="white"/>
<path d="M168 16C172.418 16 176 12.4183 176 8C176 3.58172 172.418 0 168 0C163.582 0 160 3.58172 160 8C160 12.4183 163.582 16 168 16Z" fill="white"/>
<path d="M168 32C172.418 32 176 28.4183 176 24C176 19.5817 172.418 16 168 16C163.582 16 160 19.5817 160 24C160 28.4183 163.582 32 168 32Z" fill="white"/>
<path d="M168 64C172.418 64 176 60.4183 176 56C176 51.5817 172.418 48 168 48C163.582 48 160 51.5817 160 56C160 60.4183 163.582 64 168 64Z" fill="white"/>
<path d="M168 80C172.418 80 176 76.4183 176 72C176 67.5817 172.418 64 168 64C163.582 64 160 67.5817 160 72C160 76.4183 163.582 80 168 80Z" fill="white"/>
<path d="M168 112C172.418 112 176 108.418 176 104C176 99.5817 172.418 96 168 96C163.582 96 160 99.5817 160 104C160 108.418 163.582 112 168 112Z" fill="white"/>
<path d="M168 144C172.418 144 176 140.418 176 136C176 131.582 172.418 128 168 128C163.582 128 160 131.582 160 136C160 140.418 163.582 144 168 144Z" fill="white"/>
<path d="M168 160C172.418 160 176 156.418 176 152C176 147.582 172.418 144 168 144C163.582 144 160 147.582 160 152C160 156.418 163.582 160 168 160Z" fill="white"/>
<path d="M168 192C172.418 192 176 188.418 176 184C176 179.582 172.418 176 168 176C163.582 176 160 179.582 160 184C160 188.418 163.582 192 168 192Z" fill="white"/>
<path d="M168 208C172.418 208 176 204.418 176 200C176 195.582 172.418 192 168 192C163.582 192 160 195.582 160 200C160 204.418 163.582 208 168 208Z" fill="white"/>
<path d="M168 224C172.418 224 176 220.418 176 216C176 211.582 172.418 208 168 208C163.582 208 160 211.582 160 216C160 220.418 163.582 224 168 224Z" fill="white"/>
<path d="M168 240C172.418 240 176 236.418 176 232C176 227.582 172.418 224 168 224C163.582 224 160 227.582 160 232C160 236.418 163.582 240 168 240Z" fill="white"/>
<path d="M168 272C172.418 272 176 268.418 176 264C176 259.582 172.418 256 168 256C163.582 256 160 259.582 160 264C160 268.418 163.582 272 168 272Z" fill="white"/>
<path d="M168 288C172.418 288 176 284.418 176 280C176 275.582 172.418 272 168 272C163.582 272 160 275.582 160 280C160 284.418 163.582 288 168 288Z" fill="white"/>
<path d="M168 304C172.418 304 176 300.418 176 296C176 291.582 172.418 288 168 288C163.582 288 160 291.582 160 296C160 300.418 163.582 304 168 304Z" fill="white"/>
<path d="M168 336C172.418 336 176 332.418 176 328C176 323.582 172.418 320 168 320C163.582 320 160 323.582 160 328C160 332.418 163.582 336 168 336Z" fill="white"/>
<path d="M168 352C172.418 352 176 348.418 176 344C176 339.582 172.418 336 168 336C163.582 336 160 339.582 160 344C160 348.418 163.582 352 168 352Z" fill="white"/>
<path d="M168 400C172.418 400 176 396.418 176 392C176 387.582 172.418 384 168 384C163.582 384 160 387.582 160 392C160 396.418 163.582 400 168 400Z" fill="white"/>
<path d="M168 464C172.418 464 176 460.418 176 456C176 451.582 172.418 448 168 448C163.582 448 160 451.582 160 456C160 460.418 163.582 464 168 464Z" fill="white"/>
<path d="M184 48C188.418 48 192 44.4183 192 40C192 35.5817 188.418 32 184 32C179.582 32 176 35.5817 176 40C176 44.4183 179.582 48 184 48Z" fill="white"/>
<path d="M184 96C188.418 96 192 92.4183 192 88C192 83.5817 188.418 80 184 80C179.582 80 176 83.5817 176 88C176 92.4183 179.582 96 184 96Z" fill="white"/>
<path d="M184 128C188.418 128 192 124.418 192 120C192 115.582 188.418 112 184 112C179.582 112 176 115.582 176 120C176 124.418 179.582 128 184 128Z" fill="white"/>
<path d="M184 160C188.418 160 192 156.418 192 152C192 147.582 188.418 144 184 144C179.582 144 176 147.582 176 152C176 156.418 179.582 160 184 160Z" fill="white"/>
<path d="M184 224C188.418 224 192 220.418 192 216C192 211.582 188.418 208 184 208C179.582 208 176 211.582 176 216C176 220.418 179.582 224 184 224Z" fill="white"/>
<path d="M184 240C188.418 240 192 236.418 192 232C192 227.582 188.418 224 184 224C179.582 224 176 227.582 176 232C176 236.418 179.582 240 184 240Z" fill="white"/>
<path d="M184 288C188.418 288 192 284.418 192 280C192 275.582 188.418 272 184 272C179.582 272 176 275.582 176 280C176 284.418 179.582 288 184 288Z" fill="white"/>
<path d="M184 304C188.418 304 192 300.418 192 296C192 291.582 188.418 288 184 288C179.582 288 176 291.582 176 296C176 300.418 179.582 304 184 304Z" fill="white"/>
<path d="M184 336C188.418 336 192 332.418 192 328C192 323.582 188.418 320 184 320C179.582 320 176 323.582 176 328C176 332.418 179.582 336 184 336Z" fill="white"/>
<path d="M184 352C188.418 352 192 348.418 192 344C192 339.582 188.418 336 184 336C179.582 336 176 339.582 176 344C176 348.418 179.582 352 184 352Z" fill="white"/>
<path d="M184 384C188.418 384 192 380.418 192 376C192 371.582 188.418 368 184 368C179.582 368 176 371.582 176 376C176 380.418 179.582 384 184 384Z" fill="white"/>
<path d="M184 416C188.418 416 192 412.418 192 408C192 403.582 188.418 400 184 400C179.582 400 176 403.582 176 408C176 412.418 179.582 416 184 416Z" fill="white"/>
<path d="M184 448C188.418 448 192 444.418 192 440C192 435.582 188.418 432 184 432C179.582 432 176 435.582 176 440C176 444.418 179.582 448 184 448Z" fill="white"/>
<path d="M184 464C188.418 464 192 460.418 192 456C192 451.582 188.418 448 184 448C179.582 448 176 451.582 176 456C176 460.418 179.582 464 184 464Z" fill="white"/>
<path d="M200 16C204.418 16 208 12.4183 208 8C208 3.58172 204.418 0 200 0C195.582 0 192 3.58172 192 8C192 12.4183 195.582 16 200 16Z" fill="white"/>
<path d="M200 32C204.418 32 208 28.4183 208 24C208 19.5817 204.418 16 200 16C195.582 16 192 19.5817 192 24C192 28.4183 195.582 32 200 32Z" fill="white"/>
<path d="M200 64C204.418 64 208 60.4183 208 56C208 51.5817 204.418 48 200 48C195.582 48 192 51.5817 192 56C192 60.4183 195.582 64 200 64Z" fill="white"/>
<path d="M200 80C204.418 80 208 76.4183 208 72C208 67.5817 204.418 64 200 64C195.582 64 192 67.5817 192 72C192 76.4183 195.582 80 200 80Z" fill="white"/>
<path d="M200 112C204.418 112 208 108.418 208 104C208 99.5817 204.418 96 200 96C195.582 96 192 99.5817 192 104C192 108.418 195.582 112 200 112Z" fill="white"/>
<path d="M200 128C204.418 128 208 124.418 208 120C208 115.582 204.418 112 200 112C195.582 112 192 115.582 192 120C192 124.418 195.582 128 200 128Z" fill="white"/>
<path d="M200 144C204.418 144 208 140.418 208 136C208 131.582 204.418 128 200 128C195.582 128 192 131.582 192 136C192 140.418 195.582 144 200 144Z" fill="white"/>
<path d="M200 160C204.418 160 208 156.418 208 152C208 147.582 204.418 144 200 144C195.582 144 192 147.582 192 152C192 156.418 195.582 160 200 160Z" fill="white"/>
<path d="M200 176C204.418 176 208 172.418 208 168C208 163.582 204.418 160 200 160C195.582 160 192 163.582 192 168C192 172.418 195.582 176 200 176Z" fill="white"/>
<path d="M200 192C204.418 192 208 188.418 208 184C208 179.582 204.418 176 200 176C195.582 176 192 179.582 192 184C192 188.418 195.582 192 200 192Z" fill="white"/>
<path d="M200 208C204.418 208 208 204.418 208 200C208 195.582 204.418 192 200 192C195.582 192 192 195.582 192 200C192 204.418 195.582 208 200 208Z" fill="white"/>
<path d="M200 224C204.418 224 208 220.418 208 216C208 211.582 204.418 208 200 208C195.582 208 192 211.582 192 216C192 220.418 195.582 224 200 224Z" fill="white"/>
<path d="M200 240C204.418 240 208 236.418 208 232C208 227.582 204.418 224 200 224C195.582 224 192 227.582 192 232C192 236.418 195.582 240 200 240Z" fill="white"/>
<path d="M200 288C204.418 288 208 284.418 208 280C208 275.582 204.418 272 200 272C195.582 272 192 275.582 192 280C192 284.418 195.582 288 200 288Z" fill="white"/>
<path d="M200 304C204.418 304 208 300.418 208 296C208 291.582 204.418 288 200 288C195.582 288 192 291.582 192 296C192 300.418 195.582 304 200 304Z" fill="white"/>
<path d="M200 320C204.418 320 208 316.418 208 312C208 307.582 204.418 304 200 304C195.582 304 192 307.582 192 312C192 316.418 195.582 320 200 320Z" fill="white"/>
<path d="M200 336C204.418 336 208 332.418 208 328C208 323.582 204.418 320 200 320C195.582 320 192 323.582 192 328C192 332.418 195.582 336 200 336Z" fill="white"/>
<path d="M200 384C204.418 384 208 380.418 208 376C208 371.582 204.418 368 200 368C195.582 368 192 371.582 192 376C192 380.418 195.582 384 200 384Z" fill="white"/>
<path d="M200 416C204.418 416 208 412.418 208 408C208 403.582 204.418 400 200 400C195.582 400 192 403.582 192 408C192 412.418 195.582 416 200 416Z" fill="white"/>
<path d="M200 464C204.418 464 208 460.418 208 456C208 451.582 204.418 448 200 448C195.582 448 192 451.582 192 456C192 460.418 195.582 464 200 464Z" fill="white"/>
<path d="M216 64C220.418 64 224 60.4183 224 56C224 51.5817 220.418 48 216 48C211.582 48 208 51.5817 208 56C208 60.4183 211.582 64 216 64Z" fill="white"/>
<path d="M216 80C220.418 80 224 76.4183 224 72C224 67.5817 220.418 64 216 64C211.582 64 208 67.5817 208 72C208 76.4183 211.582 80 216 80Z" fill="white"/>
<path d="M216 96C220.418 96 224 92.4183 224 88C224 83.5817 220.418 80 216 80C211.582 80 208 83.5817 208 88C208 92.4183 211.582 96 216 96Z" fill="white"/>
<path d="M216 128C220.418 128 224 124.418 224 120C224 115.582 220.418 112 216 112C211.582 112 208 115.582 208 120C208 124.418 211.582 128 216 128Z" fill="white"/>
<path d="M216 176C220.418 176 224 172.418 224 168C224 163.582 220.418 160 216 160C211.582 160 208 163.582 208 168C208 172.418 211.582 176 216 176Z" fill="white"/>
<path d="M216 192C220.418 192 224 188.418 224 184C224 179.582 220.418 176 216 176C211.582 176 208 179.582 208 184C208 188.418 211.582 192 216 192Z" fill="white"/>
<path d="M216 208C220.418 208 224 204.418 224 200C224 195.582 220.418 192 216 192C211.582 192 208 195.582 208 200C208 204.418 211.582 208 216 208Z" fill="white"/>
<path d="M216 256C220.418 256 224 252.418 224 248C224 243.582 220.418 240 216 240C211.582 240 208 243.582 208 248C208 252.418 211.582 256 216 256Z" fill="white"/>
<path d="M216 288C220.418 288 224 284.418 224 280C224 275.582 220.418 272 216 272C211.582 272 208 275.582 208 280C208 284.418 211.582 288 216 288Z" fill="white"/>
<path d="M216 304C220.418 304 224 300.418 224 296C224 291.582 220.418 288 216 288C211.582 288 208 291.582 208 296C208 300.418 211.582 304 216 304Z" fill="white"/>
<path d="M216 336C220.418 336 224 332.418 224 328C224 323.582 220.418 320 216 320C211.582 320 208 323.582 208 328C208 332.418 211.582 336 216 336Z" fill="white"/>
<path d="M216 368C220.418 368 224 364.418 224 360C224 355.582 220.418 352 216 352C211.582 352 208 355.582 208 360C208 364.418 211.582 368 216 368Z" fill="white"/>
<path d="M216 400C220.418 400 224 396.418 224 392C224 387.582 220.418 384 216 384C211.582 384 208 387.582 208 392C208 396.418 211.582 400 216 400Z" fill="white"/>
<path d="M216 432C220.418 432 224 428.418 224 424C224 419.582 220.418 416 216 416C211.582 416 208 419.582 208 424C208 428.418 211.582 432 216 432Z" fill="white"/>
<path d="M216 448C220.418 448 224 444.418 224 440C224 435.582 220.418 432 216 432C211.582 432 208 435.582 208 440C208 444.418 211.582 448 216 448Z" fill="white"/>
<path d="M216 464C220.418 464 224 460.418 224 456C224 451.582 220.418 448 216 448C211.582 448 208 451.582 208 456C208 460.418 211.582 464 216 464Z" fill="white"/>
<path d="M232 16C236.418 16 240 12.4183 240 8C240 3.58172 236.418 0 232 0C227.582 0 224 3.58172 224 8C224 12.4183 227.582 16 232 16Z" fill="white"/>
<path d="M232 48C236.418 48 240 44.4183 240 40C240 35.5817 236.418 32 232 32C227.582 32 224 35.5817 224 40C224 44.4183 227.582 48 232 48Z" fill="white"/>
<path d="M232 64C236.418 64 240 60.4183 240 56C240 51.5817 236.418 48 232 48C227.582 48 224 51.5817 224 56C224 60.4183 227.582 64 232 64Z" fill="white"/>
<path d="M232 112C236.418 112 240 108.418 240 104C240 99.5817 236.418 96 232 96C227.582 96 224 99.5817 224 104C224 108.418 227.582 112 232 112Z" fill="white"/>
<path d="M232 176C236.418 176 240 172.418 240 168C240 163.582 236.418 160 232 160C227.582 160 224 163.582 224 168C224 172.418 227.582 176 232 176Z" fill="white"/>
<path d="M232 224C236.418 224 240 220.418 240 216C240 211.582 236.418 208 232 208C227.582 208 224 211.582 224 216C224 220.418 227.582 224 232 224Z" fill="white"/>
<path d="M232 240C236.418 240 240 236.418 240 232C240 227.582 236.418 224 232 224C227.582 224 224 227.582 224 232C224 236.418 227.582 240 232 240Z" fill="white"/>
<path d="M232 272C236.418 272 240 268.418 240 264C240 259.582 236.418 256 232 256C227.582 256 224 259.582 224 264C224 268.418 227.582 272 232 272Z" fill="white"/>
<path d="M232 304C236.418 304 240 300.418 240 296C240 291.582 236.418 288 232 288C227.582 288 224 291.582 224 296C224 300.418 227.582 304 232 304Z" fill="white"/>
<path d="M232 352C236.418 352 240 348.418 240 344C240 339.582 236.418 336 232 336C227.582 336 224 339.582 224 344C224 348.418 227.582 352 232 352Z" fill="white"/>
<path d="M232 368C236.418 368 240 364.418 240 360C240 355.582 236.418 352 232 352C227.582 352 224 355.582 224 360C224 364.418 227.582 368 232 368Z" fill="white"/>
<path d="M232 400C236.418 400 240 396.418 240 392C240 387.582 236.418 384 232 384C227.582 384 224 387.582 224 392C224 396.418 227.582 400 232 400Z" fill="white"/>
<path d="M232 464C236.418 464 240 460.418 240 456C240 451.582 236.418 448 232 448C227.582 448 224 451.582 224 456C224 460.418 227.582 464 232 464Z" fill="white"/>
<path d="M248 32C252.418 32 256 28.4183 256 24C256 19.5817 252.418 16 248 16C243.582 16 240 19.5817 240 24C240 28.4183 243.582 32 248 32Z" fill="white"/>
<path d="M248 64C252.418 64 256 60.4183 256 56C256 51.5817 252.418 48 248 48C243.582 48 240 51.5817 240 56C240 60.4183 243.582 64 248 64Z" fill="white"/>
<path d="M248 128C252.418 128 256 124.418 256 120C256 115.582 252.418 112 248 112C243.582 112 240 115.582 240 120C240 124.418 243.582 128 248 128Z" fill="white"/>
<path d="M248 176C252.418 176 256 172.418 256 168C256 163.582 252.418 160 248 160C243.582 160 240 163.582 240 168C240 172.418 243.582 176 248 176Z" fill="white"/>
<path d="M248 272C252.418 272 256 268.418 256 264C256 259.582 252.418 256 248 256C243.582 256 240 259.582 240 264C240 268.418 243.582 272 248 272Z" fill="white"/>
<path d="M248 336C252.418 336 256 332.418 256 328C256 323.582 252.418 320 248 320C243.582 320 240 323.582 240 328C240 332.418 243.582 336 248 336Z" fill="white"/>
<path d="M248 352C252.418 352 256 348.418 256 344C256 339.582 252.418 336 248 336C243.582 336 240 339.582 240 344C240 348.418 243.582 352 248 352Z" fill="white"/>
<path d="M248 384C252.418 384 256 380.418 256 376C256 371.582 252.418 368 248 368C243.582 368 240 371.582 240 376C240 380.418 243.582 384 248 384Z" fill="white"/>
<path d="M248 416C252.418 416 256 412.418 256 408C256 403.582 252.418 400 248 400C243.582 400 240 403.582 240 408C240 412.418 243.582 416 248 416Z" fill="white"/>
<path d="M248 448C252.418 448 256 444.418 256 440C256 435.582 252.418 432 248 432C243.582 432 240 435.582 240 440C240 444.418 243.582 448 248 448Z" fill="white"/>
<path d="M264 48C268.418 48 272 44.4183 272 40C272 35.5817 268.418 32 264 32C259.582 32 256 35.5817 256 40C256 44.4183 259.582 48 264 48Z" fill="white"/>
<path d="M264 64C268.418 64 272 60.4183 272 56C272 51.5817 268.418 48 264 48C259.582 48 256 51.5817 256 56C256 60.4183 259.582 64 264 64Z" fill="white"/>
<path d="M264 96C268.418 96 272 92.4183 272 88C272 83.5817 268.418 80 264 80C259.582 80 256 83.5817 256 88C256 92.4183 259.582 96 264 96Z" fill="white"/>
<path d="M264 112C268.418 112 272 108.418 272 104C272 99.5817 268.418 96 264 96C259.582 96 256 99.5817 256 104C256 108.418 259.582 112 264 112Z" fill="white"/>
<path d="M264 144C268.418 144 272 140.418 272 136C272 131.582 268.418 128 264 128C259.582 128 256 131.582 256 136C256 140.418 259.582 144 264 144Z" fill="white"/>
<path d="M264 160C268.418 160 272 156.418 272 152C272 147.582 268.418 144 264 144C259.582 144 256 147.582 256 152C256 156.418 259.582 160 264 160Z" fill="white"/>
<path d="M264 240C268.418 240 272 236.418 272 232C272 227.582 268.418 224 264 224C259.582 224 256 227.582 256 232C256 236.418 259.582 240 264 240Z" fill="white"/>
<path d="M264 256C268.418 256 272 252.418 272 248C272 243.582 268.418 240 264 240C259.582 240 256 243.582 256 248C256 252.418 259.582 256 264 256Z" fill="white"/>
<path d="M264 272C268.418 272 272 268.418 272 264C272 259.582 268.418 256 264 256C259.582 256 256 259.582 256 264C256 268.418 259.582 272 264 272Z" fill="white"/>
<path d="M264 320C268.418 320 272 316.418 272 312C272 307.582 268.418 304 264 304C259.582 304 256 307.582 256 312C256 316.418 259.582 320 264 320Z" fill="white"/>
<path d="M264 384C268.418 384 272 380.418 272 376C272 371.582 268.418 368 264 368C259.582 368 256 371.582 256 376C256 380.418 259.582 384 264 384Z" fill="white"/>
<path d="M264 448C268.418 448 272 444.418 272 440C272 435.582 268.418 432 264 432C259.582 432 256 435.582 256 440C256 444.418 259.582 448 264 448Z" fill="white"/>
<path d="M264 464C268.418 464 272 460.418 272 456C272 451.582 268.418 448 264 448C259.582 448 256 451.582 256 456C256 460.418 259.582 464 264 464Z" fill="white"/>
<path d="M280 16C284.418 16 288 12.4183 288 8C288 3.58172 284.418 0 280 0C275.582 0 272 3.58172 272 8C272 12.4183 275.582 16 280 16Z" fill="white"/>
<path d="M280 160C284.418 160 288 156.418 288 152C288 147.582 284.418 144 280 144C275.582 144 272 147.582 272 152C272 156.418 275.582 160 280 160Z" fill="white"/>
<path d="M280 176C284.418 176 288 172.418 288 168C288 163.582 284.418 160 280 160C275.582 160 272 163.582 272 168C272 172.418 275.582 176 280 176Z" fill="white"/>
<path d="M280 192C284.418 192 288 188.418 288 184C288 179.582 284.418 176 280 176C275.582 176 272 179.582 272 184C272 188.418 275.582 192 280 192Z" fill="white"/>
<path d="M280 288C284.418 288 288 284.418 288 280C288 275.582 284.418 272 280 272C275.582 272 272 275.582 272 280C272 284.418 275.582 288 280 288Z" fill="white"/>
<path d="M280 304C284.418 304 288 300.418 288 296C288 291.582 284.418 288 280 288C275.582 288 272 291.582 272 296C272 300.418 275.582 304 280 304Z" fill="white"/>
<path d="M280 336C284.418 336 288 332.418 288 328C288 323.582 284.418 320 280 320C275.582 320 272 323.582 272 328C272 332.418 275.582 336 280 336Z" fill="white"/>
<path d="M280 352C284.418 352 288 348.418 288 344C288 339.582 284.418 336 280 336C275.582 336 272 339.582 272 344C272 348.418 275.582 352 280 352Z" fill="white"/>
<path d="M280 368C284.418 368 288 364.418 288 360C288 355.582 284.418 352 280 352C275.582 352 272 355.582 272 360C272 364.418 275.582 368 280 368Z" fill="white"/>
<path d="M280 384C284.418 384 288 380.418 288 376C288 371.582 284.418 368 280 368C275.582 368 272 371.582 272 376C272 380.418 275.582 384 280 384Z" fill="white"/>
<path d="M280 400C284.418 400 288 396.418 288 392C288 387.582 284.418 384 280 384C275.582 384 272 387.582 272 392C272 396.418 275.582 400 280 400Z" fill="white"/>
<path d="M280 416C284.418 416 288 412.418 288 408C288 403.582 284.418 400 280 400C275.582 400 272 403.582 272 408C272 412.418 275.582 416 280 416Z" fill="white"/>
<path d="M280 464C284.418 464 288 460.418 288 456C288 451.582 284.418 448 280 448C275.582 448 272 451.582 272 456C272 460.418 275.582 464 280 464Z" fill="white"/>
<path d="M296 80C300.418 80 304 76.4183 304 72C304 67.5817 300.418 64 296 64C291.582 64 288 67.5817 288 72C288 76.4183 291.582 80 296 80Z" fill="white"/>
<path d="M296 96C300.418 96 304 92.4183 304 88C304 83.5817 300.418 80 296 80C291.582 80 288 83.5817 288 88C288 92.4183 291.582 96 296 96Z" fill="white"/>
<path d="M296 112C300.418 112 304 108.418 304 104C304 99.5817 300.418 96 296 96C291.582 96 288 99.5817 288 104C288 108.418 291.582 112 296 112Z" fill="white"/>
<path d="M296 128C300.418 128 304 124.418 304 120C304 115.582 300.418 112 296 112C291.582 112 288 115.582 288 120C288 124.418 291.582 128 296 128Z" fill="white"/>
<path d="M296 224C300.418 224 304 220.418 304 216C304 211.582 300.418 208 296 208C291.582 208 288 211.582 288 216C288 220.418 291.582 224 296 224Z" fill="white"/>
<path d="M296 240C300.418 240 304 236.418 304 232C304 227.582 300.418 224 296 224C291.582 224 288 227.582 288 232C288 236.418 291.582 240 296 240Z" fill="white"/>
<path d="M296 256C300.418 256 304 252.418 304 248C304 243.582 300.418 240 296 240C291.582 240 288 243.582 288 248C288 252.418 291.582 256 296 256Z" fill="white"/>
<path d="M296 304C300.418 304 304 300.418 304 296C304 291.582 300.418 288 296 288C291.582 288 288 291.582 288 296C288 300.418 291.582 304 296 304Z" fill="white"/>
<path d="M296 384C300.418 384 304 380.418 304 376C304 371.582 300.418 368 296 368C291.582 368 288 371.582 288 376C288 380.418 291.582 384 296 384Z" fill="white"/>
<path d="M296 400C300.418 400 304 396.418 304 392C304 387.582 300.418 384 296 384C291.582 384 288 387.582 288 392C288 396.418 291.582 400 296 400Z" fill="white"/>
<path d="M296 416C300.418 416 304 412.418 304 408C304 403.582 300.418 400 296 400C291.582 400 288 403.582 288 408C288 412.418 291.582 416 296 416Z" fill="white"/>
<path d="M296 464C300.418 464 304 460.418 304 456C304 451.582 300.418 448 296 448C291.582 448 288 451.582 288 456C288 460.418 291.582 464 296 464Z" fill="white"/>
<path d="M312 48C316.418 48 320 44.4183 320 40C320 35.5817 316.418 32 312 32C307.582 32 304 35.5817 304 40C304 44.4183 307.582 48 312 48Z" fill="white"/>
<path d="M312 64C316.418 64 320 60.4183 320 56C320 51.5817 316.418 48 312 48C307.582 48 304 51.5817 304 56C304 60.4183 307.582 64 312 64Z" fill="white"/>
<path d="M312 128C316.418 128 320 124.418 320 120C320 115.582 316.418 112 312 112C307.582 112 304 115.582 304 120C304 124.418 307.582 128 312 128Z" fill="white"/>
<path d="M312 144C316.418 144 320 140.418 320 136C320 131.582 316.418 128 312 128C307.582 128 304 131.582 304 136C304 140.418 307.582 144 312 144Z" fill="white"/>
<path d="M312 160C316.418 160 320 156.418 320 152C320 147.582 316.418 144 312 144C307.582 144 304 147.582 304 152C304 156.418 307.582 160 312 160Z" fill="white"/>
<path d="M312 240C316.418 240 320 236.418 320 232C320 227.582 316.418 224 312 224C307.582 224 304 227.582 304 232C304 236.418 307.582 240 312 240Z" fill="white"/>
<path d="M312 256C316.418 256 320 252.418 320 248C320 243.582 316.418 240 312 240C307.582 240 304 243.582 304 248C304 252.418 307.582 256 312 256Z" fill="white"/>
<path d="M312 272C316.418 272 320 268.418 320 264C320 259.582 316.418 256 312 256C307.582 256 304 259.582 304 264C304 268.418 307.582 272 312 272Z" fill="white"/>
<path d="M312 288C316.418 288 320 284.418 320 280C320 275.582 316.418 272 312 272C307.582 272 304 275.582 304 280C304 284.418 307.582 288 312 288Z" fill="white"/>
<path d="M312 304C316.418 304 320 300.418 320 296C320 291.582 316.418 288 312 288C307.582 288 304 291.582 304 296C304 300.418 307.582 304 312 304Z" fill="white"/>
<path d="M312 320C316.418 320 320 316.418 320 312C320 307.582 316.418 304 312 304C307.582 304 304 307.582 304 312C304 316.418 307.582 320 312 320Z" fill="white"/>
<path d="M312 384C316.418 384 320 380.418 320 376C320 371.582 316.418 368 312 368C307.582 368 304 371.582 304 376C304 380.418 307.582 384 312 384Z" fill="white"/>
<path d="M312 416C316.418 416 320 412.418 320 408C320 403.582 316.418 400 312 400C307.582 400 304 403.582 304 408C304 412.418 307.582 416 312 416Z" fill="white"/>
<path d="M312 448C316.418 448 320 444.418 320 440C320 435.582 316.418 432 312 432C307.582 432 304 435.582 304 440C304 444.418 307.582 448 312 448Z" fill="white"/>
<path d="M328 16C332.418 16 336 12.4183 336 8C336 3.58172 332.418 0 328 0C323.582 0 320 3.58172 320 8C320 12.4183 323.582 16 328 16Z" fill="white"/>
<path d="M328 32C332.418 32 336 28.4183 336 24C336 19.5817 332.418 16 328 16C323.582 16 320 19.5817 320 24C320 28.4183 323.582 32 328 32Z" fill="white"/>
<path d="M328 48C332.418 48 336 44.4183 336 40C336 35.5817 332.418 32 328 32C323.582 32 320 35.5817 320 40C320 44.4183 323.582 48 328 48Z" fill="white"/>
<path d="M328 64C332.418 64 336 60.4183 336 56C336 51.5817 332.418 48 328 48C323.582 48 320 51.5817 320 56C320 60.4183 323.582 64 328 64Z" fill="white"/>
<path d="M328 112C332.418 112 336 108.418 336 104C336 99.5817 332.418 96 328 96C323.582 96 320 99.5817 320 104C320 108.418 323.582 112 328 112Z" fill="white"/>
<path d="M328 160C332.418 160 336 156.418 336 152C336 147.582 332.418 144 328 144C323.582 144 320 147.582 320 152C320 156.418 323.582 160 328 160Z" fill="white"/>
<path d="M328 176C332.418 176 336 172.418 336 168C336 163.582 332.418 160 328 160C323.582 160 320 163.582 320 168C320 172.418 323.582 176 328 176Z" fill="white"/>
<path d="M328 224C332.418 224 336 220.418 336 216C336 211.582 332.418 208 328 208C323.582 208 320 211.582 320 216C320 220.418 323.582 224 328 224Z" fill="white"/>
<path d="M328 288C332.418 288 336 284.418 336 280C336 275.582 332.418 272 328 272C323.582 272 320 275.582 320 280C320 284.418 323.582 288 328 288Z" fill="white"/>
<path d="M328 320C332.418 320 336 316.418 336 312C336 307.582 332.418 304 328 304C323.582 304 320 307.582 320 312C320 316.418 323.582 320 328 320Z" fill="white"/>
<path d="M328 336C332.418 336 336 332.418 336 328C336 323.582 332.418 320 328 320C323.582 320 320 323.582 320 328C320 332.418 323.582 336 328 336Z" fill="white"/>
<path d="M328 352C332.418 352 336 348.418 336 344C336 339.582 332.418 336 328 336C323.582 336 320 339.582 320 344C320 348.418 323.582 352 328 352Z" fill="white"/>
<path d="M328 368C332.418 368 336 364.418 336 360C336 355.582 332.418 352 328 352C323.582 352 320 355.582 320 360C320 364.418 323.582 368 328 368Z" fill="white"/>
<path d="M328 384C332.418 384 336 380.418 336 376C336 371.582 332.418 368 328 368C323.582 368 320 371.582 320 376C320 380.418 323.582 384 328 384Z" fill="white"/>
<path d="M328 400C332.418 400 336 396.418 336 392C336 387.582 332.418 384 328 384C323.582 384 320 387.582 320 392C320 396.418 323.582 400 328 400Z" fill="white"/>
<path d="M328 416C332.418 416 336 412.418 336 408C336 403.582 332.418 400 328 400C323.582 400 320 403.582 320 408C320 412.418 323.582 416 328 416Z" fill="white"/>
<path d="M328 464C332.418 464 336 460.418 336 456C336 451.582 332.418 448 328 448C323.582 448 320 451.582 320 456C320 460.418 323.582 464 328 464Z" fill="white"/>
<path d="M344 144C348.418 144 352 140.418 352 136C352 131.582 348.418 128 344 128C339.582 128 336 131.582 336 136C336 140.418 339.582 144 344 144Z" fill="white"/>
<path d="M344 160C348.418 160 352 156.418 352 152C352 147.582 348.418 144 344 144C339.582 144 336 147.582 336 152C336 156.418 339.582 160 344 160Z" fill="white"/>
<path d="M344 176C348.418 176 352 172.418 352 168C352 163.582 348.418 160 344 160C339.582 160 336 163.582 336 168C336 172.418 339.582 176 344 176Z" fill="white"/>
<path d="M344 208C348.418 208 352 204.418 352 200C352 195.582 348.418 192 344 192C339.582 192 336 195.582 336 200C336 204.418 339.582 208 344 208Z" fill="white"/>
<path d="M344 224C348.418 224 352 220.418 352 216C352 211.582 348.418 208 344 208C339.582 208 336 211.582 336 216C336 220.418 339.582 224 344 224Z" fill="white"/>
<path d="M344 256C348.418 256 352 252.418 352 248C352 243.582 348.418 240 344 240C339.582 240 336 243.582 336 248C336 252.418 339.582 256 344 256Z" fill="white"/>
<path d="M344 272C348.418 272 352 268.418 352 264C352 259.582 348.418 256 344 256C339.582 256 336 259.582 336 264C336 268.418 339.582 272 344 272Z" fill="white"/>
<path d="M344 304C348.418 304 352 300.418 352 296C352 291.582 348.418 288 344 288C339.582 288 336 291.582 336 296C336 300.418 339.582 304 344 304Z" fill="white"/>
<path d="M344 336C348.418 336 352 332.418 352 328C352 323.582 348.418 320 344 320C339.582 320 336 323.582 336 328C336 332.418 339.582 336 344 336Z" fill="white"/>
<path d="M344 400C348.418 400 352 396.418 352 392C352 387.582 348.418 384 344 384C339.582 384 336 387.582 336 392C336 396.418 339.582 400 344 400Z" fill="white"/>
<path d="M344 432C348.418 432 352 428.418 352 424C352 419.582 348.418 416 344 416C339.582 416 336 419.582 336 424C336 428.418 339.582 432 344 432Z" fill="white"/>
<path d="M344 464C348.418 464 352 460.418 352 456C352 451.582 348.418 448 344 448C339.582 448 336 451.582 336 456C336 460.418 339.582 464 344 464Z" fill="white"/>
<path d="M360 224C364.418 224 368 220.418 368 216C368 211.582 364.418 208 360 208C355.582 208 352 211.582 352 216C352 220.418 355.582 224 360 224Z" fill="white"/>
<path d="M360 256C364.418 256 368 252.418 368 248C368 243.582 364.418 240 360 240C355.582 240 352 243.582 352 248C352 252.418 355.582 256 360 256Z" fill="white"/>
<path d="M360 272C364.418 272 368 268.418 368 264C368 259.582 364.418 256 360 256C355.582 256 352 259.582 352 264C352 268.418 355.582 272 360 272Z" fill="white"/>
<path d="M360 288C364.418 288 368 284.418 368 280C368 275.582 364.418 272 360 272C355.582 272 352 275.582 352 280C352 284.418 355.582 288 360 288Z" fill="white"/>
<path d="M360 320C364.418 320 368 316.418 368 312C368 307.582 364.418 304 360 304C355.582 304 352 307.582 352 312C352 316.418 355.582 320 360 320Z" fill="white"/>
<path d="M360 336C364.418 336 368 332.418 368 328C368 323.582 364.418 320 360 320C355.582 320 352 323.582 352 328C352 332.418 355.582 336 360 336Z" fill="white"/>
<path d="M360 368C364.418 368 368 364.418 368 360C368 355.582 364.418 352 360 352C355.582 352 352 355.582 352 360C352 364.418 355.582 368 360 368Z" fill="white"/>
<path d="M360 400C364.418 400 368 396.418 368 392C368 387.582 364.418 384 360 384C355.582 384 352 387.582 352 392C352 396.418 355.582 400 360 400Z" fill="white"/>
<path d="M360 464C364.418 464 368 460.418 368 456C368 451.582 364.418 448 360 448C355.582 448 352 451.582 352 456C352 460.418 355.582 464 360 464Z" fill="white"/>
<path d="M376 160C380.418 160 384 156.418 384 152C384 147.582 380.418 144 376 144C371.582 144 368 147.582 368 152C368 156.418 371.582 160 376 160Z" fill="white"/>
<path d="M376 224C380.418 224 384 220.418 384 216C384 211.582 380.418 208 376 208C371.582 208 368 211.582 368 216C368 220.418 371.582 224 376 224Z" fill="white"/>
<path d="M376 272C380.418 272 384 268.418 384 264C384 259.582 380.418 256 376 256C371.582 256 368 259.582 368 264C368 268.418 371.582 272 376 272Z" fill="white"/>
<path d="M376 288C380.418 288 384 284.418 384 280C384 275.582 380.418 272 376 272C371.582 272 368 275.582 368 280C368 284.418 371.582 288 376 288Z" fill="white"/>
<path d="M376 304C380.418 304 384 300.418 384 296C384 291.582 380.418 288 376 288C371.582 288 368 291.582 368 296C368 300.418 371.582 304 376 304Z" fill="white"/>
<path d="M376 320C380.418 320 384 316.418 384 312C384 307.582 380.418 304 376 304C371.582 304 368 307.582 368 312C368 316.418 371.582 320 376 320Z" fill="white"/>
<path d="M376 336C380.418 336 384 332.418 384 328C384 323.582 380.418 320 376 320C371.582 320 368 323.582 368 328C368 332.418 371.582 336 376 336Z" fill="white"/>
<path d="M376 400C380.418 400 384 396.418 384 392C384 387.582 380.418 384 376 384C371.582 384 368 387.582 368 392C368 396.418 371.582 400 376 400Z" fill="white"/>
<path d="M376 416C380.418 416 384 412.418 384 408C384 403.582 380.418 400 376 400C371.582 400 368 403.582 368 408C368 412.418 371.582 416 376 416Z" fill="white"/>
<path d="M392 144C396.418 144 400 140.418 400 136C400 131.582 396.418 128 392 128C387.582 128 384 131.582 384 136C384 140.418 387.582 144 392 144Z" fill="white"/>
<path d="M392 160C396.418 160 400 156.418 400 152C400 147.582 396.418 144 392 144C387.582 144 384 147.582 384 152C384 156.418 387.582 160 392 160Z" fill="white"/>
<path d="M392 176C396.418 176 400 172.418 400 168C400 163.582 396.418 160 392 160C387.582 160 384 163.582 384 168C384 172.418 387.582 176 392 176Z" fill="white"/>
<path d="M392 192C396.418 192 400 188.418 400 184C400 179.582 396.418 176 392 176C387.582 176 384 179.582 384 184C384 188.418 387.582 192 392 192Z" fill="white"/>
<path d="M392 224C396.418 224 400 220.418 400 216C400 211.582 396.418 208 392 208C387.582 208 384 211.582 384 216C384 220.418 387.582 224 392 224Z" fill="white"/>
<path d="M392 240C396.418 240 400 236.418 400 232C400 227.582 396.418 224 392 224C387.582 224 384 227.582 384 232C384 236.418 387.582 240 392 240Z" fill="white"/>
<path d="M392 304C396.418 304 400 300.418 400 296C400 291.582 396.418 288 392 288C387.582 288 384 291.582 384 296C384 300.418 387.582 304 392 304Z" fill="white"/>
<path d="M392 320C396.418 320 400 316.418 400 312C400 307.582 396.418 304 392 304C387.582 304 384 307.582 384 312C384 316.418 387.582 320 392 320Z" fill="white"/>
<path d="M392 336C396.418 336 400 332.418 400 328C400 323.582 396.418 320 392 320C387.582 320 384 323.582 384 328C384 332.418 387.582 336 392 336Z" fill="white"/>
<path d="M392 352C396.418 352 400 348.418 400 344C400 339.582 396.418 336 392 336C387.582 336 384 339.582 384 344C384 348.418 387.582 352 392 352Z" fill="white"/>
<path d="M392 368C396.418 368 400 364.418 400 360C400 355.582 396.418 352 392 352C387.582 352 384 355.582 384 360C384 364.418 387.582 368 392 368Z" fill="white"/>
<path d="M392 384C396.418 384 400 380.418 400 376C400 371.582 396.418 368 392 368C387.582 368 384 371.582 384 376C384 380.418 387.582 384 392 384Z" fill="white"/>
<path d="M392 400C396.418 400 400 396.418 400 392C400 387.582 396.418 384 392 384C387.582 384 384 387.582 384 392C384 396.418 387.582 400 392 400Z" fill="white"/>
<path d="M392 448C396.418 448 400 444.418 400 440C400 435.582 396.418 432 392 432C387.582 432 384 435.582 384 440C384 444.418 387.582 448 392 448Z" fill="white"/>
<path d="M392 464C396.418 464 400 460.418 400 456C400 451.582 396.418 448 392 448C387.582 448 384 451.582 384 456C384 460.418 387.582 464 392 464Z" fill="white"/>
<path d="M408 160C412.418 160 416 156.418 416 152C416 147.582 412.418 144 408 144C403.582 144 400 147.582 400 152C400 156.418 403.582 160 408 160Z" fill="white"/>
<path d="M408 176C412.418 176 416 172.418 416 168C416 163.582 412.418 160 408 160C403.582 160 400 163.582 400 168C400 172.418 403.582 176 408 176Z" fill="white"/>
<path d="M408 224C412.418 224 416 220.418 416 216C416 211.582 412.418 208 408 208C403.582 208 400 211.582 400 216C400 220.418 403.582 224 408 224Z" fill="white"/>
<path d="M408 240C412.418 240 416 236.418 416 232C416 227.582 412.418 224 408 224C403.582 224 400 227.582 400 232C400 236.418 403.582 240 408 240Z" fill="white"/>
<path d="M408 272C412.418 272 416 268.418 416 264C416 259.582 412.418 256 408 256C403.582 256 400 259.582 400 264C400 268.418 403.582 272 408 272Z" fill="white"/>
<path d="M408 384C412.418 384 416 380.418 416 376C416 371.582 412.418 368 408 368C403.582 368 400 371.582 400 376C400 380.418 403.582 384 408 384Z" fill="white"/>
<path d="M408 432C412.418 432 416 428.418 416 424C416 419.582 412.418 416 408 416C403.582 416 400 419.582 400 424C400 428.418 403.582 432 408 432Z" fill="white"/>
<path d="M408 448C412.418 448 416 444.418 416 440C416 435.582 412.418 432 408 432C403.582 432 400 435.582 400 440C400 444.418 403.582 448 408 448Z" fill="white"/>
<path d="M424 208C428.418 208 432 204.418 432 200C432 195.582 428.418 192 424 192C419.582 192 416 195.582 416 200C416 204.418 419.582 208 424 208Z" fill="white"/>
<path d="M424 240C428.418 240 432 236.418 432 232C432 227.582 428.418 224 424 224C419.582 224 416 227.582 416 232C416 236.418 419.582 240 424 240Z" fill="white"/>
<path d="M424 272C428.418 272 432 268.418 432 264C432 259.582 428.418 256 424 256C419.582 256 416 259.582 416 264C416 268.418 419.582 272 424 272Z" fill="white"/>
<path d="M424 304C428.418 304 432 300.418 432 296C432 291.582 428.418 288 424 288C419.582 288 416 291.582 416 296C416 300.418 419.582 304 424 304Z" fill="white"/>
<path d="M424 320C428.418 320 432 316.418 432 312C432 307.582 428.418 304 424 304C419.582 304 416 307.582 416 312C416 316.418 419.582 320 424 320Z" fill="white"/>
<path d="M424 336C428.418 336 432 332.418 432 328C432 323.582 428.418 320 424 320C419.582 320 416 323.582 416 328C416 332.418 419.582 336 424 336Z" fill="white"/>
<path d="M424 352C428.418 352 432 348.418 432 344C432 339.582 428.418 336 424 336C419.582 336 416 339.582 416 344C416 348.418 419.582 352 424 352Z" fill="white"/>
<path d="M424 416C428.418 416 432 412.418 432 408C432 403.582 428.418 400 424 400C419.582 400 416 403.582 416 408C416 412.418 419.582 416 424 416Z" fill="white"/>
<path d="M424 448C428.418 448 432 444.418 432 440C432 435.582 428.418 432 424 432C419.582 432 416 435.582 416 440C416 444.418 419.582 448 424 448Z" fill="white"/>
<path d="M424 464C428.418 464 432 460.418 432 456C432 451.582 428.418 448 424 448C419.582 448 416 451.582 416 456C416 460.418 419.582 464 424 464Z" fill="white"/>
<path d="M440 144C444.418 144 448 140.418 448 136C448 131.582 444.418 128 440 128C435.582 128 432 131.582 432 136C432 140.418 435.582 144 440 144Z" fill="white"/>
<path d="M440 160C444.418 160 448 156.418 448 152C448 147.582 444.418 144 440 144C435.582 144 432 147.582 432 152C432 156.418 435.582 160 440 160Z" fill="white"/>
<path d="M440 208C444.418 208 448 204.418 448 200C448 195.582 444.418 192 440 192C435.582 192 432 195.582 432 200C432 204.418 435.582 208 440 208Z" fill="white"/>
<path d="M440 224C444.418 224 448 220.418 448 216C448 211.582 444.418 208 440 208C435.582 208 432 211.582 432 216C432 220.418 435.582 224 440 224Z" fill="white"/>
<path d="M440 240C444.418 240 448 236.418 448 232C448 227.582 444.418 224 440 224C435.582 224 432 227.582 432 232C432 236.418 435.582 240 440 240Z" fill="white"/>
<path d="M440 288C444.418 288 448 284.418 448 280C448 275.582 444.418 272 440 272C435.582 272 432 275.582 432 280C432 284.418 435.582 288 440 288Z" fill="white"/>
<path d="M440 320C444.418 320 448 316.418 448 312C448 307.582 444.418 304 440 304C435.582 304 432 307.582 432 312C432 316.418 435.582 320 440 320Z" fill="white"/>
<path d="M440 336C444.418 336 448 332.418 448 328C448 323.582 444.418 320 440 320C435.582 320 432 323.582 432 328C432 332.418 435.582 336 440 336Z" fill="white"/>
<path d="M440 352C444.418 352 448 348.418 448 344C448 339.582 444.418 336 440 336C435.582 336 432 339.582 432 344C432 348.418 435.582 352 440 352Z" fill="white"/>
<path d="M440 368C444.418 368 448 364.418 448 360C448 355.582 444.418 352 440 352C435.582 352 432 355.582 432 360C432 364.418 435.582 368 440 368Z" fill="white"/>
<path d="M440 384C444.418 384 448 380.418 448 376C448 371.582 444.418 368 440 368C435.582 368 432 371.582 432 376C432 380.418 435.582 384 440 384Z" fill="white"/>
<path d="M440 416C444.418 416 448 412.418 448 408C448 403.582 444.418 400 440 400C435.582 400 432 403.582 432 408C432 412.418 435.582 416 440 416Z" fill="white"/>
<path d="M440 448C444.418 448 448 444.418 448 440C448 435.582 444.418 432 440 432C435.582 432 432 435.582 432 440C432 444.418 435.582 448 440 448Z" fill="white"/>
<path d="M440 464C444.418 464 448 460.418 448 456C448 451.582 444.418 448 440 448C435.582 448 432 451.582 432 456C432 460.418 435.582 464 440 464Z" fill="white"/>
<path d="M456 176C460.418 176 464 172.418 464 168C464 163.582 460.418 160 456 160C451.582 160 448 163.582 448 168C448 172.418 451.582 176 456 176Z" fill="white"/>
<path d="M456 208C460.418 208 464 204.418 464 200C464 195.582 460.418 192 456 192C451.582 192 448 195.582 448 200C448 204.418 451.582 208 456 208Z" fill="white"/>
<path d="M456 256C460.418 256 464 252.418 464 248C464 243.582 460.418 240 456 240C451.582 240 448 243.582 448 248C448 252.418 451.582 256 456 256Z" fill="white"/>
<path d="M456 272C460.418 272 464 268.418 464 264C464 259.582 460.418 256 456 256C451.582 256 448 259.582 448 264C448 268.418 451.582 272 456 272Z" fill="white"/>
<path d="M456 288C460.418 288 464 284.418 464 280C464 275.582 460.418 272 456 272C451.582 272 448 275.582 448 280C448 284.418 451.582 288 456 288Z" fill="white"/>
<path d="M456 320C460.418 320 464 316.418 464 312C464 307.582 460.418 304 456 304C451.582 304 448 307.582 448 312C448 316.418 451.582 320 456 320Z" fill="white"/>
<path d="M456 336C460.418 336 464 332.418 464 328C464 323.582 460.418 320 456 320C451.582 320 448 323.582 448 328C448 332.418 451.582 336 456 336Z" fill="white"/>
<path d="M456 400C460.418 400 464 396.418 464 392C464 387.582 460.418 384 456 384C451.582 384 448 387.582 448 392C448 396.418 451.582 400 456 400Z" fill="white"/>
<path d="M456 448C460.418 448 464 444.418 464 440C464 435.582 460.418 432 456 432C451.582 432 448 435.582 448 440C448 444.418 451.582 448 456 448Z" fill="white"/>
<path fill-rule="evenodd" clip-rule="evenodd" d="M55.9998 0C41.152 0.013257 26.9173 5.92252 16.4253 16.4285C5.93338 26.9345 0.0431818 41.1772 0.0498103 56.025C0.0564388 70.8728 5.95935 85.1102 16.4607 95.6068C26.962 106.103 41.202 112 56.0498 112C70.8976 112 85.1376 106.103 95.6389 95.6068C106.14 85.1102 112.043 70.8728 112.05 56.025C112.056 41.1772 106.166 26.9345 95.6743 16.4285C85.1823 5.92252 70.9476 0.013257 56.0998 0H55.9998ZM55.9998 16C66.6041 16.0133 76.7692 20.2368 84.2606 27.7422C91.7519 35.2476 95.9564 45.4206 95.9498 56.025C95.9432 66.6293 91.726 76.797 84.2252 84.2931C76.7245 91.7891 66.5541 96 55.9498 96C45.3455 96 35.1751 91.7891 27.6744 84.2931C20.1736 76.797 15.9564 66.6293 15.9498 56.025C15.9432 45.4206 20.1477 35.2476 27.639 27.7422C35.1304 20.2368 45.2955 16.0133 55.8998 16H55.9998Z" fill="white"/>
<path d="M56 80C69.2548 80 80 69.2548 80 56C80 42.7452 69.2548 32 56 32C42.7452 32 32 42.7452 32 56C32 69.2548 42.7452 80 56 80Z" fill="white"/>
<path fill-rule="evenodd" clip-rule="evenodd" d="M464 56C463.987 41.1522 458.077 26.9175 447.571 16.4255C437.065 5.9336 422.823 0.0434259 407.975 0.0500544C393.127 0.0566829 378.89 5.95956 368.393 16.4609C357.897 26.9622 352 41.2022 352 56.05C352 70.8978 357.897 85.1378 368.393 95.6392C378.89 106.14 393.127 112.043 407.975 112.05C422.823 112.057 437.065 106.166 447.571 95.6745C458.077 85.1826 463.987 70.9478 464 56.1V56ZM448 56C447.987 66.6044 443.763 76.7695 436.258 84.2608C428.752 91.7522 418.579 95.9566 407.975 95.95C397.371 95.9434 387.203 91.7262 379.707 84.2255C372.211 76.7247 368 66.5544 368 55.95C368 45.3457 372.211 35.1753 379.707 27.6746C387.203 20.1739 397.371 15.9567 407.975 15.95C418.579 15.9434 428.752 20.1479 436.258 27.6393C443.763 35.1306 447.987 45.2957 448 55.9V56Z" fill="white"/>
<path d="M384 56C384 69.2548 394.745 80 408 80C421.255 80 432 69.2548 432 56C432 42.7452 421.255 32 408 32C394.745 32 384 42.7452 384 56Z" fill="white"/>
<path fill-rule="evenodd" clip-rule="evenodd" d="M0 408C0.013257 422.848 5.92253 437.082 16.4285 447.574C26.9345 458.066 41.1772 463.957 56.025 463.95C70.8728 463.943 85.1102 458.04 95.6068 447.539C106.103 437.038 112 422.798 112 407.95C112 393.102 106.103 378.862 95.6068 368.361C85.1102 357.859 70.8728 351.957 56.025 351.95C41.1772 351.943 26.9345 357.834 16.4285 368.325C5.92253 378.817 0.013257 393.052 0 407.9L0 408ZM16 408C16.0133 397.396 20.2368 387.231 27.7422 379.739C35.2476 372.248 45.4206 368.043 56.025 368.05C66.6293 368.057 76.797 372.274 84.2931 379.775C91.7891 387.275 96 397.446 96 408.05C96 418.654 91.7891 428.825 84.2931 436.325C76.797 443.826 66.6293 448.043 56.025 448.05C45.4206 448.057 35.2476 443.852 27.7422 436.361C20.2368 428.869 16.0133 418.704 16 408.1V408Z" fill="white"/>
<path d="M80 408C80 394.745 69.2548 384 56 384C42.7452 384 32 394.745 32 408C32 421.255 42.7452 432 56 432C69.2548 432 80 421.255 80 408Z" fill="white"/>
</mask>
<g mask="url(#mask0_1157_31965)">
<path d="M482 -18H-18V482H482V-18Z" fill="white"/>
</g>
</svg>
