<svg width="18" height="18" viewBox="0 0 18 18" fill="none" xmlns="http://www.w3.org/2000/svg">
<g style="mix-blend-mode:exclusion">
<rect width="18" height="18" fill="white"/>
</g>
<g style="mix-blend-mode:exclusion" clip-path="url(#clip0_415_3609)">
<path d="M9.7002 3.39995C9.7002 3.01335 9.3868 2.69995 9.0002 2.69995C8.6136 2.69995 8.3002 3.01335 8.3002 3.39995V6.49995C8.3002 7.49407 7.49431 8.29995 6.5002 8.29995H3.4002C3.0136 8.29995 2.7002 8.61335 2.7002 8.99995C2.7002 9.38655 3.0136 9.69995 3.4002 9.69995H6.5002C7.49431 9.69995 8.3002 10.5058 8.3002 11.5V14.6C8.3002 14.9866 8.6136 15.3 9.0002 15.3C9.3868 15.3 9.7002 14.9866 9.7002 14.6V11.4999C9.7002 10.5058 10.5061 9.69995 11.5002 9.69995H14.6002C14.9868 9.69995 15.3002 9.38655 15.3002 8.99995C15.3002 8.61335 14.9868 8.29995 14.6002 8.29995H11.5002C10.5061 8.29995 9.7002 7.49406 9.7002 6.49995V3.39995Z" fill="white"/>
</g>
<defs>
<clipPath id="clip0_415_3609">
<rect width="14" height="14" fill="white" transform="translate(2 2)"/>
</clipPath>
</defs>
</svg>
