<svg width="730" height="134" viewBox="0 0 730 134" fill="none" xmlns="http://www.w3.org/2000/svg">
<path d="M81.6417 34.412L36.9391 8.62044L31.3513 11.8467V18.2931L25.7635 15.0668L20.1757 18.2931V24.7394L14.5878 21.5131L9 24.7394V76.3226L14.5878 79.5489L20.1757 76.3226V82.769L25.7635 85.9953L31.3513 82.769V89.2153L36.9391 92.4416L81.6417 66.65V60.2037L76.0539 56.9774L81.6417 53.7511V47.3047L76.0539 44.0785L81.6417 40.8522V34.412ZM20.1757 69.8763L14.5878 73.1026V27.9657L20.1757 31.192V69.8763ZM36.9391 73.0964V66.65L59.2904 53.7573L64.8783 56.9836L36.9391 73.0964ZM53.7026 50.531L36.9391 60.2037V40.8584L53.7026 50.531ZM59.2904 47.3047L36.9391 34.412V27.9657L64.8783 44.0847L59.2904 47.3047ZM25.7635 21.5131L31.3513 24.7394V31.1858L25.7635 27.9595V21.5131ZM25.7635 34.412L31.3513 37.6383V63.4299L25.7635 66.6562V34.412ZM25.7635 73.0964L31.3513 69.8701V76.3164L25.7635 79.5427V73.0964ZM76.0539 63.4237L36.9391 85.9891V79.5427L70.4661 60.1974L76.0539 63.4237ZM76.0539 50.531L70.4661 53.7573L64.8783 50.531L70.4661 47.3047L76.0539 50.531ZM70.4661 40.8584L36.9391 21.5131V15.0668L76.0539 37.6321L70.4661 40.8584Z" fill="#00E100"/>
<path d="M98.4052 73.0963V27.9657H118.087C127.12 27.9657 132.603 33.4442 132.603 41.5037C132.603 49.5631 127.12 55.0416 118.087 55.0416H104.862V73.0963H98.4052ZM126.152 41.5037C126.152 36.9931 123.569 33.4442 118.087 33.4442H104.862V49.5631H118.087C123.569 49.5631 126.152 46.0142 126.152 41.5037ZM134.993 48.2726C135.639 42.9182 140.152 38.6 149.254 38.6C154.805 38.6 159.511 40.0828 161.902 44.0785C162.932 45.8219 163.516 48.1423 163.516 50.8474V73.0901H157.32V68.896C155.382 71.477 151.514 74.0518 146.026 74.0518C139.184 74.0518 133.379 70.5029 133.379 63.0887C133.379 57.2876 137.315 53.1617 145.703 52.4482L157.32 51.4803V50.835C157.32 46.3245 155.382 43.4208 149.254 43.4208C144.35 43.4208 141.705 45.3566 141.382 48.254H134.993V48.2726ZM157.313 58.5905V56.0095L146.343 56.9774C141.823 57.362 139.569 59.5584 139.569 63.1011C139.569 67.6179 142.797 69.2248 146.665 69.2248C152.477 69.231 157.313 65.3595 157.313 58.5905ZM182.608 44.7299C178.094 44.7299 175.188 47.3109 175.188 53.112V73.1025H168.992V39.5679H175.188V43.4394C176.802 40.5358 179.379 38.9226 184.222 38.9226H185.966V44.7237H182.608V44.7299ZM187.835 48.2726C188.481 42.9182 192.995 38.6 202.097 38.6C207.647 38.6 212.353 40.0828 214.744 44.0785C215.774 45.8219 216.358 48.1423 216.358 50.8474V73.0901H210.162V68.896C208.225 71.477 204.357 74.0518 198.868 74.0518C192.026 74.0518 186.221 70.5029 186.221 63.0887C186.221 57.2876 190.157 53.1617 198.545 52.4482L210.162 51.4803V50.835C210.162 46.3245 208.225 43.4208 202.097 43.4208C197.192 43.4208 194.547 45.3566 194.224 48.254H187.835V48.2726ZM210.162 58.5905V56.0095L199.191 56.9774C194.671 57.362 192.417 59.5584 192.417 63.1011C192.417 67.6179 195.646 69.2248 199.514 69.2248C205.319 69.231 210.162 65.3595 210.162 58.5905ZM246.812 68.5858C244.875 71.812 241.007 74.0642 235.841 74.0642C225.777 74.0642 220.294 66.0047 220.294 56.3321C220.294 46.6595 225.777 38.6 235.841 38.6C241 38.6 244.875 40.8584 246.812 44.0785V27.9657H253.002V73.1025H246.805V68.5858H246.812ZM236.809 43.762C230.036 43.762 226.484 49.2405 226.484 56.3321C226.484 63.4237 230.036 68.9084 236.809 68.9084C243.583 68.9084 247.135 63.1073 247.135 56.3321C247.135 49.5631 243.583 43.762 236.809 43.762ZM276.88 67.9405V73.0963H257.006V67.9405H263.848V44.7299H257.006V39.5741H270.038V67.9467H276.88V67.9405ZM270.038 34.412H263.842V27.9657H270.038V34.412ZM302.944 67.9405C301.653 69.8763 298.108 72.7737 292.297 72.7737C282.878 72.7737 276.75 65.0369 276.75 55.6869C276.75 46.3369 282.878 38.6 292.297 38.6C298.102 38.6 301.653 41.5037 302.944 43.4332V39.5617H309.141V69.5412C309.141 80.1818 303.013 85.6602 293.265 85.6602C285.777 85.6602 280.295 81.7887 279.004 75.9876H285.455C286.038 78.308 288.422 80.8208 293.259 80.8208C300.355 80.8208 302.938 76.3102 302.938 69.535V67.9405H302.944ZM292.948 43.762C286.821 43.762 282.946 49.2405 282.946 55.6931C282.946 62.1394 286.814 67.6241 292.948 67.6241C299.399 67.6241 303.274 62.1456 303.274 55.6931C303.267 49.2405 299.399 43.762 292.948 43.762ZM321.012 43.4394C322.949 39.8905 326.817 38.6062 330.691 38.6062C335.205 38.6062 339.402 40.542 341.339 44.4073C343.276 40.8584 346.821 38.6062 352.633 38.6062C359.729 38.6062 364.895 42.8004 364.895 51.1763V73.0963H358.699V52.1442C358.699 46.6657 356.439 43.762 351.341 43.762C347.144 43.762 342.953 46.3431 342.953 53.112V73.1025H336.757V52.1504C336.757 46.6719 334.497 43.7682 329.4 43.7682C325.203 43.7682 321.012 46.3493 321.012 53.1182V73.1088H314.816V39.5679H321.012V43.4394Z" fill="black"/>
<path d="M401.379 74.7512L422.064 54.0293L401.438 33.366L404.836 29.9613L425.463 50.6245L446.09 29.9613L449.371 33.3073L428.745 53.9706L449.488 74.7512L446.148 78.1559L425.404 57.3753L404.719 78.0972L401.379 74.7512Z" fill="black"/>
<path d="M495.077 76.7002C494.521 70.6344 493.872 64.8472 493.13 59.3385C492.451 53.7679 491.771 48.352 491.091 43.0909C490.906 41.7911 490.628 40.9865 490.257 40.677C489.886 40.3056 489.423 40.1199 488.867 40.1199C487.693 40.1199 486.241 41.2031 484.511 43.3694L482.379 40.8627C484.912 37.3965 487.322 34.766 489.608 32.971C491.895 31.176 494.181 30.2785 496.467 30.2785C498.877 30.2785 500.669 30.9903 501.843 32.4139C503.017 33.8375 503.758 36.0348 504.067 39.0058C504.5 42.7195 504.87 46.619 505.179 50.7041C505.488 54.7892 505.766 58.8743 506.013 62.9594C508.547 58.0696 511.049 53.087 513.521 48.0116C516.054 42.9362 518.526 37.7369 520.935 32.4139H528.999C529.308 34.4565 529.617 36.9014 529.926 39.7486C530.235 42.5338 530.544 45.5048 530.853 48.6615C531.223 51.7563 531.563 54.7892 531.872 57.7602C532.181 60.7311 532.49 63.4236 532.799 65.8375C534.9 62.9903 536.846 60.1741 538.638 57.3888C540.43 54.6035 542.191 51.6634 543.921 48.5687L542.809 45.3191C542.376 44.0812 541.944 42.8124 541.511 41.5126C541.079 40.2128 540.862 38.9749 540.862 37.7988C540.862 35.1373 541.635 33.1876 543.18 31.9497C544.724 30.6499 546.578 30 548.741 30C549.606 30 550.409 30.1547 551.15 30.4642C551.892 30.7118 552.479 30.9903 552.911 31.2998C553.406 32.0426 553.745 32.8162 553.931 33.6209C554.116 34.4255 554.209 35.5397 554.209 36.9633C554.209 38.325 553.931 39.8414 553.375 41.5126C552.88 43.1838 551.83 45.5048 550.224 48.4758C547.937 52.6228 544.941 57.1721 541.233 62.1238C537.588 67.0135 533.448 71.8723 528.814 76.7002L522.048 77.4429L521.121 76.7002C520.812 74.3482 520.472 71.6248 520.101 68.53C519.731 65.3733 519.36 62.2166 518.989 59.06C518.618 55.8414 518.248 52.9633 517.877 50.4255C515.776 54.5725 513.49 58.9362 511.018 63.5164C508.609 68.0967 506.137 72.4913 503.604 76.7002L496.096 77.4429L495.077 76.7002Z" fill="black"/>
<path d="M578.955 35.3849C577.658 35.3849 576.268 35.942 574.785 37.0561C573.363 38.1083 572.004 39.5938 570.707 41.5126C569.409 43.4313 568.297 45.6286 567.37 48.1045C566.505 50.5803 566.011 53.1799 565.887 55.9033C570.089 54.4178 573.394 52.7776 575.804 50.9826C578.214 49.1257 579.913 47.2379 580.902 45.3191C581.89 43.4004 582.385 41.6054 582.385 39.9342C582.385 38.3868 582.045 37.2418 581.365 36.499C580.685 35.7563 579.882 35.3849 578.955 35.3849ZM569.038 78C564.219 78 560.295 76.4526 557.267 73.3578C554.302 70.2631 552.819 65.9923 552.819 60.5455C552.819 56.5222 553.498 52.7157 554.858 49.1257C556.279 45.4739 558.225 42.2553 560.697 39.47C563.168 36.6228 566.072 34.3946 569.409 32.7853C572.746 31.1141 576.36 30.2785 580.253 30.2785C584.455 30.2785 587.637 31.207 589.799 33.0638C592.024 34.9207 593.136 37.3346 593.136 40.3056C593.136 44.205 590.912 47.8569 586.463 51.2611C582.076 54.6035 575.279 57.4197 566.072 59.7099C566.381 62.6809 567.339 64.8781 568.946 66.3017C570.552 67.7253 572.622 68.4371 575.155 68.4371C577.874 68.4371 580.284 67.7563 582.385 66.3946C584.486 65.0329 586.247 63.4545 587.668 61.6596L590.263 63.5164C589.027 65.8685 587.359 68.1586 585.258 70.3868C583.219 72.6151 580.84 74.441 578.121 75.8646C575.402 77.2882 572.375 78 569.038 78Z" fill="black"/>
<path d="M608.614 76.7002C607.996 70.6344 607.347 64.8781 606.668 59.4313C606.05 53.9226 605.37 48.5068 604.629 43.1838C604.443 41.8221 604.134 40.9865 603.702 40.677C603.331 40.3056 602.899 40.1199 602.404 40.1199C601.848 40.1199 601.199 40.3675 600.458 40.8627C599.778 41.3578 598.975 42.1934 598.048 43.3694L595.917 40.8627C598.45 37.3965 600.86 34.766 603.146 32.971C605.432 31.176 607.749 30.2785 610.097 30.2785C612.445 30.2785 614.206 31.0213 615.38 32.5068C616.554 33.9923 617.326 36.2515 617.697 39.2843C618.191 43.617 618.624 48.1044 618.995 52.7466C619.365 57.3269 619.705 61.9381 620.014 66.5803C624.525 60.7002 628.51 54.6035 631.97 48.2901L631.044 45.2263C630.611 43.9884 630.178 42.7505 629.746 41.5126C629.375 40.2128 629.19 38.9749 629.19 37.7988C629.19 35.1373 629.9 33.1876 631.322 31.9497C632.805 30.6499 634.658 30 636.883 30C637.748 30 638.551 30.1547 639.292 30.4642C640.096 30.7118 640.714 30.9903 641.146 31.2998C641.64 32.0426 641.98 32.8162 642.166 33.6209C642.351 34.4255 642.444 35.5397 642.444 36.9633C642.444 38.2631 642.196 39.7486 641.702 41.4197C641.208 43.0909 640.127 45.4429 638.458 48.4758C636.172 52.5609 633.083 57.1103 629.19 62.1238C625.297 67.0754 620.972 71.9342 616.214 76.7002L609.541 77.4429L608.614 76.7002Z" fill="black"/>
<path d="M658.169 76.6074L646.12 77.3501L644.823 76.236L652.423 39.9342L645.935 38.913L646.583 35.4778L665.491 30.1857L667.252 31.6712L665.676 39.8414C668.766 36.8704 671.886 34.5493 675.037 32.8781C678.25 31.1451 681.278 30.2785 684.12 30.2785C686.159 30.2785 687.859 30.9284 689.218 32.2282C690.577 33.528 691.257 35.4778 691.257 38.0774C691.257 38.3868 691.257 38.7273 691.257 39.0986C691.257 39.4081 691.226 39.7176 691.164 40.0271C694.254 36.9323 697.374 34.5493 700.525 32.8781C703.738 31.1451 706.766 30.2785 709.608 30.2785C711.586 30.2785 713.254 30.9284 714.613 32.2282C715.973 33.528 716.652 35.4778 716.652 38.0774C716.652 39.3153 716.529 40.6151 716.281 41.9768C716.096 43.3385 715.818 44.7311 715.447 46.1547L711.091 63.7021C710.844 64.5687 710.628 65.3424 710.442 66.0232C710.319 66.6422 710.257 67.1992 710.257 67.6944C710.257 68.9323 710.751 69.5513 711.74 69.5513C713.285 69.5513 715.571 67.6325 718.599 63.795L721.379 65.6518C720.143 67.7563 718.63 69.7679 716.838 71.6867C715.108 73.5435 713.099 75.06 710.813 76.236C708.589 77.412 706.117 78 703.398 78C701.236 78 699.537 77.5048 698.301 76.5145C697.127 75.4623 696.54 74.0077 696.54 72.1509C696.54 70.7273 696.694 69.2727 697.003 67.7872C697.374 66.3017 697.745 64.8781 698.116 63.5164L701.545 49.5899C701.916 48.1663 702.194 46.8665 702.379 45.6905C702.626 44.4526 702.75 43.4623 702.75 42.7195C702.75 41.6673 702.503 40.9246 702.008 40.4913C701.576 40.058 701.02 39.8414 700.34 39.8414C699.042 39.8414 697.529 40.2747 695.798 41.1412C694.13 42.0077 692.276 43.3694 690.237 45.2263L687.828 56.7389C687.148 60.0193 686.468 63.3308 685.789 66.6731C685.171 69.9536 684.553 73.265 683.935 76.6074L671.886 77.3501L670.589 76.236L676.335 48.5687C676.644 47.3308 676.891 46.2166 677.076 45.2263C677.262 44.1741 677.354 43.2766 677.354 42.5339C677.354 41.6054 677.107 40.9246 676.613 40.4913C676.18 40.058 675.624 39.8414 674.945 39.8414C673.585 39.8414 672.041 40.2747 670.31 41.1412C668.58 42.0077 666.665 43.3385 664.564 45.1335L662.062 56.7389C661.382 60.0193 660.733 63.3308 660.115 66.6731C659.497 69.9536 658.849 73.265 658.169 76.6074Z" fill="black"/>
<path d="M185.754 120.305C184.199 120.305 182.844 119.945 181.688 119.227C180.539 118.508 179.648 117.492 179.016 116.18C178.391 114.867 178.078 113.32 178.078 111.539V111.527C178.078 109.746 178.391 108.203 179.016 106.898C179.648 105.586 180.539 104.574 181.688 103.863C182.836 103.145 184.191 102.785 185.754 102.785C186.926 102.785 187.992 103.012 188.953 103.465C189.922 103.91 190.727 104.535 191.367 105.34C192.008 106.137 192.43 107.074 192.633 108.152L192.656 108.246H190.523L190.453 108.035C190.242 107.34 189.918 106.75 189.48 106.266C189.043 105.773 188.508 105.395 187.875 105.129C187.25 104.863 186.543 104.73 185.754 104.73C184.637 104.73 183.664 105.012 182.836 105.574C182.016 106.129 181.379 106.914 180.926 107.93C180.473 108.945 180.246 110.145 180.246 111.527V111.539C180.246 112.914 180.473 114.113 180.926 115.137C181.379 116.16 182.02 116.953 182.848 117.516C183.676 118.078 184.645 118.359 185.754 118.359C186.543 118.359 187.25 118.23 187.875 117.973C188.5 117.715 189.035 117.336 189.48 116.836C189.926 116.336 190.262 115.727 190.488 115.008L190.523 114.914H192.656L192.633 115.008C192.43 116.078 192.008 117.012 191.367 117.809C190.727 118.605 189.926 119.223 188.965 119.66C188.012 120.09 186.941 120.305 185.754 120.305ZM217.825 120.305C216.223 120.305 214.837 119.949 213.665 119.238C212.501 118.52 211.602 117.508 210.969 116.203C210.344 114.891 210.032 113.34 210.032 111.551V111.527C210.032 109.73 210.348 108.184 210.981 106.887C211.622 105.582 212.524 104.574 213.688 103.863C214.852 103.145 216.231 102.785 217.825 102.785C219.419 102.785 220.798 103.145 221.962 103.863C223.126 104.574 224.024 105.582 224.657 106.887C225.29 108.191 225.606 109.738 225.606 111.527V111.551C225.606 113.34 225.29 114.891 224.657 116.203C224.024 117.508 223.126 118.52 221.962 119.238C220.805 119.949 219.426 120.305 217.825 120.305ZM217.825 118.359C218.989 118.359 219.989 118.078 220.825 117.516C221.669 116.953 222.317 116.164 222.77 115.148C223.223 114.125 223.45 112.926 223.45 111.551V111.527C223.45 110.137 223.219 108.934 222.758 107.918C222.305 106.902 221.657 106.117 220.813 105.562C219.969 105.008 218.973 104.73 217.825 104.73C216.676 104.73 215.68 105.008 214.837 105.562C213.993 106.117 213.34 106.902 212.88 107.918C212.419 108.934 212.188 110.137 212.188 111.527V111.551C212.188 112.934 212.415 114.137 212.868 115.16C213.329 116.176 213.981 116.965 214.825 117.527C215.669 118.082 216.669 118.359 217.825 118.359ZM243.79 120V103.09H245.9V118.102H254.056V120H243.79ZM271.924 120V103.09H274.033V118.102H282.189V120H271.924ZM298.71 120L304.991 103.09H306.561V105.656H305.999L300.924 120H298.71ZM301.581 115.16L302.272 113.367H309.807L310.499 115.16H301.581ZM311.131 120L306.069 105.656V103.09H307.077L313.346 120H311.131ZM331.894 120V118.137H336.945C338.21 118.137 339.171 117.887 339.827 117.387C340.491 116.879 340.823 116.141 340.823 115.172V115.148C340.823 114.492 340.671 113.945 340.366 113.508C340.062 113.07 339.605 112.742 338.995 112.523C338.394 112.305 337.644 112.195 336.745 112.195H331.894V110.379H336.148C337.405 110.379 338.363 110.141 339.019 109.664C339.675 109.18 340.003 108.484 340.003 107.578V107.555C340.003 106.711 339.722 106.066 339.159 105.621C338.605 105.176 337.812 104.953 336.78 104.953H331.894V103.09H337.261C338.245 103.09 339.101 103.266 339.827 103.617C340.554 103.969 341.12 104.461 341.527 105.094C341.933 105.719 342.136 106.457 342.136 107.309V107.332C342.136 107.918 342.003 108.477 341.738 109.008C341.472 109.531 341.113 109.977 340.659 110.344C340.206 110.703 339.687 110.926 339.101 111.012V111.082C339.913 111.176 340.609 111.41 341.187 111.785C341.765 112.16 342.21 112.641 342.523 113.227C342.835 113.812 342.991 114.48 342.991 115.23V115.254C342.991 116.246 342.761 117.098 342.3 117.809C341.847 118.512 341.195 119.055 340.343 119.438C339.491 119.812 338.464 120 337.261 120H331.894ZM330.839 120V103.09H332.948V120H330.839ZM368.078 120.305C366.476 120.305 365.09 119.949 363.918 119.238C362.754 118.52 361.855 117.508 361.223 116.203C360.598 114.891 360.285 113.34 360.285 111.551V111.527C360.285 109.73 360.601 108.184 361.234 106.887C361.875 105.582 362.777 104.574 363.941 103.863C365.105 103.145 366.484 102.785 368.078 102.785C369.672 102.785 371.051 103.145 372.215 103.863C373.379 104.574 374.277 105.582 374.91 106.887C375.543 108.191 375.859 109.738 375.859 111.527V111.551C375.859 113.34 375.543 114.891 374.91 116.203C374.277 117.508 373.379 118.52 372.215 119.238C371.058 119.949 369.68 120.305 368.078 120.305ZM368.078 118.359C369.242 118.359 370.242 118.078 371.078 117.516C371.922 116.953 372.57 116.164 373.023 115.148C373.476 114.125 373.703 112.926 373.703 111.551V111.527C373.703 110.137 373.473 108.934 373.012 107.918C372.558 106.902 371.91 106.117 371.066 105.562C370.223 105.008 369.226 104.73 368.078 104.73C366.93 104.73 365.933 105.008 365.09 105.562C364.246 106.117 363.594 106.902 363.133 107.918C362.672 108.934 362.441 110.137 362.441 111.527V111.551C362.441 112.934 362.668 114.137 363.121 115.16C363.582 116.176 364.234 116.965 365.078 117.527C365.922 118.082 366.922 118.359 368.078 118.359ZM394.043 120V103.09H400.407C401.493 103.09 402.438 103.301 403.243 103.723C404.055 104.137 404.684 104.723 405.129 105.48C405.575 106.23 405.797 107.113 405.797 108.129V108.152C405.797 109.324 405.493 110.34 404.883 111.199C404.282 112.051 403.454 112.645 402.399 112.98L406.313 120H403.84L400.219 113.309C400.196 113.309 400.172 113.309 400.149 113.309C400.133 113.309 400.114 113.309 400.09 113.309H396.153V120H394.043ZM396.153 111.445H400.219C401.305 111.445 402.141 111.164 402.727 110.602C403.321 110.039 403.618 109.238 403.618 108.199V108.176C403.618 107.168 403.305 106.383 402.68 105.82C402.063 105.25 401.211 104.965 400.125 104.965H396.153V111.445ZM422.681 120L428.962 103.09H430.532V105.656H429.97L424.896 120H422.681ZM425.552 115.16L426.243 113.367H433.778L434.47 115.16H425.552ZM435.103 120L430.04 105.656V103.09H431.048L437.318 120H435.103ZM456.838 120V104.988H451.482V103.09H464.302V104.988H458.947V120H456.838ZM482.077 120V103.09H484.186V120H482.077ZM510.151 120.305C508.55 120.305 507.163 119.949 505.991 119.238C504.827 118.52 503.929 117.508 503.296 116.203C502.671 114.891 502.358 113.34 502.358 111.551V111.527C502.358 109.73 502.675 108.184 503.308 106.887C503.948 105.582 504.851 104.574 506.015 103.863C507.179 103.145 508.558 102.785 510.151 102.785C511.745 102.785 513.124 103.145 514.288 103.863C515.452 104.574 516.351 105.582 516.983 106.887C517.616 108.191 517.933 109.738 517.933 111.527V111.551C517.933 113.34 517.616 114.891 516.983 116.203C516.351 117.508 515.452 118.52 514.288 119.238C513.132 119.949 511.753 120.305 510.151 120.305ZM510.151 118.359C511.315 118.359 512.315 118.078 513.151 117.516C513.995 116.953 514.644 116.164 515.097 115.148C515.55 114.125 515.776 112.926 515.776 111.551V111.527C515.776 110.137 515.546 108.934 515.085 107.918C514.632 106.902 513.983 106.117 513.14 105.562C512.296 105.008 511.3 104.73 510.151 104.73C509.003 104.73 508.007 105.008 507.163 105.562C506.319 106.117 505.667 106.902 505.206 107.918C504.745 108.934 504.515 110.137 504.515 111.527V111.551C504.515 112.934 504.741 114.137 505.194 115.16C505.655 116.176 506.308 116.965 507.151 117.527C507.995 118.082 508.995 118.359 510.151 118.359ZM536.117 120V103.09H538.168L549.008 118.652L546.57 116.402H547.531V103.09H549.617V120H547.566L536.726 104.449L539.164 106.699H538.203V120H536.117Z" fill="black"/>
</svg>
