<svg width="544" height="217" viewBox="0 0 544 217" fill="none" xmlns="http://www.w3.org/2000/svg">
<g clip-path="url(#clip0_1600_235)">
<path d="M196.838 149.933V68.0669H223.517C232.364 68.0669 239.026 69.9073 243.488 73.5881C247.949 77.2535 250.18 82.6979 250.18 89.9214C250.18 93.7402 249.111 97.1449 246.926 100.074C244.771 103.034 241.822 105.319 238.079 106.93C242.495 108.156 245.978 110.518 248.545 113.969C251.112 117.45 252.365 121.576 252.365 126.345C252.365 133.692 249.997 139.458 245.245 143.645C240.508 147.847 233.815 149.933 225.152 149.933H196.838ZM207.61 111.822V141.068H225.35C230.362 141.068 234.32 139.78 237.208 137.188C240.096 134.597 241.547 131.023 241.547 126.499C241.547 116.714 236.214 111.822 225.518 111.822H207.61ZM207.61 102.957H223.838C228.544 102.957 232.303 101.761 235.145 99.3993C237.956 97.0375 239.377 93.8475 239.377 89.7987C239.377 85.2898 238.063 82.0231 235.45 79.9834C232.838 77.9283 228.849 76.9161 223.517 76.9161H207.61V102.957ZM313.287 128.523H279.09L271.42 149.948H260.326L291.482 68.0669H300.895L332.096 149.948H321.064L313.287 128.523ZM282.36 119.659H310.109L296.204 81.3943L282.36 119.659ZM367.118 113.448C357.904 110.779 351.196 107.497 346.979 103.617C342.777 99.7367 340.669 94.9364 340.669 89.2466C340.669 82.8053 343.251 77.4682 348.37 73.2353C353.519 69.0178 360.181 66.9014 368.386 66.9014C373.994 66.9014 379.006 67.9903 383.376 70.168C387.777 72.3305 391.154 75.3364 393.568 79.1705C395.982 82.9893 397.189 87.1762 397.189 91.7004H386.386C386.386 86.7467 384.812 82.8513 381.68 80.014C378.548 77.1921 374.101 75.7658 368.386 75.7658C363.084 75.7658 358.959 76.9314 355.994 79.2779C353.015 81.6397 351.533 84.8757 351.533 89.0472C351.533 92.3906 352.923 95.2278 355.765 97.5283C358.577 99.8288 363.375 101.945 370.159 103.862C376.928 105.779 382.245 107.896 386.065 110.196C389.885 112.497 392.727 115.181 394.576 118.279C396.425 121.346 397.342 124.981 397.342 129.137C397.342 135.777 394.76 141.099 389.61 145.087C384.446 149.074 377.57 151.068 368.937 151.068C363.329 151.068 358.088 149.994 353.244 147.847C348.4 145.685 344.657 142.725 342.013 138.983C339.37 135.241 338.071 130.977 338.071 126.223H348.874C348.874 131.161 350.692 135.057 354.344 137.909C357.981 140.762 362.84 142.203 368.937 142.203C374.621 142.203 378.96 141.038 381.986 138.707C385.026 136.391 386.539 133.216 386.539 129.229C386.539 125.211 385.118 122.113 382.337 119.92C379.571 117.757 374.483 115.579 367.118 113.448ZM457.285 112.159H421.943V141.068H463V149.933H411.186V68.0669H462.45V76.9314H421.943V103.295H457.285V112.159Z" fill="white"/>
<path d="M129.636 158C156.59 158 178.456 136.069 178.456 109C178.456 81.9465 156.605 60 129.636 60C104.073 60 83.0781 79.7534 81 104.874H145.512V113.11H81C83.0781 138.247 104.073 158 129.636 158Z" fill="white"/>
</g>
<defs>
<clipPath id="clip0_1600_235">
<rect width="382" height="98" fill="white" transform="translate(81 60)"/>
</clipPath>
</defs>
</svg>
