<svg width="544" height="217" viewBox="0 0 544 217" fill="none" xmlns="http://www.w3.org/2000/svg">
<path d="M157.709 94.322C157.356 94.322 157.18 94.5009 157.18 94.8584C157.158 103.947 157.162 110.701 157.191 115.119C157.213 118.862 157.979 123.137 162.832 121.455C164.209 120.98 165.724 118.818 166.963 117.471C167.064 117.36 167.186 117.273 167.323 117.214C167.46 117.155 167.608 117.127 167.756 117.13C168.568 117.152 168.902 117.644 168.759 118.605C168.34 121.438 166.269 124.472 164.567 126.092C161.963 128.569 158.979 129.225 155.615 128.059C149.479 125.925 149.457 118.063 149.468 112.738C149.475 109.274 149.497 103.312 149.534 94.8528C149.538 94.633 149.431 94.5083 149.214 94.4785C147.92 94.3109 145.133 94.7523 144.637 92.8917C143.904 90.1426 147.028 90.0253 148.587 89.6956C152.668 88.8463 153.219 85.6056 154.602 81.7335C154.634 81.6451 154.686 81.5657 154.753 81.5017C154.82 81.4377 154.9 81.3908 154.988 81.3647C155.447 81.2306 155.975 81.2306 156.574 81.3647C156.754 81.402 156.866 81.5137 156.91 81.7C157.395 83.745 157.202 86.3041 157.152 89.7068C157.152 89.7623 157.162 89.8174 157.182 89.8689C157.203 89.9204 157.233 89.9672 157.271 90.0067C157.31 90.0463 157.356 90.0776 157.406 90.099C157.457 90.1204 157.511 90.1315 157.565 90.1314H165.008C165.731 90.1314 166.093 90.4984 166.093 91.2322V93.2325C166.093 93.9589 165.735 94.322 165.019 94.322H157.709Z" fill="white"/>
<path d="M229.086 93.4742C229.028 93.4749 228.971 93.4916 228.921 93.5225C228.872 93.5533 228.832 93.5973 228.806 93.6495C228.779 93.7018 228.767 93.7604 228.771 93.819C228.774 93.8777 228.794 93.9343 228.827 93.9826C231.239 97.3911 232.027 101.643 230.992 105.644C229.75 110.449 226.607 113.481 221.561 114.74C218.502 115.5 215.639 115.472 212.973 114.656C212.077 114.381 211.401 114.639 210.946 115.433L210.604 116.031C210.12 116.869 210.307 117.457 211.166 117.796C212.187 118.195 213.103 118.409 213.915 118.439C218.204 118.588 221.418 118.739 223.555 118.891C228.86 119.272 233.294 122.015 234.065 127.736C235.018 134.844 230.87 140.537 224.365 143.001C220.079 144.622 215.011 144.259 210.461 143.353C207.747 142.81 205.393 141.636 203.399 139.833C200.21 136.95 199.587 131.838 202.485 128.441C203.443 127.312 204.738 126.748 205.779 125.96C205.825 125.925 205.862 125.879 205.887 125.826C205.912 125.773 205.923 125.714 205.92 125.656C205.918 125.598 205.901 125.541 205.871 125.49C205.842 125.44 205.8 125.398 205.751 125.367C203.845 124.194 202.226 122.797 202.485 120.249C202.832 116.847 205.377 114.595 208.357 113.326C208.425 113.297 208.484 113.251 208.529 113.191C208.574 113.132 208.602 113.062 208.612 112.988C208.621 112.914 208.611 112.84 208.583 112.771C208.555 112.703 208.509 112.644 208.45 112.6C205.031 109.955 203.364 106.361 203.449 101.816C203.652 90.971 213.673 87.3447 222.712 89.7697C223.109 89.874 223.382 89.9261 223.533 89.9261C225.252 89.9317 228.094 89.3897 232.556 88.831C233.709 88.6857 234.286 89.2035 234.286 90.3843V91.7197C234.286 92.8894 233.709 93.4742 232.556 93.4742H229.086ZM217.396 112.086C218.229 112.087 219.055 111.832 219.825 111.334C220.596 110.836 221.297 110.106 221.888 109.184C222.479 108.263 222.948 107.168 223.269 105.964C223.59 104.759 223.756 103.467 223.759 102.163C223.761 100.858 223.599 99.566 223.282 98.36C222.965 97.1543 222.5 96.0582 221.912 95.1348C221.325 94.2111 220.626 93.4781 219.857 92.9775C219.088 92.4769 218.263 92.2185 217.43 92.217C216.597 92.2155 215.771 92.471 215 92.9689C214.229 93.4668 213.529 94.1973 212.938 95.1188C212.347 96.0403 211.877 97.1346 211.557 98.3394C211.235 99.544 211.069 100.836 211.067 102.14C211.065 103.445 211.227 104.737 211.544 105.943C211.86 107.149 212.326 108.245 212.914 109.168C213.501 110.092 214.2 110.825 214.969 111.326C215.738 111.826 216.562 112.085 217.396 112.086ZM220.239 127.15C215.92 127.021 214.086 127.049 211.062 126.585C210.93 126.565 210.794 126.581 210.67 126.633C210.546 126.684 210.438 126.768 210.356 126.876C206.974 131.391 208.131 137.839 213.854 139.61C218.322 140.995 225.004 140.364 226.81 135.101C227.53 133.007 227.328 131.128 226.205 129.463C224.932 127.574 222.354 127.211 220.239 127.15Z" fill="white"/>
<path d="M136.006 123.327C135.993 123.27 135.964 123.218 135.922 123.177C135.881 123.136 135.828 123.108 135.771 123.096C135.714 123.084 135.655 123.089 135.601 123.11C135.547 123.132 135.5 123.168 135.466 123.216C132.767 127.075 129.225 128.822 124.84 128.457C122.813 128.285 121.169 127.995 119.91 127.585C116.136 126.367 113.773 122.847 113.839 118.768C113.905 114.462 115.754 111.234 119.386 109.085C124.08 106.308 129.649 104.772 134.441 103.492C134.617 103.444 134.774 103.341 134.889 103.199C135.005 103.057 135.074 102.882 135.086 102.699C135.317 99.2624 135.598 93.876 131.682 92.8535C125.562 91.2666 125.98 100.207 121.232 101.559C116.72 102.855 115.205 97.3794 117.591 94.5519C120.084 91.5944 123.382 89.8325 127.484 89.2663C133.141 88.4841 139.867 89.3557 142.016 95.2673C142.548 96.7423 142.816 98.5621 142.82 100.726C142.824 111.45 142.846 118.15 142.886 120.824C142.897 121.461 143.062 122.046 143.382 122.579C143.418 122.637 143.466 122.687 143.524 122.723C143.581 122.759 143.646 122.78 143.712 122.785L146.147 122.987C146.304 123 146.454 123.055 146.582 123.146C146.711 123.237 146.814 123.362 146.882 123.507C146.95 123.653 146.979 123.815 146.969 123.977C146.958 124.14 146.906 124.297 146.819 124.434C145.545 126.401 143.883 127.634 141.834 128.133C139.432 128.719 136.893 127.44 136.364 124.987C136.173 124.104 136.054 123.551 136.006 123.327ZM134.629 106.967C131.621 108.392 128.553 109.426 125.556 111.091C123.723 112.104 122.572 113.542 122.102 115.404C121.458 117.958 121.926 121.109 124.118 122.78C126.812 124.831 130.304 123.92 132.282 121.428C135.631 117.204 135.323 113.052 134.965 107.168C134.95 106.934 134.838 106.867 134.629 106.967Z" fill="white"/>
<path d="M177.727 106.638C177.617 110.452 178.124 113.583 179.248 116.03C181.121 120.092 184.916 122.847 189.4 122.54C192.959 122.294 195.509 120.081 197.845 117.092C198.366 116.421 198.919 116.297 199.503 116.717C199.64 116.815 199.749 116.949 199.818 117.105C199.888 117.261 199.916 117.434 199.899 117.606C199.815 118.5 199.549 119.394 199.101 120.288C196.286 125.948 191.642 128.943 185.164 128.535C179.945 128.207 175.961 126.274 173.21 122.735C168.952 117.254 168.495 108.186 170.555 101.475C171.861 97.2174 174.824 93.0323 178.713 90.8644C182.698 88.6443 187.05 88.3798 191.769 90.071C197.376 92.0824 200.098 98.5025 199.817 104.336C199.791 104.883 199.71 105.332 199.574 105.682C199.504 105.861 199.38 105.975 199.2 106.023C198.458 106.224 197.578 106.323 196.561 106.319C193.421 106.312 187.252 106.312 178.052 106.319C177.843 106.319 177.735 106.425 177.727 106.638ZM181.302 94.8929C179.892 96.681 178.877 98.9048 178.256 101.564C178.242 101.626 178.242 101.69 178.255 101.751C178.269 101.813 178.296 101.87 178.335 101.92C178.374 101.969 178.423 102.009 178.479 102.037C178.535 102.064 178.596 102.078 178.658 102.078H191.218C191.695 102.078 191.888 101.842 191.796 101.369C191.344 99.0295 190.908 97.2992 190.485 96.178C188.932 92.021 183.958 91.5237 181.302 94.8929Z" fill="white"/>
<path d="M251.88 89.0249C263.223 89.0361 269.657 97.8252 269.651 108.788C269.64 119.75 263.19 128.528 251.853 128.517C240.511 128.511 234.077 119.723 234.088 108.76C234.093 97.7916 240.544 89.0193 251.88 89.0249ZM242.13 108.805C242.136 114.856 244.235 124.935 251.875 124.935C259.51 124.935 261.609 114.85 261.609 108.799C261.603 102.753 259.505 92.6679 251.864 92.6735C244.229 92.6735 242.13 102.759 242.13 108.805Z" fill="white"/>
<path d="M282.231 92.4796C282.238 93.3103 282.504 93.4071 283.03 92.7702C283.804 91.8352 284.399 91.1759 284.814 90.7922C287.701 88.127 293.137 88.3002 295.309 91.8818C297.279 95.1338 295.969 99.8272 291.684 99.0672C290.996 98.9443 290.477 98.6315 290.125 98.1285C288.814 96.2343 286.946 92.7199 284.412 95.5361C281.917 98.3128 282.132 100.375 282.126 104.61C282.108 113.192 282.119 119.063 282.159 122.222C282.163 122.505 282.255 123.104 282.435 124.021C282.471 124.207 282.574 124.338 282.743 124.412C284.043 124.982 285.299 125.356 285.073 127.049C285.06 127.158 285.008 127.257 284.927 127.33C284.846 127.403 284.742 127.444 284.633 127.446C281.254 127.494 277.497 127.498 273.362 127.457C272.635 127.45 271.946 127.334 271.296 127.111C271.21 127.08 271.133 127.028 271.073 126.958C271.012 126.888 270.971 126.803 270.953 126.712C270.936 126.621 270.942 126.527 270.971 126.439C271 126.351 271.052 126.273 271.12 126.211C272.282 125.166 274.238 124.507 274.243 122.641C274.266 114.982 274.271 105.856 274.26 95.2623C274.26 93.815 272.442 92.7813 271.318 92.1667C271.221 92.1128 271.139 92.0354 271.078 91.9414C271.018 91.8474 270.981 91.7398 270.972 91.6283C270.963 91.5169 270.981 91.405 271.025 91.303C271.069 91.2009 271.138 91.1117 271.225 91.0436C271.757 90.6264 272.359 90.3582 273.032 90.239C277.798 89.3711 280.257 88.9334 280.407 88.926C282.242 88.8422 282.22 91.2169 282.231 92.4796Z" fill="white"/>
<path d="M317.293 116.347C317.522 116.191 317.692 115.938 317.806 115.588C320.309 108.074 322.479 101.474 324.317 95.7856C324.75 94.4446 324.649 93.4799 324.013 92.8913C323.296 92.2264 322.654 91.6453 322.602 90.891C322.598 90.7982 322.609 90.7053 322.636 90.618C322.663 90.5307 322.703 90.4508 322.757 90.3833C322.813 90.3158 322.878 90.2621 322.949 90.2254C323.023 90.1888 323.102 90.17 323.182 90.1702L331.142 90.1591C331.319 90.1587 331.494 90.2105 331.644 90.3081C331.796 90.4057 331.915 90.5449 331.989 90.7091C332.063 90.8732 332.087 91.0552 332.063 91.2333C332.036 91.4113 331.96 91.5776 331.841 91.7124C331.346 92.2786 330.806 92.7516 330.227 93.1316C329.611 93.5339 329.051 94.4464 328.552 95.8694C323.518 110.263 319.438 121.775 316.313 130.405C315.824 131.758 314.848 133.741 313.388 136.356C310.773 141.038 306.837 143.212 301.577 142.877C300.401 142.802 299.206 142.353 297.99 141.53C295.963 140.161 295.766 137.63 297.121 135.797C298.008 134.602 300.327 134.663 301.422 135.272C303.995 136.703 305.84 139.306 308.612 136.11C310.919 133.451 312.484 130.206 313.31 126.377C313.532 125.356 313.404 124.257 312.929 123.08C309.709 115.116 306.378 106.8 302.938 98.1323C301.792 95.238 300.95 93.4445 298.713 92.1426C298.543 92.0448 298.4 91.9034 298.301 91.7324C298.2 91.5615 298.147 91.367 298.144 91.1684C298.142 90.9699 298.191 90.7742 298.288 90.601C298.384 90.4278 298.523 90.2831 298.691 90.1814C298.807 90.1106 299.098 90.0771 299.562 90.0808C303.366 90.0995 307.096 90.1348 310.755 90.187C311.214 90.1944 311.561 90.2447 311.796 90.3378C311.908 90.3822 312.007 90.4544 312.085 90.5479C312.163 90.6415 312.217 90.7534 312.242 90.8737C312.266 90.994 312.262 91.1188 312.226 91.2369C312.193 91.3551 312.13 91.4628 312.043 91.5504L310.386 93.2378C310.249 93.3756 310.164 93.5395 310.126 93.7294C309.949 94.6345 310.177 96.0053 310.809 97.8419C311.87 100.937 313.679 106.177 316.234 113.559C316.501 114.327 316.729 115.204 316.924 116.191C316.933 116.231 316.949 116.268 316.975 116.299C317 116.331 317.034 116.356 317.069 116.371C317.105 116.386 317.146 116.393 317.184 116.388C317.224 116.384 317.26 116.37 317.293 116.347Z" fill="white"/>
<path d="M111.213 113.046C111.213 112.792 111.209 112.539 111.203 112.285C111.188 111.745 111.173 111.202 111.042 110.675C111.022 110.585 110.979 110.502 110.917 110.432C110.855 110.362 110.777 110.308 110.687 110.274C110.599 110.24 110.502 110.229 110.408 110.239C110.313 110.25 110.222 110.283 110.144 110.336C109.857 110.522 109.643 110.765 109.499 111.064C108.006 114.182 106.105 117.227 103.308 119.461C100.665 121.573 96.5192 122.354 93.1311 122.19C87.4344 121.916 82.2743 118.787 79.0933 114.396C76.289 110.525 74.8863 105.801 74.7185 101.042C74.73 100.47 74.7567 99.8985 74.7993 99.3292C74.9867 97.0937 75.4415 94.8919 76.1468 92.812C78.4777 85.9345 83.4975 80.7543 91.0134 79.742C99.9009 78.5499 104.778 84.1144 108.486 91.04C108.743 91.5212 109.061 91.8522 109.439 92.0319C109.535 92.0772 109.642 92.0968 109.749 92.0897C109.855 92.0826 109.958 92.0497 110.046 91.9927C110.135 91.9358 110.205 91.8575 110.251 91.7668C110.297 91.6751 110.317 91.5737 110.309 91.4723C110.165 89.6059 110.122 87.736 109.963 85.8713C109.8 83.9676 109.598 82.0656 109.383 80.1663C109.306 79.5018 109.167 79.0152 108.965 78.7056C107.825 76.9388 103.62 75.7307 101.383 75.2192C87.3589 72.0131 72.0518 77.4192 67.4397 91.3913C66.3765 94.61 65.9181 97.8339 66.0122 100.947C65.9741 102.201 66.0256 103.44 66.1615 104.658C67.3331 116.407 75.6165 126.275 88.5369 128.422C95.3857 129.562 103.082 129.003 109.055 125.155C109.534 124.848 110.112 124.123 110.167 123.603C110.347 121.866 110.534 120.128 110.748 118.395C110.871 117.391 111.063 116.392 111.134 115.383C111.189 114.606 111.215 113.825 111.213 113.046Z" fill="white"/>
<path d="M95.8375 101.621C95.8375 103.389 94.4065 104.823 92.6425 104.823C90.8783 104.823 89.4473 103.389 89.4473 101.621C89.4473 99.8525 90.8783 98.4185 92.6425 98.4185C94.4065 98.4185 95.8375 99.8525 95.8375 101.621Z" fill="white"/>
<path d="M425.768 92.8457C425.768 92.899 425.784 92.9515 425.81 92.9968C425.84 93.0421 425.878 93.0783 425.927 93.1012C425.974 93.1242 426.025 93.1328 426.079 93.1261C426.131 93.1195 426.18 93.0977 426.22 93.0636C427.257 92.1659 428.159 91.4656 428.932 90.9627C433.894 87.7108 440.956 88.5042 445.015 93.0692C446.961 95.252 448.338 98.0867 449.142 101.573C451.164 110.351 449.5 121.347 441.276 126.398C435.233 130.109 426.442 128.672 420.535 125.326C417.765 123.755 418.034 122.018 418.041 118.76C418.052 106.405 418.054 94.0507 418.045 81.6987C418.041 78.8323 418.173 76.8097 415.468 75.7872C415.289 75.7196 415.136 75.5946 415.033 75.4312C414.933 75.2678 414.886 75.075 414.901 74.882C414.953 74.3009 415.248 73.9563 415.788 73.8483C420.123 72.9655 422.938 72.0492 425.114 72.4738C425.309 72.5111 425.432 72.6247 425.488 72.8146C425.705 73.6081 425.817 74.2916 425.824 74.8652C425.875 80.7693 425.857 86.7628 425.768 92.8457ZM427.107 122.185C429.906 125.147 434.686 125.393 437.651 122.582C439.563 120.766 440.575 117.771 441.126 115.112C442.217 109.897 442.017 104.741 440.526 99.6456C438.258 91.9014 430.116 91.7338 426.446 98.3661C426.034 99.1148 425.831 100.337 425.835 102.032C425.846 107.5 425.844 112.966 425.831 118.431C425.824 120.034 426.061 121.079 427.107 122.185Z" fill="white"/>
<path d="M355.275 123.995C355.441 123.578 355.524 123.032 355.524 122.358C355.542 110.118 355.542 95.7799 355.524 79.3454C355.524 79.1239 355.466 78.9065 355.354 78.7159C355.244 78.5252 355.085 78.3683 354.895 78.2615C353.766 77.6245 352.526 77.1551 352.51 75.8141C352.508 75.7253 352.523 75.6371 352.557 75.5545C352.588 75.4719 352.635 75.3966 352.696 75.3327C352.756 75.2689 352.828 75.2179 352.909 75.1826C352.987 75.1473 353.074 75.1283 353.159 75.1269C355.546 75.0785 359.1 75.0598 363.82 75.071C364.803 75.0747 365.649 75.1902 366.359 75.4174C366.48 75.4561 366.587 75.5277 366.672 75.6244C366.755 75.7212 366.811 75.8393 366.834 75.966C366.856 76.0927 366.843 76.2232 366.798 76.3432C366.751 76.4632 366.675 76.5682 366.574 76.6467C365.428 77.5351 363.616 78.3397 363.609 80.5914C363.58 90.768 363.574 103.21 363.587 117.916C363.594 119.363 363.334 122.503 365.416 122.659C368.231 122.872 372.226 123.162 374.572 121.782C377.915 119.815 379.586 116.569 381.05 112.786C381.099 112.659 381.184 112.55 381.296 112.473C381.406 112.397 381.538 112.356 381.672 112.356C382.492 112.352 382.837 112.74 382.709 113.518C382.27 116.156 381.574 120.607 380.616 126.872C380.589 127.037 380.506 127.187 380.38 127.296C380.255 127.404 380.096 127.464 379.933 127.465H353.265C353.162 127.464 353.059 127.442 352.965 127.4C352.87 127.357 352.788 127.295 352.718 127.218C352.651 127.14 352.6 127.049 352.568 126.95C352.537 126.851 352.526 126.746 352.537 126.643C352.676 125.459 353.739 124.906 354.924 124.369C355.085 124.294 355.213 124.16 355.275 123.995Z" fill="white"/>
<path d="M405.156 123.342C405.142 123.284 405.113 123.232 405.073 123.191C405.03 123.15 404.979 123.122 404.921 123.11C404.865 123.098 404.806 123.103 404.75 123.124C404.697 123.146 404.65 123.182 404.616 123.23C401.913 127.089 398.369 128.834 393.985 128.465C391.958 128.294 390.312 128.004 389.05 127.594C385.274 126.37 382.917 122.844 382.984 118.765C383.053 114.46 384.907 111.232 388.541 109.082C393.235 106.311 398.81 104.775 403.602 103.501C403.779 103.453 403.938 103.351 404.054 103.209C404.17 103.067 404.24 102.891 404.253 102.707C404.484 99.2653 404.771 93.879 400.848 92.8565C394.728 91.2641 395.14 100.204 390.393 101.556C385.877 102.847 384.365 97.3711 386.752 94.5439C389.249 91.5863 392.549 89.8262 396.656 89.2638C402.314 88.4815 409.045 89.3587 411.188 95.2758C411.721 96.7509 411.987 98.5706 411.987 100.735C411.983 111.466 412.001 118.17 412.041 120.844C412.052 121.481 412.218 122.066 412.538 122.599C412.574 122.657 412.621 122.707 412.679 122.743C412.737 122.778 412.8 122.8 412.867 122.805L415.303 123.006C415.46 123.019 415.61 123.074 415.74 123.166C415.87 123.257 415.973 123.382 416.042 123.529C416.11 123.675 416.139 123.838 416.127 124.001C416.116 124.165 416.063 124.322 415.975 124.459C414.697 126.426 413.033 127.657 410.984 128.152C408.582 128.739 406.042 127.46 405.514 125.001C405.324 124.118 405.203 123.565 405.156 123.342ZM403.779 106.981C400.776 108.401 397.708 109.434 394.717 111.094C392.885 112.107 391.732 113.543 391.264 115.402C390.619 117.955 391.087 121.101 393.273 122.772C395.966 124.822 399.455 123.912 401.432 121.425C404.775 117.207 404.473 113.061 404.115 107.183C404.099 106.948 403.987 106.881 403.779 106.981Z" fill="white"/>
<path d="M469.918 121.532C470.707 119.062 468.609 115.967 466.757 114.625C463.777 112.469 458.577 109.664 455.472 105.708C454.314 104.236 453.676 102.64 453.559 100.92C452.975 92.3875 459.562 88.7109 466.929 89.0182C469.173 89.1151 471.535 89.4484 474.018 90.0184C476.497 90.5883 476.32 92.2142 476.47 94.6616C476.609 96.9114 476.667 99.1632 476.645 101.417C476.645 101.61 476.562 101.754 476.392 101.847C475.935 102.104 475.489 101.802 475.286 101.361C473.441 97.254 471.407 93.8178 467.039 92.3875C464.73 91.6275 461.931 92.2366 460.931 94.695C457.664 102.73 482.704 106.406 476.931 121.342C473.83 129.36 464.043 129.779 457.124 127.058C455.498 126.421 453.835 125.583 453.685 123.638C453.396 119.76 453.273 116.544 453.318 113.989C453.318 113.849 453.353 113.713 453.418 113.591C453.483 113.469 453.577 113.366 453.691 113.29C454.305 112.877 454.704 113.037 454.887 113.771C455.895 117.732 457.532 122.677 461.47 124.633C465.066 126.415 468.564 125.75 469.918 121.532Z" fill="white"/>
</svg>
