<svg width="544" height="217" viewBox="0 0 544 217" fill="none" xmlns="http://www.w3.org/2000/svg">
<path d="M90.3698 131.902C87.6365 131.902 85.1218 131.41 82.8258 130.426C80.5298 129.442 78.5345 128.075 76.8398 126.326C75.1998 124.577 73.9151 122.527 72.9858 120.176C72.0565 117.771 71.5918 115.147 71.5918 112.304C71.5918 109.516 72.0565 106.947 72.9858 104.596C73.9151 102.191 75.1998 100.113 76.8398 98.364C78.5345 96.6147 80.5298 95.248 82.8258 94.264C85.1218 93.28 87.6091 92.788 90.2878 92.788C93.3491 92.788 96.0825 93.4167 98.4878 94.674C100.948 95.8767 102.943 97.5714 104.474 99.758L100.784 103.366L100.21 103.94L99.7998 103.53C99.7998 103.093 99.6905 102.683 99.4718 102.3C99.3078 101.917 98.8978 101.398 98.2418 100.742C97.0391 99.6487 95.7545 98.8834 94.3878 98.446C93.0211 98.0087 91.4358 97.79 89.6318 97.79C88.0465 97.79 86.5431 98.118 85.1218 98.774C83.7005 99.43 82.4158 100.387 81.2678 101.644C80.1745 102.847 79.2998 104.323 78.6438 106.072C77.9878 107.821 77.6598 109.762 77.6598 111.894C77.6598 114.026 77.9878 115.994 78.6438 117.798C79.2998 119.547 80.2018 121.078 81.3498 122.39C82.4978 123.702 83.8645 124.741 85.4498 125.506C87.0898 126.217 88.8391 126.572 90.6978 126.572C91.9551 126.572 93.1578 126.408 94.3058 126.08C95.4538 125.697 96.5471 125.178 97.5858 124.522C98.6245 123.811 99.5811 122.964 100.456 121.98L103.9 125.998C102.041 127.966 99.9638 129.442 97.6678 130.426C95.4265 131.41 92.9938 131.902 90.3698 131.902Z" fill="white"/>
<path d="M128.5 131.656C125.11 131.656 122.104 130.836 119.48 129.196C116.91 127.501 114.888 125.205 113.412 122.308C111.936 119.356 111.198 115.994 111.198 112.222C111.198 108.395 111.936 105.033 113.412 102.136C114.888 99.184 116.91 96.888 119.48 95.248C122.104 93.5534 125.11 92.706 128.5 92.706C131.889 92.706 134.868 93.5534 137.438 95.248C140.062 96.888 142.112 99.184 143.588 102.136C145.064 105.033 145.802 108.395 145.802 112.222C145.802 115.994 145.064 119.356 143.588 122.308C142.112 125.205 140.062 127.501 137.438 129.196C134.868 130.836 131.889 131.656 128.5 131.656ZM128.5 126.736C130.686 126.736 132.6 126.107 134.24 124.85C135.88 123.593 137.164 121.871 138.094 119.684C139.078 117.497 139.57 114.983 139.57 112.14C139.57 109.297 139.078 106.783 138.094 104.596C137.164 102.409 135.88 100.715 134.24 99.512C132.6 98.2547 130.686 97.626 128.5 97.626C126.368 97.626 124.454 98.2547 122.76 99.512C121.12 100.715 119.808 102.409 118.824 104.596C117.894 106.783 117.43 109.297 117.43 112.14C117.43 114.983 117.894 117.497 118.824 119.684C119.808 121.871 121.12 123.593 122.76 124.85C124.454 126.107 126.368 126.736 128.5 126.736Z" fill="white"/>
<path d="M152.116 131V93.526H157.528V97.216C158.129 96.2867 158.812 95.494 159.578 94.838C160.398 94.1274 161.272 93.5807 162.202 93.198C163.186 92.8154 164.17 92.624 165.154 92.624C166.247 92.624 167.258 92.87 168.188 93.362C169.117 93.7994 169.882 94.428 170.484 95.248C171.14 96.068 171.577 97.0247 171.796 98.118C172.288 97.0247 172.944 96.068 173.764 95.248C174.638 94.428 175.622 93.7994 176.716 93.362C177.864 92.87 179.039 92.624 180.242 92.624C181.499 92.624 182.592 92.87 183.522 93.362C184.451 93.854 185.216 94.5374 185.818 95.412C186.419 96.232 186.856 97.2434 187.13 98.446C187.403 99.594 187.512 100.851 187.458 102.218V131H182.046V104.432C182.046 102.136 181.882 100.469 181.554 99.43C181.28 98.3914 180.87 97.7354 180.324 97.462C179.777 97.134 179.176 96.97 178.52 96.97C177.481 96.97 176.497 97.462 175.568 98.446C174.693 99.3754 173.955 100.551 173.354 101.972C172.807 103.393 172.534 104.815 172.534 106.236V131H167.04V104.924C167.04 101.808 166.739 99.7307 166.138 98.692C165.591 97.6534 164.525 97.134 162.94 97.134C162.338 97.134 161.71 97.3527 161.054 97.79C160.452 98.1727 159.878 98.7467 159.332 99.512C158.785 100.223 158.348 101.125 158.02 102.218C157.692 103.311 157.528 104.569 157.528 105.99V131H152.116Z" fill="white"/>
<path d="M193.116 131V93.526H198.528V97.216C199.129 96.2867 199.812 95.494 200.578 94.838C201.398 94.1274 202.272 93.5807 203.202 93.198C204.186 92.8154 205.17 92.624 206.154 92.624C207.247 92.624 208.258 92.87 209.188 93.362C210.117 93.7994 210.882 94.428 211.484 95.248C212.14 96.068 212.577 97.0247 212.796 98.118C213.288 97.0247 213.944 96.068 214.764 95.248C215.638 94.428 216.622 93.7994 217.716 93.362C218.864 92.87 220.039 92.624 221.242 92.624C222.499 92.624 223.592 92.87 224.522 93.362C225.451 93.854 226.216 94.5374 226.818 95.412C227.419 96.232 227.856 97.2434 228.13 98.446C228.403 99.594 228.512 100.851 228.458 102.218V131H223.046V104.432C223.046 102.136 222.882 100.469 222.554 99.43C222.28 98.3914 221.87 97.7354 221.324 97.462C220.777 97.134 220.176 96.97 219.52 96.97C218.481 96.97 217.497 97.462 216.568 98.446C215.693 99.3754 214.955 100.551 214.354 101.972C213.807 103.393 213.534 104.815 213.534 106.236V131H208.04V104.924C208.04 101.808 207.739 99.7307 207.138 98.692C206.591 97.6534 205.525 97.134 203.94 97.134C203.338 97.134 202.71 97.3527 202.054 97.79C201.452 98.1727 200.878 98.7467 200.332 99.512C199.785 100.223 199.348 101.125 199.02 102.218C198.692 103.311 198.528 104.569 198.528 105.99V131H193.116Z" fill="white"/>
<path d="M251.5 131.656C248.11 131.656 245.104 130.836 242.48 129.196C239.91 127.501 237.888 125.205 236.412 122.308C234.936 119.356 234.198 115.994 234.198 112.222C234.198 108.395 234.936 105.033 236.412 102.136C237.888 99.184 239.91 96.888 242.48 95.248C245.104 93.5534 248.11 92.706 251.5 92.706C254.889 92.706 257.868 93.5534 260.438 95.248C263.062 96.888 265.112 99.184 266.588 102.136C268.064 105.033 268.802 108.395 268.802 112.222C268.802 115.994 268.064 119.356 266.588 122.308C265.112 125.205 263.062 127.501 260.438 129.196C257.868 130.836 254.889 131.656 251.5 131.656ZM251.5 126.736C253.686 126.736 255.6 126.107 257.24 124.85C258.88 123.593 260.164 121.871 261.094 119.684C262.078 117.497 262.57 114.983 262.57 112.14C262.57 109.297 262.078 106.783 261.094 104.596C260.164 102.409 258.88 100.715 257.24 99.512C255.6 98.2547 253.686 97.626 251.5 97.626C249.368 97.626 247.454 98.2547 245.76 99.512C244.12 100.715 242.808 102.409 241.824 104.596C240.894 106.783 240.43 109.297 240.43 112.14C240.43 114.983 240.894 117.497 241.824 119.684C242.808 121.871 244.12 123.593 245.76 124.85C247.454 126.107 249.368 126.736 251.5 126.736Z" fill="white"/>
<path d="M277.904 131V93.526H283.644V100.168C284.628 98.6374 285.776 97.3254 287.088 96.232C288.4 95.084 289.848 94.2094 291.434 93.608C293.019 92.952 294.659 92.624 296.354 92.624C298.431 92.624 300.29 93.1434 301.93 94.182C303.57 95.2207 304.882 96.888 305.866 99.184C306.85 101.48 307.342 104.514 307.342 108.286V131H301.602V108.45C301.602 105.826 301.301 103.749 300.7 102.218C300.098 100.633 299.278 99.512 298.24 98.856C297.201 98.1454 296.026 97.79 294.714 97.79C293.456 97.79 292.172 98.0634 290.86 98.61C289.602 99.1567 288.427 99.9494 287.334 100.988C286.24 101.972 285.338 103.175 284.628 104.596C283.972 106.017 283.644 107.63 283.644 109.434V131H277.904Z" fill="white"/>
<path d="M321.856 131.082L314.312 93.526H319.478L325.546 123.62L331.942 97.052H335.55L343.504 123.538C344.214 118.673 344.788 114.682 345.226 111.566C345.718 108.45 346.073 105.908 346.292 103.94C346.565 101.917 346.729 100.223 346.784 98.856C346.893 97.4894 346.948 96.1227 346.948 94.756V93.526H352.442C351.895 97.7354 351.294 101.945 350.638 106.154C350.036 110.309 349.353 114.463 348.588 118.618C347.877 122.773 347.084 126.927 346.21 131.082H340.634L333.746 106.81L327.186 131.082H321.856Z" fill="white"/>
<path d="M371.302 131.902C367.038 131.902 363.758 130.945 361.462 129.032C359.166 127.064 358.018 124.577 358.018 121.57C358.018 119.547 358.51 117.743 359.494 116.158C360.478 114.518 361.817 113.151 363.512 112.058C365.261 110.91 367.284 110.035 369.58 109.434C371.876 108.833 374.308 108.532 376.878 108.532C377.807 108.532 378.736 108.559 379.666 108.614C380.65 108.614 381.661 108.669 382.7 108.778C383.793 108.833 384.914 108.942 386.062 109.106L386.226 113.616C385.242 113.452 384.23 113.343 383.192 113.288C382.208 113.179 381.224 113.097 380.24 113.042C379.256 112.987 378.299 112.96 377.37 112.96C375.402 112.96 373.598 113.124 371.958 113.452C370.318 113.78 368.896 114.272 367.694 114.928C366.491 115.584 365.562 116.431 364.906 117.47C364.25 118.509 363.922 119.766 363.922 121.242C363.922 122.39 364.113 123.374 364.496 124.194C364.933 124.959 365.507 125.588 366.218 126.08C366.928 126.517 367.748 126.845 368.678 127.064C369.662 127.283 370.728 127.392 371.876 127.392C374.008 127.392 375.894 127.064 377.534 126.408C379.228 125.697 380.65 124.686 381.798 123.374C383 122.062 383.902 120.449 384.504 118.536C385.105 116.623 385.406 114.436 385.406 111.976C385.406 108.259 384.968 105.361 384.094 103.284C383.219 101.207 381.907 99.7307 380.158 98.856C378.463 97.9814 376.276 97.544 373.598 97.544C371.794 97.544 370.017 97.8994 368.268 98.61C366.518 99.266 364.933 100.305 363.512 101.726L360.642 97.954C362.391 96.2047 364.414 94.8927 366.71 94.018C369.006 93.1434 371.438 92.706 374.008 92.706C376.468 92.706 378.709 93.0067 380.732 93.608C382.754 94.2094 384.476 95.2207 385.898 96.642C387.374 98.0087 388.494 99.8674 389.26 102.218C390.08 104.569 390.49 107.521 390.49 111.074V131H384.094V125.26C383.383 126.627 382.508 127.747 381.47 128.622C380.486 129.497 379.42 130.18 378.272 130.672C377.124 131.109 375.948 131.41 374.746 131.574C373.543 131.793 372.395 131.902 371.302 131.902Z" fill="white"/>
<path d="M404.758 93.526H410.908L410.662 104.432L409.924 103.202C410.252 101.507 410.826 100.004 411.646 98.692C412.466 97.38 413.45 96.2867 414.598 95.412C415.746 94.4827 417.003 93.7994 418.37 93.362C419.736 92.87 421.158 92.624 422.634 92.624C424.602 92.624 426.406 92.9794 428.046 93.69C429.74 94.346 431.244 95.3574 432.556 96.724L429.932 101.316L429.604 102.054L429.03 101.726C428.92 101.289 428.756 100.879 428.538 100.496C428.319 100.113 427.854 99.6487 427.144 99.102C426.269 98.5554 425.449 98.2 424.684 98.036C423.973 97.8174 423.153 97.708 422.224 97.708C420.857 97.708 419.49 97.9814 418.124 98.528C416.757 99.02 415.5 99.8127 414.352 100.906C413.258 101.999 412.384 103.393 411.728 105.088C411.072 106.783 410.744 108.805 410.744 111.156V131.082H404.758V93.526Z" fill="white"/>
<path d="M458.304 131.82C455.57 131.82 453.083 131.41 450.842 130.59C448.6 129.715 446.66 128.458 445.02 126.818C443.434 125.178 442.204 123.155 441.33 120.75C440.455 118.29 440.018 115.502 440.018 112.386C440.018 109.215 440.455 106.4 441.33 103.94C442.259 101.48 443.489 99.43 445.02 97.79C446.605 96.0954 448.436 94.8107 450.514 93.936C452.646 93.0614 454.887 92.624 457.238 92.624C459.37 92.624 461.365 92.9794 463.224 93.69C465.082 94.4007 466.695 95.494 468.062 96.97C469.428 98.3914 470.494 100.223 471.26 102.464C472.08 104.705 472.49 107.357 472.49 110.418C472.49 110.855 472.462 111.32 472.408 111.812C472.408 112.249 472.38 112.687 472.326 113.124H445.676C445.785 115.529 446.195 117.634 446.906 119.438C447.616 121.187 448.546 122.636 449.694 123.784C450.842 124.877 452.154 125.697 453.63 126.244C455.16 126.791 456.773 127.064 458.468 127.064C459.78 127.064 461.01 126.927 462.158 126.654C463.306 126.326 464.372 125.861 465.356 125.26C466.394 124.604 467.324 123.811 468.144 122.882L471.424 126.08C470.385 127.337 469.182 128.403 467.816 129.278C466.504 130.153 465.055 130.781 463.47 131.164C461.884 131.601 460.162 131.82 458.304 131.82ZM445.922 108.532H466.504C466.504 106.783 466.258 105.225 465.766 103.858C465.328 102.437 464.672 101.234 463.798 100.25C462.978 99.2114 461.966 98.446 460.764 97.954C459.616 97.4074 458.304 97.134 456.828 97.134C455.516 97.134 454.258 97.3527 453.056 97.79C451.908 98.2274 450.842 98.938 449.858 99.922C448.874 100.851 448.026 102.027 447.316 103.448C446.66 104.869 446.195 106.564 445.922 108.532Z" fill="white"/>
</svg>
