<svg width="544" height="217" viewBox="0 0 544 217" fill="none" xmlns="http://www.w3.org/2000/svg">
<path d="M88 75.1219H94.2161V67.6822H88V75.1219ZM88.1751 129.213H94.1286V85.1873H88.1751V129.213Z" fill="#D9D9D9"/>
<path d="M113.777 129.213H119.73V108.119C119.73 106.018 119.906 104.005 120.431 102.167C122.445 94.9027 128.923 89.7387 136.453 89.7387C144.945 89.7387 145.996 95.8655 145.996 102.78V129.213H151.949V101.205C151.949 90.3514 148.097 84.1371 137.241 84.1371C126.822 84.1371 121.219 91.2266 119.643 95.2528H119.468C119.468 95.2528 119.643 93.6773 119.643 91.7518V85.1874H113.777V129.213Z" fill="#D9D9D9"/>
<path d="M208.966 106.981C208.966 120.285 219.385 130.263 232.255 130.263C245.125 130.263 255.544 120.285 255.544 106.981C255.544 93.9399 245.125 84.1371 232.255 84.1371C219.385 84.1371 208.966 93.9399 208.966 106.981ZM215.095 106.981C215.095 97.0033 222.799 89.5637 232.255 89.5637C241.711 89.5637 249.415 97.0033 249.415 106.981C249.415 117.222 241.711 124.924 232.255 124.924C222.799 124.924 215.095 117.222 215.095 106.981Z" fill="#D9D9D9"/>
<path d="M271.922 129.213H277.875V110.657C277.875 107.856 278.226 104.881 279.101 102.08C281.027 95.6028 285.667 90.7014 291.883 90.7014C293.022 90.7014 294.072 90.8764 294.072 90.8764V85.0122C294.072 85.0122 292.934 84.7497 291.708 84.7497C284.792 84.7497 279.889 89.8261 277.788 96.4781H277.613C277.613 96.4781 277.788 94.9026 277.788 92.977V85.1873H271.922V129.213Z" fill="#D9D9D9"/>
<path d="M308.382 129.213H314.336V108.382C314.336 106.369 314.511 104.355 314.948 102.517C316.787 95.778 322.215 89.5637 329.394 89.5637C337.712 89.5637 338.675 96.0405 338.675 102.693V129.213H344.628V108.382C344.628 106.018 344.803 103.918 345.416 101.992C347.08 95.5154 352.595 89.5637 359.337 89.5637C367.392 89.5637 368.88 95.5154 368.88 102.693V129.213H374.833V101.205C374.833 90.3514 370.894 84.1371 360.212 84.1371C352.771 84.1371 346.379 89.2136 344.015 95.1653H343.84C342.527 87.9007 338.325 84.1371 330.182 84.1371C323.353 84.1371 316.349 89.3011 314.248 95.2528H314.073C314.073 95.2528 314.248 93.6773 314.248 91.7518V85.1874H308.382V129.213Z" fill="#D9D9D9"/>
<path d="M390.244 117.222C390.244 125.974 397.861 130.263 405.215 130.263C416.246 130.263 419.924 120.723 419.924 120.723H420.099C420.099 120.723 419.924 122.211 419.924 124.399V129.213H425.614V101.03C425.614 90.0013 419.748 84.1371 409.155 84.1371C399.262 84.1371 393.483 89.126 393.483 89.126L396.285 93.6773C396.285 93.6773 401.45 89.4761 408.717 89.4761C415.021 89.4761 419.661 92.3645 419.661 100.854V101.992H417.209C409.593 101.992 390.244 102.342 390.244 117.222ZM396.372 116.872C396.372 107.156 410.205 106.894 417.122 106.894H419.661V108.819C419.661 116.434 414.583 125.187 406.178 125.187C399.612 125.187 396.372 120.985 396.372 116.872Z" fill="#D9D9D9"/>
<path d="M444.134 118.797C444.134 128.425 450.613 129.563 454.29 129.563C455.428 129.563 456.479 129.388 456.479 129.388V124.049C456.479 124.049 455.778 124.136 454.991 124.136C452.714 124.136 450.088 123.261 450.088 117.484V67.6822H444.134V118.797Z" fill="#D9D9D9"/>
<path d="M201.664 44.424C206.004 42.121 210.109 41 213.992 41C217.92 41 221.049 41.915 223.461 43.6619L223.482 43.676C225.863 45.3184 226.973 47.368 226.973 49.8847C226.973 52.045 226.396 53.8619 225.272 55.3863L225.251 55.4176C224.206 56.9443 223.094 57.5404 221.912 57.5404C221.194 57.5404 220.737 57.2791 220.394 56.7188C219.881 55.773 219.131 54.1022 218.139 51.6675C217.29 49.4981 216.221 47.7588 214.895 46.523C213.585 45.1211 211.887 44.4312 209.895 44.4312C206.507 44.4312 203.704 46.3132 201.479 49.699L201.467 49.7176C199.384 53.033 197.347 58.1564 195.337 65.0109C194.24 68.7581 193.368 72.2401 192.724 75.4556C192.544 76.1778 192.406 76.7647 192.312 77.2112C192.226 77.6184 192.152 78.0176 192.152 78.2879V78.561C192.152 79.3077 192.403 80.0358 193.044 80.5398C193.636 81.0046 194.398 81.1469 195.148 81.1469C196.815 81.1469 199.2 81.0547 202.291 80.8731L208.817 80.7399L208.868 80.8416L208.993 80.966C208.997 80.9701 209.017 80.9902 209.038 81.0544C209.061 81.124 209.085 81.2426 209.085 81.4286C209.085 81.7868 208.821 82.5426 207.921 83.8029L207.906 83.8245L207.891 83.8468C207.515 84.4327 207.187 84.8095 206.919 85.0301C206.654 85.2486 206.514 85.2605 206.482 85.2605L194.998 85.5339C193.469 85.5353 192.139 85.7691 191.159 86.3814L191.131 86.3991L191.104 86.4186C190.209 87.0581 189.644 88.0306 189.326 89.1892C183.579 108.695 182.351 114.729 178.557 133.374C178.378 134.256 178.193 135.166 178.001 136.107L177.996 136.132L177.992 136.157C177.479 139.468 176.041 143.456 174.386 147.23C172.738 150.987 170.907 154.462 169.651 156.731C167.16 161.233 164.498 164.835 161.675 167.563L161.662 167.576C158.899 170.338 156.219 172.35 153.626 173.646C151.468 174.724 149.754 175.473 148.465 175.914L147.888 174.505C148.972 173.828 150.173 172.857 151.485 171.623C153.234 170.078 154.897 168 156.485 165.422C158.189 162.814 159.726 159.634 161.104 155.897C162.57 152.279 165.559 143.676 166.363 138.691L176.942 89.7651C177.069 89.3514 177.114 88.8802 177.114 88.3929C177.114 87.622 176.799 86.9202 176.119 86.467C175.517 86.0655 174.751 85.9434 173.982 85.9434L165.78 86.0801C165.219 86.0791 164.954 85.9735 164.838 85.8973C164.769 85.7631 164.688 85.4892 164.688 84.979C164.688 84.378 164.923 83.7006 165.539 82.9296C166.202 82.1211 166.896 81.7575 167.635 81.6909L176.519 81.2809L176.548 81.278C178.132 81.1196 178.988 79.8258 179.396 78.3037L180.484 74.4952C182.824 66.667 185.869 60.2849 189.595 55.3162C193.442 50.2168 197.468 46.6094 201.657 44.4279L201.664 44.424Z" fill="#D9D9D9"/>
</svg>
