<svg width="544" height="217" viewBox="0 0 544 217" fill="none" xmlns="http://www.w3.org/2000/svg">
<path d="M152.104 111.34C155.012 110.47 158.136 111.706 159.67 114.335L176.631 143.398C178.775 147.073 176.136 151.697 171.894 151.697H84.4994C80.0424 151.697 77.4431 146.646 80.0217 142.996L87.7349 132.078C88.5864 130.872 89.8154 129.988 91.2258 129.566L152.104 111.34Z" fill="white"/>
<path opacity="0.75" d="M120.704 70.3543C121.957 68.1139 125.312 68.6608 125.794 71.184L132.955 108.671C133.325 110.606 132.183 112.51 130.306 113.087L96.4243 123.496C94.0568 124.224 92.0158 121.68 93.2275 119.512L120.704 70.3543Z" fill="white"/>
<path opacity="0.5" d="M129.362 67.9738C129.01 66.1435 131.474 65.2184 132.404 66.8314L153.92 104.129C154.46 105.066 153.974 106.262 152.936 106.551L140.472 110.028C138.928 110.458 137.346 109.475 137.042 107.895L129.362 67.9738Z" fill="white"/>
<mask id="path-4-outside-1_1600_175" maskUnits="userSpaceOnUse" x="214.234" y="76.1978" width="252" height="65" fill="black">
<rect fill="white" x="214.234" y="76.1978" width="252" height="65"/>
<path d="M215.234 77.1978H222.127V84.009H215.234V77.1978ZM215.234 133.218V101.096V94.8433H222.041V133.218V139.471H215.234V133.218Z"/>
<path d="M258.824 140.499C255.172 140.499 252.432 140.014 250.606 139.043C248.78 138.072 247.553 136.587 246.925 134.589C246.297 132.59 245.983 129.763 245.983 126.108V101.182H234.427V94.8433H246.326L246.925 81.9592H253.602L253.003 94.8433H268.669V101.182H253.003V125.766C253.003 127.765 253.203 129.335 253.602 130.477C254.059 131.619 254.886 132.504 256.085 133.132C257.34 133.703 259.195 133.989 261.649 133.989C263.818 133.989 270.552 133.989 270.552 133.989V140.499C270.552 140.499 261.621 140.499 258.824 140.499Z"/>
<path d="M284.387 77.1978H291.578V101.439H292.177C293.489 98.4695 295.059 96.4708 296.885 95.4429C298.768 94.3579 301.65 93.8154 305.531 93.8154C309.355 93.8154 312.294 94.3293 314.349 95.3572C316.403 96.3851 317.858 98.0983 318.714 100.497C319.628 102.895 320.084 106.35 320.084 110.861V139.557H312.979V110.69C312.979 107.949 312.665 105.836 312.037 104.351C311.467 102.867 310.496 101.81 309.127 101.182C307.757 100.554 305.817 100.24 303.305 100.24C300.224 100.24 297.855 100.725 296.2 101.696C294.545 102.667 293.347 104.294 292.605 106.578C291.92 108.863 291.578 112.118 291.578 116.343V139.557H284.387V77.1978Z"/>
<path d="M346.674 140.413C343.021 140.413 340.196 140.014 338.199 139.214C336.259 138.415 334.86 137.073 334.004 135.188C333.205 133.304 332.806 130.62 332.806 127.136C332.806 123.025 333.405 119.855 334.604 117.628C335.802 115.344 337.799 113.745 340.596 112.831C343.449 111.861 347.473 111.375 352.666 111.375H360.713V109.234C360.713 106.835 360.399 104.979 359.772 103.666C359.201 102.353 358.174 101.41 356.69 100.839C355.263 100.268 353.208 99.9828 350.526 99.9828C347.045 99.9828 344.676 100.44 343.421 101.353C342.165 102.21 341.481 103.894 341.366 106.407H334.176C334.176 103.095 334.661 100.554 335.631 98.7836C336.601 96.9562 338.256 95.6713 340.596 94.929C342.936 94.1295 346.246 93.7297 350.526 93.7297C354.978 93.7297 358.402 94.1866 360.799 95.1003C363.253 96.014 364.965 97.5844 365.935 99.8115C366.962 102.039 367.476 105.179 367.476 109.234V139.557H360.97V133.818H360.371C358.887 136.33 357.175 138.072 355.234 139.043C353.351 139.957 350.498 140.413 346.674 140.413ZM348.472 133.989C351.668 133.989 354.122 133.504 355.834 132.533C357.546 131.505 358.773 129.82 359.515 127.479C360.257 125.138 360.628 121.797 360.628 117.457L350.954 117.543C348.101 117.6 345.875 117.914 344.277 118.485C342.736 118.999 341.623 119.884 340.938 121.14C340.311 122.34 339.997 124.081 339.997 126.365C339.997 129.335 340.596 131.362 341.794 132.447C342.993 133.475 345.219 133.989 348.472 133.989Z"/>
<path d="M401.171 140.413C396.092 140.413 392.154 139.728 389.357 138.358C386.618 136.93 384.649 134.589 383.451 131.334C382.309 128.021 381.739 123.31 381.739 117.2C381.739 111.033 382.309 106.293 383.451 102.981C384.649 99.6116 386.618 97.2417 389.357 95.8712C392.097 94.4436 395.978 93.7297 401 93.7297C405.223 93.7297 408.505 94.158 410.844 95.0146C413.184 95.8712 414.896 97.3274 415.981 99.3832C417.065 101.382 417.721 104.237 417.95 107.949H410.844C410.274 104.979 409.332 102.952 408.019 101.867C406.707 100.782 404.538 100.24 401.513 100.24C398.203 100.24 395.664 100.754 393.895 101.782C392.125 102.809 390.841 104.551 390.042 107.007C389.3 109.405 388.929 112.86 388.929 117.371C388.929 121.711 389.3 125.052 390.042 127.393C390.841 129.735 392.125 131.419 393.895 132.447C395.721 133.418 398.289 133.903 401.599 133.903C404.567 133.903 406.678 133.446 407.934 132.533C409.246 131.562 410.217 129.763 410.844 127.136H417.95C417.721 130.62 417.065 133.304 415.981 135.188C414.896 137.073 413.184 138.415 410.844 139.214C408.562 140.014 405.337 140.413 401.171 140.413Z"/>
<path d="M444.197 140.413C440.545 140.413 437.72 140.014 435.722 139.214C433.782 138.415 432.383 137.073 431.527 135.188C430.728 133.304 430.329 130.62 430.329 127.136C430.329 123.025 430.928 119.855 432.127 117.628C433.325 115.344 435.323 113.745 438.119 112.831C440.973 111.861 444.996 111.375 450.189 111.375H458.236V109.234C458.236 106.835 457.922 104.979 457.295 103.666C456.724 102.353 455.697 101.41 454.213 100.839C452.786 100.268 450.732 99.9828 448.049 99.9828C444.568 99.9828 442.2 100.44 440.944 101.353C439.688 102.21 439.004 103.894 438.89 106.407H431.699C431.699 103.095 432.184 100.554 433.154 98.7836C434.124 96.9562 435.779 95.6713 438.119 94.929C440.459 94.1295 443.769 93.7297 448.049 93.7297C452.501 93.7297 455.925 94.1866 458.322 95.1003C460.776 96.014 462.488 97.5844 463.458 99.8115C464.485 102.039 464.999 105.179 464.999 109.234V139.557H458.493V133.818H457.894C456.41 136.33 454.698 138.072 452.758 139.043C450.874 139.957 448.021 140.413 444.197 140.413ZM445.995 133.989C449.191 133.989 451.645 133.504 453.357 132.533C455.069 131.505 456.296 129.82 457.038 127.479C457.78 125.138 458.151 121.797 458.151 117.457L448.477 117.543C445.624 117.6 443.398 117.914 441.8 118.485C440.259 118.999 439.146 119.884 438.461 121.14C437.834 122.34 437.52 124.081 437.52 126.365C437.52 129.335 438.119 131.362 439.318 132.447C440.516 133.475 442.742 133.989 445.995 133.989Z"/>
</mask>
<path d="M215.234 77.1978H222.127V84.009H215.234V77.1978ZM215.234 133.218V101.096V94.8433H222.041V133.218V139.471H215.234V133.218Z" fill="white"/>
<path d="M258.824 140.499C255.172 140.499 252.432 140.014 250.606 139.043C248.78 138.072 247.553 136.587 246.925 134.589C246.297 132.59 245.983 129.763 245.983 126.108V101.182H234.427V94.8433H246.326L246.925 81.9592H253.602L253.003 94.8433H268.669V101.182H253.003V125.766C253.003 127.765 253.203 129.335 253.602 130.477C254.059 131.619 254.886 132.504 256.085 133.132C257.34 133.703 259.195 133.989 261.649 133.989C263.818 133.989 270.552 133.989 270.552 133.989V140.499C270.552 140.499 261.621 140.499 258.824 140.499Z" fill="white"/>
<path d="M284.387 77.1978H291.578V101.439H292.177C293.489 98.4695 295.059 96.4708 296.885 95.4429C298.768 94.3579 301.65 93.8154 305.531 93.8154C309.355 93.8154 312.294 94.3293 314.349 95.3572C316.403 96.3851 317.858 98.0983 318.714 100.497C319.628 102.895 320.084 106.35 320.084 110.861V139.557H312.979V110.69C312.979 107.949 312.665 105.836 312.037 104.351C311.467 102.867 310.496 101.81 309.127 101.182C307.757 100.554 305.817 100.24 303.305 100.24C300.224 100.24 297.855 100.725 296.2 101.696C294.545 102.667 293.347 104.294 292.605 106.578C291.92 108.863 291.578 112.118 291.578 116.343V139.557H284.387V77.1978Z" fill="white"/>
<path d="M346.674 140.413C343.021 140.413 340.196 140.014 338.199 139.214C336.259 138.415 334.86 137.073 334.004 135.188C333.205 133.304 332.806 130.62 332.806 127.136C332.806 123.025 333.405 119.855 334.604 117.628C335.802 115.344 337.799 113.745 340.596 112.831C343.449 111.861 347.473 111.375 352.666 111.375H360.713V109.234C360.713 106.835 360.399 104.979 359.772 103.666C359.201 102.353 358.174 101.41 356.69 100.839C355.263 100.268 353.208 99.9828 350.526 99.9828C347.045 99.9828 344.676 100.44 343.421 101.353C342.165 102.21 341.481 103.894 341.366 106.407H334.176C334.176 103.095 334.661 100.554 335.631 98.7836C336.601 96.9562 338.256 95.6713 340.596 94.929C342.936 94.1295 346.246 93.7297 350.526 93.7297C354.978 93.7297 358.402 94.1866 360.799 95.1003C363.253 96.014 364.965 97.5844 365.935 99.8115C366.962 102.039 367.476 105.179 367.476 109.234V139.557H360.97V133.818H360.371C358.887 136.33 357.175 138.072 355.234 139.043C353.351 139.957 350.498 140.413 346.674 140.413ZM348.472 133.989C351.668 133.989 354.122 133.504 355.834 132.533C357.546 131.505 358.773 129.82 359.515 127.479C360.257 125.138 360.628 121.797 360.628 117.457L350.954 117.543C348.101 117.6 345.875 117.914 344.277 118.485C342.736 118.999 341.623 119.884 340.938 121.14C340.311 122.34 339.997 124.081 339.997 126.365C339.997 129.335 340.596 131.362 341.794 132.447C342.993 133.475 345.219 133.989 348.472 133.989Z" fill="white"/>
<path d="M401.171 140.413C396.092 140.413 392.154 139.728 389.357 138.358C386.618 136.93 384.649 134.589 383.451 131.334C382.309 128.021 381.739 123.31 381.739 117.2C381.739 111.033 382.309 106.293 383.451 102.981C384.649 99.6116 386.618 97.2417 389.357 95.8712C392.097 94.4436 395.978 93.7297 401 93.7297C405.223 93.7297 408.505 94.158 410.844 95.0146C413.184 95.8712 414.896 97.3274 415.981 99.3832C417.065 101.382 417.721 104.237 417.95 107.949H410.844C410.274 104.979 409.332 102.952 408.019 101.867C406.707 100.782 404.538 100.24 401.513 100.24C398.203 100.24 395.664 100.754 393.895 101.782C392.125 102.809 390.841 104.551 390.042 107.007C389.3 109.405 388.929 112.86 388.929 117.371C388.929 121.711 389.3 125.052 390.042 127.393C390.841 129.735 392.125 131.419 393.895 132.447C395.721 133.418 398.289 133.903 401.599 133.903C404.567 133.903 406.678 133.446 407.934 132.533C409.246 131.562 410.217 129.763 410.844 127.136H417.95C417.721 130.62 417.065 133.304 415.981 135.188C414.896 137.073 413.184 138.415 410.844 139.214C408.562 140.014 405.337 140.413 401.171 140.413Z" fill="white"/>
<path d="M444.197 140.413C440.545 140.413 437.72 140.014 435.722 139.214C433.782 138.415 432.383 137.073 431.527 135.188C430.728 133.304 430.329 130.62 430.329 127.136C430.329 123.025 430.928 119.855 432.127 117.628C433.325 115.344 435.323 113.745 438.119 112.831C440.973 111.861 444.996 111.375 450.189 111.375H458.236V109.234C458.236 106.835 457.922 104.979 457.295 103.666C456.724 102.353 455.697 101.41 454.213 100.839C452.786 100.268 450.732 99.9828 448.049 99.9828C444.568 99.9828 442.2 100.44 440.944 101.353C439.688 102.21 439.004 103.894 438.89 106.407H431.699C431.699 103.095 432.184 100.554 433.154 98.7836C434.124 96.9562 435.779 95.6713 438.119 94.929C440.459 94.1295 443.769 93.7297 448.049 93.7297C452.501 93.7297 455.925 94.1866 458.322 95.1003C460.776 96.014 462.488 97.5844 463.458 99.8115C464.485 102.039 464.999 105.179 464.999 109.234V139.557H458.493V133.818H457.894C456.41 136.33 454.698 138.072 452.758 139.043C450.874 139.957 448.021 140.413 444.197 140.413ZM445.995 133.989C449.191 133.989 451.645 133.504 453.357 132.533C455.069 131.505 456.296 129.82 457.038 127.479C457.78 125.138 458.151 121.797 458.151 117.457L448.477 117.543C445.624 117.6 443.398 117.914 441.8 118.485C440.259 118.999 439.146 119.884 438.461 121.14C437.834 122.34 437.52 124.081 437.52 126.365C437.52 129.335 438.119 131.362 439.318 132.447C440.516 133.475 442.742 133.989 445.995 133.989Z" fill="white"/>
<path d="M215.234 77.1978H222.127V84.009H215.234V77.1978ZM215.234 133.218V101.096V94.8433H222.041V133.218V139.471H215.234V133.218Z" stroke="white" stroke-width="0.8" mask="url(#path-4-outside-1_1600_175)"/>
<path d="M258.824 140.499C255.172 140.499 252.432 140.014 250.606 139.043C248.78 138.072 247.553 136.587 246.925 134.589C246.297 132.59 245.983 129.763 245.983 126.108V101.182H234.427V94.8433H246.326L246.925 81.9592H253.602L253.003 94.8433H268.669V101.182H253.003V125.766C253.003 127.765 253.203 129.335 253.602 130.477C254.059 131.619 254.886 132.504 256.085 133.132C257.34 133.703 259.195 133.989 261.649 133.989C263.818 133.989 270.552 133.989 270.552 133.989V140.499C270.552 140.499 261.621 140.499 258.824 140.499Z" stroke="white" stroke-width="0.8" mask="url(#path-4-outside-1_1600_175)"/>
<path d="M284.387 77.1978H291.578V101.439H292.177C293.489 98.4695 295.059 96.4708 296.885 95.4429C298.768 94.3579 301.65 93.8154 305.531 93.8154C309.355 93.8154 312.294 94.3293 314.349 95.3572C316.403 96.3851 317.858 98.0983 318.714 100.497C319.628 102.895 320.084 106.35 320.084 110.861V139.557H312.979V110.69C312.979 107.949 312.665 105.836 312.037 104.351C311.467 102.867 310.496 101.81 309.127 101.182C307.757 100.554 305.817 100.24 303.305 100.24C300.224 100.24 297.855 100.725 296.2 101.696C294.545 102.667 293.347 104.294 292.605 106.578C291.92 108.863 291.578 112.118 291.578 116.343V139.557H284.387V77.1978Z" stroke="white" stroke-width="0.8" mask="url(#path-4-outside-1_1600_175)"/>
<path d="M346.674 140.413C343.021 140.413 340.196 140.014 338.199 139.214C336.259 138.415 334.86 137.073 334.004 135.188C333.205 133.304 332.806 130.62 332.806 127.136C332.806 123.025 333.405 119.855 334.604 117.628C335.802 115.344 337.799 113.745 340.596 112.831C343.449 111.861 347.473 111.375 352.666 111.375H360.713V109.234C360.713 106.835 360.399 104.979 359.772 103.666C359.201 102.353 358.174 101.41 356.69 100.839C355.263 100.268 353.208 99.9828 350.526 99.9828C347.045 99.9828 344.676 100.44 343.421 101.353C342.165 102.21 341.481 103.894 341.366 106.407H334.176C334.176 103.095 334.661 100.554 335.631 98.7836C336.601 96.9562 338.256 95.6713 340.596 94.929C342.936 94.1295 346.246 93.7297 350.526 93.7297C354.978 93.7297 358.402 94.1866 360.799 95.1003C363.253 96.014 364.965 97.5844 365.935 99.8115C366.962 102.039 367.476 105.179 367.476 109.234V139.557H360.97V133.818H360.371C358.887 136.33 357.175 138.072 355.234 139.043C353.351 139.957 350.498 140.413 346.674 140.413ZM348.472 133.989C351.668 133.989 354.122 133.504 355.834 132.533C357.546 131.505 358.773 129.82 359.515 127.479C360.257 125.138 360.628 121.797 360.628 117.457L350.954 117.543C348.101 117.6 345.875 117.914 344.277 118.485C342.736 118.999 341.623 119.884 340.938 121.14C340.311 122.34 339.997 124.081 339.997 126.365C339.997 129.335 340.596 131.362 341.794 132.447C342.993 133.475 345.219 133.989 348.472 133.989Z" stroke="white" stroke-width="0.8" mask="url(#path-4-outside-1_1600_175)"/>
<path d="M401.171 140.413C396.092 140.413 392.154 139.728 389.357 138.358C386.618 136.93 384.649 134.589 383.451 131.334C382.309 128.021 381.739 123.31 381.739 117.2C381.739 111.033 382.309 106.293 383.451 102.981C384.649 99.6116 386.618 97.2417 389.357 95.8712C392.097 94.4436 395.978 93.7297 401 93.7297C405.223 93.7297 408.505 94.158 410.844 95.0146C413.184 95.8712 414.896 97.3274 415.981 99.3832C417.065 101.382 417.721 104.237 417.95 107.949H410.844C410.274 104.979 409.332 102.952 408.019 101.867C406.707 100.782 404.538 100.24 401.513 100.24C398.203 100.24 395.664 100.754 393.895 101.782C392.125 102.809 390.841 104.551 390.042 107.007C389.3 109.405 388.929 112.86 388.929 117.371C388.929 121.711 389.3 125.052 390.042 127.393C390.841 129.735 392.125 131.419 393.895 132.447C395.721 133.418 398.289 133.903 401.599 133.903C404.567 133.903 406.678 133.446 407.934 132.533C409.246 131.562 410.217 129.763 410.844 127.136H417.95C417.721 130.62 417.065 133.304 415.981 135.188C414.896 137.073 413.184 138.415 410.844 139.214C408.562 140.014 405.337 140.413 401.171 140.413Z" stroke="white" stroke-width="0.8" mask="url(#path-4-outside-1_1600_175)"/>
<path d="M444.197 140.413C440.545 140.413 437.72 140.014 435.722 139.214C433.782 138.415 432.383 137.073 431.527 135.188C430.728 133.304 430.329 130.62 430.329 127.136C430.329 123.025 430.928 119.855 432.127 117.628C433.325 115.344 435.323 113.745 438.119 112.831C440.973 111.861 444.996 111.375 450.189 111.375H458.236V109.234C458.236 106.835 457.922 104.979 457.295 103.666C456.724 102.353 455.697 101.41 454.213 100.839C452.786 100.268 450.732 99.9828 448.049 99.9828C444.568 99.9828 442.2 100.44 440.944 101.353C439.688 102.21 439.004 103.894 438.89 106.407H431.699C431.699 103.095 432.184 100.554 433.154 98.7836C434.124 96.9562 435.779 95.6713 438.119 94.929C440.459 94.1295 443.769 93.7297 448.049 93.7297C452.501 93.7297 455.925 94.1866 458.322 95.1003C460.776 96.014 462.488 97.5844 463.458 99.8115C464.485 102.039 464.999 105.179 464.999 109.234V139.557H458.493V133.818H457.894C456.41 136.33 454.698 138.072 452.758 139.043C450.874 139.957 448.021 140.413 444.197 140.413ZM445.995 133.989C449.191 133.989 451.645 133.504 453.357 132.533C455.069 131.505 456.296 129.82 457.038 127.479C457.78 125.138 458.151 121.797 458.151 117.457L448.477 117.543C445.624 117.6 443.398 117.914 441.8 118.485C440.259 118.999 439.146 119.884 438.461 121.14C437.834 122.34 437.52 124.081 437.52 126.365C437.52 129.335 438.119 131.362 439.318 132.447C440.516 133.475 442.742 133.989 445.995 133.989Z" stroke="white" stroke-width="0.8" mask="url(#path-4-outside-1_1600_175)"/>
</svg>
