<svg width="544" height="217" viewBox="0 0 544 217" fill="none" xmlns="http://www.w3.org/2000/svg">
<path d="M150.789 90.9236L100.457 62L94.1658 65.6181V72.8472L87.8743 69.2292L81.5829 72.8472V80.0764L75.2915 76.4583L69 80.0764V137.924L75.2915 141.542L81.5829 137.924V145.153L87.8743 148.771L94.1658 145.153V152.382L100.457 156L150.789 127.076V119.847L144.497 116.229L150.789 112.611V105.382L144.497 101.764L150.789 98.1458V90.9236ZM81.5829 130.694L75.2915 134.312V83.6944L81.5829 87.3125V130.694ZM100.457 134.306V127.076L125.623 112.618L131.914 116.236L100.457 134.306ZM119.332 109L100.457 119.847V98.1528L119.332 109ZM125.623 105.382L100.457 90.9236V83.6944L131.914 101.771L125.623 105.382ZM87.8743 76.4583L94.1658 80.0764V87.3056L87.8743 83.6875V76.4583ZM87.8743 90.9236L94.1658 94.5417V123.465L87.8743 127.083V90.9236ZM87.8743 134.306L94.1658 130.687V137.917L87.8743 141.535V134.306ZM144.497 123.458L100.457 148.764V141.535L138.206 119.84L144.497 123.458ZM144.497 109L138.206 112.618L131.914 109L138.206 105.382L144.497 109ZM138.206 98.1528L100.457 76.4583V69.2292L144.497 94.5347L138.206 98.1528Z" fill="white"/>
<path d="M182.714 128.759C182.722 129.523 184.871 130.334 187.915 130.72L190.058 130.906L190.095 134.587L168.201 134.815L168.163 131.134L169.819 130.909C172.784 130.391 174.502 129.609 174.495 128.845L174.08 88.5608C174.072 87.7967 172.337 87.0505 169.363 86.5951L167.703 86.4041L167.665 82.7231L185.899 82.5331C199.021 82.3965 209.014 86.8769 209.12 97.1564C209.22 106.88 200.73 114.124 186.724 115.658L185.856 111.916C194.271 110.717 200.659 107.247 200.585 100.093C200.506 92.3836 195.338 86.8802 184.218 86.9962L182.284 87.0164L182.714 128.759Z" fill="white"/>
<path d="M211.297 124.302C211.297 116.383 217.651 114.786 223.661 113.813C226.838 113.257 228.91 112.354 230.498 110.618L230.567 107.284C230.636 101.866 228.289 99.7126 224.904 99.7126C221.796 99.7126 220.69 101.102 220.69 102.838C220.69 104.019 220.967 104.922 220.967 105.548C220.967 106.451 219.585 107.145 217.03 107.145C214.889 107.145 212.748 106.451 212.748 105.617C212.748 102.491 220.276 94.5728 227.736 94.5728C234.09 94.5728 238.027 97.1424 237.889 104.644L237.544 120.62C237.406 126.872 239.133 128.469 242.172 128.469C242.932 128.469 243.415 128.399 244.106 128.191L244.313 128.33C243.484 131.734 240.79 134.025 237.475 134.025C233.953 134.025 231.95 131.803 230.845 128.538C228.773 132.15 225.803 134.373 221.659 134.373C215.995 134.373 211.297 130.761 211.297 124.302ZM224.005 129.095C226.492 129.095 228.564 127.775 230.222 126.108L230.429 114.299C229.393 115.758 227.804 116.522 225.387 117.286C221.657 118.467 218.549 119.579 218.549 123.676C218.549 127.219 220.759 129.095 224.005 129.095Z" fill="white"/>
<path d="M252.326 104.783C252.326 104.089 251.774 103.533 247.008 101.31V98.81L256.678 94.6422H258.405L259.51 101.796C262.342 97.1423 264.828 94.7116 268.973 94.7116C271.183 94.7116 273.186 95.5452 273.186 96.3788C273.186 99.7825 270.906 104.367 269.87 104.367C269.663 104.367 269.525 104.297 269.041 104.019C267.383 103.047 265.795 102.422 264.137 102.422C262.686 102.422 261.167 103.255 259.785 104.505V127.357C259.785 128.121 261.581 128.886 264.966 129.372L267.107 129.65V132.984H247.146V129.65L248.389 129.372C251.359 128.747 252.326 128.121 252.326 127.357L252.326 104.783Z" fill="white"/>
<path d="M274.49 124.302C274.49 116.383 280.844 114.786 286.853 113.813C290.031 113.257 292.103 112.354 293.691 110.618L293.76 107.284C293.829 101.866 291.481 99.7126 288.097 99.7126C284.988 99.7126 283.883 101.102 283.883 102.838C283.883 104.019 284.16 104.922 284.16 105.548C284.16 106.451 282.778 107.145 280.223 107.145C278.082 107.145 275.941 106.451 275.941 105.617C275.941 102.491 283.469 94.5728 290.929 94.5728C297.283 94.5728 301.22 97.1424 301.082 104.644L300.737 120.62C300.599 126.872 302.326 128.469 305.365 128.469C306.125 128.469 306.608 128.399 307.299 128.191L307.506 128.33C306.677 131.734 303.983 134.025 300.668 134.025C297.146 134.025 295.143 131.803 294.038 128.538C291.966 132.15 288.996 134.373 284.851 134.373C279.188 134.373 274.49 130.761 274.49 124.302ZM287.198 129.095C289.685 129.095 291.757 127.775 293.415 126.108L293.622 114.299C292.586 115.758 290.997 116.522 288.58 117.286C284.85 118.467 281.742 119.579 281.742 123.676C281.742 127.219 283.952 129.095 287.198 129.095Z" fill="white"/>
<path d="M339.388 134.849H337.592L336.625 129.292C332.62 132.071 328.337 134.363 324.331 134.363C315.697 134.363 308.859 126.93 308.859 115.748C308.859 102.897 317.286 94.7013 327.508 94.7013C331.099 94.7013 333.724 95.3959 335.796 96.7157V84.9254C335.796 84.2307 335.175 83.675 330.34 81.0359V78.6047L341.53 74.7842H343.187V120.471C343.187 126.514 344.914 128.111 347.469 128.111C348.091 128.111 348.712 128.042 349.404 127.903L349.611 128.042V131.793L339.388 134.849ZM328.958 128.389C331.514 128.389 333.724 127.764 335.796 126.652V109.426C335.796 103.245 331.928 99.2159 326.541 99.2159C321.015 99.2159 316.663 103.245 316.663 111.997C316.663 122.555 321.43 128.389 328.958 128.389Z" fill="white"/>
<path d="M352.174 132.984V129.65L353.417 129.372C356.387 128.677 357.353 128.052 357.353 127.288V104.783C357.353 104.088 356.801 103.533 352.035 101.31V98.8097L363.156 94.6418H364.813V127.288C364.813 128.052 365.849 128.677 368.75 129.372L369.993 129.65V132.984H352.174ZM366.333 81.7921C366.333 85.0569 364.123 87.0708 360.877 87.0708C357.63 87.0708 355.42 85.0564 355.42 81.7921C355.42 78.5968 357.63 76.5829 360.877 76.5829C364.192 76.5829 366.333 78.5974 366.333 81.7921Z" fill="white"/>
<path d="M385.033 120.342C383.444 121.593 382.201 123.051 382.201 124.51C382.201 125.899 383.444 126.524 387.382 126.802L398.571 127.636C405.34 128.192 409.208 131.595 409.208 137.082C409.208 145.348 400.574 153.128 388.004 153.128C377.712 153.128 372.74 149.307 372.74 143.543C372.74 139.862 375.295 137.5 381.373 133.054C378.403 132.429 374.466 130.276 374.466 127.498C374.466 124.65 377.229 122.08 381.926 119.579C377.16 117.773 373.845 113.814 373.845 108.327C373.845 100.13 380.199 94.7123 389.04 94.7123C392.425 94.7123 395.394 95.7542 397.605 97.4908L409.001 97.7687V101.38L401.335 103.117C402.163 104.437 402.716 105.964 402.716 107.91C402.716 115.272 396.43 120.551 387.659 120.551C386.761 120.551 385.931 120.481 385.033 120.342ZM390.145 148.752C396.568 148.752 401.817 144.931 401.817 139.514C401.817 136.179 400.021 134.721 394.496 134.304L385.378 133.679C382.408 135.693 379.853 138.611 379.853 141.389C379.853 145.556 383.583 148.752 390.145 148.752ZM395.739 109.506C395.739 104.158 392.907 99.4347 387.52 99.4347C383.79 99.4347 381.166 102.005 381.166 106.172C381.166 111.451 383.859 116.244 389.316 116.244C393.183 116.244 395.739 113.674 395.739 109.506Z" fill="white"/>
<path d="M418.327 104.786C418.327 104.091 417.775 103.536 413.009 101.313V98.8128L422.679 94.645H424.405L425.234 100.063C429.655 97.2846 434.351 94.645 438.841 94.645C442.847 94.645 445.748 96.0342 447.199 100.34C451.826 97.493 456.73 94.645 461.427 94.645C467.298 94.645 470.821 97.7708 470.821 109.232V127.361C470.821 128.125 471.856 128.75 474.826 129.375L476 129.653V132.987H458.249V129.653L459.423 129.375C462.393 128.681 463.36 128.125 463.36 127.361V110.274C463.36 103.675 460.804 100.827 455.417 100.827C452.792 100.827 450.098 101.661 447.888 102.842C448.233 104.578 448.371 106.732 448.371 109.232V127.361C448.371 128.125 449.338 128.75 452.239 129.375L453.482 129.653V132.987H435.8V129.653L436.974 129.375C439.944 128.681 440.911 128.125 440.911 127.361V110.274C440.911 103.675 438.356 100.827 432.899 100.827C430.481 100.827 427.925 101.591 425.785 102.633V127.361C425.785 128.125 426.752 128.681 429.721 129.376L430.896 129.654V132.988H413.145V129.654L414.387 129.376C417.358 128.751 418.325 128.125 418.325 127.361L418.327 104.786Z" fill="white"/>
</svg>
