<svg width="544" height="217" viewBox="0 0 544 217" fill="none" xmlns="http://www.w3.org/2000/svg">
<g clip-path="url(#clip0_1600_189)">
<path fill-rule="evenodd" clip-rule="evenodd" d="M352.808 111.436H351.758L338.096 71.8184H322.094V73.4564L341.366 128.782H362.618L381.896 73.4564V71.8184H366.59L352.802 111.436H352.808Z" fill="white"/>
<path d="M317.834 71.8184H301.922V128.776H317.834V71.8184Z" fill="white"/>
<path fill-rule="evenodd" clip-rule="evenodd" d="M429.164 71.8122H429.176L415.388 111.442H414.338L400.676 71.8182H384.674V73.4682L405.608 133.576H385.784V146.77H405.158C413.432 146.77 419.876 143.98 423.002 135.076C423.422 133.888 444.47 73.4562 444.47 73.4562V71.8062H429.164V71.8122Z" fill="white"/>
<path fill-rule="evenodd" clip-rule="evenodd" d="M220.833 70.27C213.597 70.27 206.835 73.954 202.617 80.878H201.639V71.878H186.471V146.752H202.587V121.528H203.577C203.685 121.678 203.793 121.834 203.901 121.96C206.619 125.266 212.967 130.306 220.863 130.306C235.233 130.306 245.061 117.886 245.061 100.294C245.061 82.702 234.747 70.27 220.833 70.27ZM216.021 117.958C208.521 117.958 203.343 112.114 203.343 100.3C203.343 88.486 208.521 82.642 216.021 82.642C223.521 82.642 228.951 88.612 228.951 100.3C228.951 111.988 223.647 117.958 216.021 117.958Z" fill="white"/>
<path fill-rule="evenodd" clip-rule="evenodd" d="M285.032 71.812C277.562 71.812 272.768 73.06 269.966 80.878H269.006V71.818H245.936V84.898H251.084C252.782 84.898 253.616 85.498 253.832 86.89V97.762H253.892V128.782H270.008V98.566C270.008 90.742 272.132 85.948 279.956 85.948H296.84V71.812H285.038H285.032Z" fill="white"/>
<path d="M129.529 130.288C146.095 130.288 159.529 116.854 159.529 100.288C159.529 83.7221 146.095 70.2881 129.529 70.2881C112.963 70.2881 99.5293 83.7221 99.5293 100.288C99.5293 116.854 112.963 130.288 129.529 130.288Z" fill="white"/>
<path d="M129.529 147.73C140.851 147.73 150.031 145.798 150.031 143.428C150.031 141.058 140.857 139.126 129.529 139.126C118.201 139.126 109.027 141.058 109.027 143.428C109.027 145.798 118.201 147.73 129.529 147.73Z" fill="white"/>
</g>
<defs>
<clipPath id="clip0_1600_189">
<rect width="346" height="78" fill="white" transform="translate(99 70)"/>
</clipPath>
</defs>
</svg>
