<svg width="544" height="217" viewBox="0 0 544 217" fill="none" xmlns="http://www.w3.org/2000/svg">
<mask id="mask0_1600_132" style="mask-type:luminance" maskUnits="userSpaceOnUse" x="66" y="65" width="411" height="88">
<path d="M476.384 65H66V153H476.384V65Z" fill="white"/>
</mask>
<g mask="url(#mask0_1600_132)">
<path d="M148.969 116.031H153.719C154.927 125.286 161.056 134.027 171.848 134.027C177.374 134.027 181.775 131.028 181.775 125.457C181.775 111.232 148.969 119.972 148.969 96.3212C148.969 86.0409 156.913 78.3273 168.998 78.3273C176.597 78.3273 180.221 81.5843 182.811 81.5843C184.021 81.5843 185.4 81.1559 185.4 78.7561H189.976V101.464H185.227C185.227 90.4956 178.494 84.325 170.206 84.325C164.162 84.325 159.758 87.3246 159.758 92.0386C159.758 106.264 192.567 97.5236 192.567 121.174C192.567 132.314 184.622 140.025 172.708 140.025C163.385 140.025 159.758 136.083 156.218 136.083C154.577 136.083 153.543 137.197 153.543 139.597H148.969L148.969 116.031ZM227.568 131.456C225.239 136.342 220.749 140.027 214.188 140.027C210.13 140.027 206.417 138.742 203.827 135.999C201.411 133.514 199.943 130.002 199.943 124.345V108.32C199.943 105.32 199.425 104.206 198.559 103.349C197.698 102.492 196.487 101.892 193.899 101.892H193.467V96.3212H212.03V123.229C212.03 126.4 212.807 128.2 213.929 129.314C215.311 130.685 216.863 131.028 218.503 131.028C220.662 131.028 222.735 129.999 224.116 128.285C225.586 126.4 226.275 123.743 226.275 118.688V108.32C226.275 105.32 225.757 104.206 224.893 103.349C224.03 102.492 222.821 101.892 220.231 101.892H219.801V96.3212H238.364V127.169C238.364 130.169 238.88 131.283 239.745 132.14C240.607 132.997 241.818 133.597 244.838 133.597H245.701V139.168H227.57L227.568 131.456ZM283.269 119.518C283.701 130.319 278.473 138.857 267.292 139.828C254.736 140.918 246.245 132.108 245.2 120.242C244.117 107.95 251.083 96.5054 263.811 95.3998C274.734 94.4506 280.785 101.151 281.354 107.639C281.693 111.48 280.236 114.617 276.107 114.975C273.441 115.207 270.624 113.73 270.308 110.146C270.157 108.438 270.438 106.694 270.317 105.327C270.069 102.509 267.737 100.649 264.385 100.939C258.278 101.47 254.422 106.878 255.146 115.074C255.793 122.415 259.854 130.148 268.884 129.363C274.475 128.877 277.575 124.739 278.537 119.923L283.269 119.511V119.518ZM323.443 119.507C323.875 130.308 318.646 138.846 307.466 139.817C294.909 140.908 286.419 132.097 285.374 120.231C284.29 107.939 291.256 96.4949 303.984 95.3893C314.907 94.4401 320.958 101.14 321.528 107.628C321.867 111.47 320.41 114.607 316.28 114.965C313.615 115.196 310.797 113.719 310.482 110.135C310.331 108.427 310.611 106.683 310.49 105.316C310.242 102.499 307.911 100.639 304.558 100.928C298.451 101.46 294.596 106.867 295.319 115.063C295.967 122.404 300.027 130.137 309.058 129.352C314.648 128.866 317.748 124.728 318.711 119.912L323.443 119.5V119.507ZM440.694 121.15C440.176 131.947 434.217 140.001 422.993 140.001C410.388 140.001 402.707 130.49 402.707 118.579C402.707 106.24 410.65 95.4427 423.428 95.4427C434.39 95.4427 439.832 102.64 439.832 109.154C439.832 113.01 438.104 116.008 433.961 116.008C431.286 116.008 428.608 114.294 428.608 110.696C428.608 108.982 429.04 107.268 429.04 105.897C429.04 103.069 426.883 101.014 423.513 101.014C417.384 101.014 413.069 106.068 413.069 114.296C413.069 121.665 416.436 129.721 425.5 129.721C431.112 129.721 434.564 125.866 435.947 121.152L440.694 121.15ZM337.749 77.8794C333.517 77.8794 330.236 81.2221 330.236 85.4216C330.236 89.6212 333.517 92.8782 337.749 92.8782C341.958 92.8782 345.326 89.6212 345.326 85.4216C345.326 81.2221 341.958 77.8794 337.749 77.8794ZM402.963 133.589C400.374 133.589 399.164 133.01 398.302 132.153C397.437 131.296 396.919 130.182 396.919 127.182V111.155C396.919 105.498 395.624 101.813 393.205 99.3273C390.615 96.5846 386.731 95.4705 383.102 95.4705C375.677 95.4705 371.187 99.156 368.856 104.041V96.3274H350.723V101.898H351.586C354.608 101.898 355.817 102.498 356.681 103.355C357.544 104.212 358.062 105.327 358.062 108.326V127.182C358.062 130.181 357.544 131.296 356.681 132.152C355.817 133.01 354.608 133.588 351.586 133.588H350.507C347.485 133.588 346.276 133.01 345.412 132.152C344.57 131.296 344.031 130.181 344.031 127.182V96.3274H324.624V101.898H325.487C328.51 101.898 329.718 102.498 330.582 103.355C331.445 104.212 331.964 105.327 331.964 108.326V127.182C331.964 130.181 331.445 131.296 330.582 132.152C329.718 133.01 328.51 133.588 325.487 133.588H324.624V139.159H374.9V133.588H374.468C373.606 133.588 372.222 133.331 371.36 132.474C370.498 131.617 370.151 130.181 370.151 127.182V116.811C370.151 111.754 370.842 109.183 372.311 107.298C373.691 105.584 375.763 104.47 378.614 104.47C379.994 104.47 381.637 104.727 383.017 106.098C384.138 107.212 384.83 109.098 384.83 112.269V127.182C384.83 130.181 384.485 131.617 383.62 132.474C382.758 133.331 381.378 133.588 380.512 133.588H380.08V139.159H403.396V133.588L402.963 133.589ZM476.385 132.742C473.972 136.856 469.048 140.025 463.348 140.025C459.896 140.025 456.703 139.082 454.372 136.94C452.039 134.797 450.832 131.54 450.832 125.8V107.632C450.832 104.975 450.399 104.29 449.884 103.775C449.278 103.176 448.587 102.747 445.912 102.747H441.765V98.0331C452.989 96.0619 457.047 91.2623 458.171 82.1797H462.918V96.3189H475.437V102.747H467.839C465.164 102.747 464.472 103.176 463.866 103.775C463.348 104.29 462.918 104.975 462.918 107.632V125.969C462.918 128.197 463.522 129.569 464.646 130.426C465.593 131.111 466.718 131.452 468.186 131.452C470.261 131.452 471.9 130.509 473.277 129.309L476.385 132.738V132.742Z" fill="white"/>
<path d="M127.163 73.8019V91.4026L111.872 100.201V82.6006L96.5815 91.3994V109L81.291 100.201V82.6006L111.872 65L127.163 73.8019Z" fill="white"/>
<path opacity="0.4" d="M96.5813 108.999L81.2906 117.798L66 108.999L81.2906 100.2L96.5813 108.999Z" fill="white"/>
<path d="M111.872 117.799V135.399L81.2906 153L66 144.198V126.597L81.2906 117.799V135.399L96.5813 126.601V109L111.872 117.799Z" fill="white"/>
<path opacity="0.4" d="M127.163 108.999L111.873 117.798L96.582 108.999L111.873 100.2L127.163 108.999Z" fill="white"/>
</g>
</svg>
