<svg width="544" height="217" viewBox="0 0 544 217" fill="none" xmlns="http://www.w3.org/2000/svg">
<path fill-rule="evenodd" clip-rule="evenodd" d="M173.853 143.941L132.426 73.0332L91 143.941H173.853ZM215.637 140.713L250.257 76.2565H235.283L211.401 123.067L187.519 76.2565H172.544L207.164 140.713H215.637ZM451.574 76.2565V140.714H439.177V76.2565H451.574ZM382.566 116.655C382.566 111.632 383.632 107.214 385.762 103.401C387.893 99.5877 390.863 96.6525 394.672 94.5947C398.481 92.5369 402.937 91.5079 408.038 91.5079C412.558 91.5079 416.626 92.4764 420.242 94.4131C423.858 96.3498 426.731 99.2247 428.861 103.038C430.992 106.851 432.091 111.511 432.154 117.018V119.833H395.642C395.899 123.827 397.093 126.975 399.224 129.274C401.42 131.514 404.359 132.633 408.038 132.633C410.362 132.633 412.494 132.028 414.43 130.818C416.367 129.607 417.821 127.973 418.788 125.915L431.477 126.823C429.926 131.362 427.021 134.994 422.76 137.717C418.498 140.441 413.591 141.803 408.038 141.803C402.937 141.803 398.481 140.774 394.672 138.716C390.863 136.658 387.893 133.723 385.762 129.91C383.632 126.097 382.566 121.679 382.566 116.655ZM419.37 112.116C418.918 108.182 417.659 105.307 415.593 103.492C413.526 101.615 411.009 100.677 408.038 100.677C404.616 100.677 401.84 101.676 399.71 103.673C397.577 105.67 396.255 108.485 395.737 112.116H419.37ZM361.648 103.492C363.714 105.126 365.005 107.395 365.522 110.3L378.305 109.665C377.853 105.973 376.531 102.765 374.335 100.042C372.139 97.3182 369.299 95.2302 365.811 93.7776C362.39 92.2644 358.613 91.5079 354.48 91.5079C349.379 91.5079 344.925 92.5369 341.114 94.5947C337.305 96.6525 334.334 99.5877 332.204 103.401C330.073 107.214 329.008 111.632 329.008 116.655C329.008 121.679 330.073 126.097 332.204 129.91C334.334 133.723 337.305 136.658 341.114 138.716C344.925 140.774 349.379 141.803 354.48 141.803C358.741 141.803 362.615 141.046 366.102 139.533C369.59 137.959 372.43 135.75 374.626 132.906C376.822 130.061 378.144 126.732 378.596 122.92L365.715 122.375C365.264 125.582 364.003 128.064 361.938 129.819C359.872 131.514 357.385 132.361 354.48 132.361C350.478 132.361 347.378 130.999 345.182 128.276C342.987 125.552 341.89 121.679 341.89 116.655C341.89 111.632 342.987 107.758 345.182 105.035C347.378 102.311 350.478 100.95 354.48 100.95C357.257 100.95 359.645 101.797 361.648 103.492ZM298.759 92.5952H310.296L310.629 101.856C311.448 99.2347 312.586 97.199 314.045 95.749C316.159 93.6466 319.109 92.5952 322.889 92.5952H327.6V102.507H322.794C320.101 102.507 317.891 102.868 316.159 103.589C314.493 104.309 313.212 105.451 312.315 107.013C311.482 108.575 311.065 110.557 311.065 112.96V140.713H298.759V92.5952ZM245.545 103.401C243.415 107.214 242.349 111.632 242.349 116.655C242.349 121.679 243.415 126.097 245.545 129.91C247.676 133.723 250.646 136.658 254.456 138.716C258.266 140.774 262.721 141.803 267.822 141.803C273.374 141.803 278.282 140.441 282.543 137.717C286.806 134.994 289.711 131.362 291.26 126.823L278.572 125.915C277.605 127.973 276.151 129.607 274.214 130.818C272.277 132.028 270.146 132.633 267.822 132.633C264.141 132.633 261.203 131.514 259.008 129.274C256.877 126.975 255.683 123.827 255.424 119.833H291.939V117.018C291.873 111.511 290.776 106.851 288.645 103.038C286.515 99.2247 283.642 96.3498 280.026 94.4131C276.41 92.4764 272.342 91.5079 267.822 91.5079C262.721 91.5079 258.266 92.5369 254.456 94.5947C250.646 96.6525 247.676 99.5877 245.545 103.401ZM275.377 103.492C277.442 105.307 278.702 108.182 279.154 112.116H255.521C256.038 108.485 257.362 105.67 259.492 103.673C261.623 101.676 264.4 100.677 267.822 100.677C270.791 100.677 273.31 101.615 275.377 103.492Z" fill="white"/>
</svg>
