<svg width="544" height="217" viewBox="0 0 544 217" fill="none" xmlns="http://www.w3.org/2000/svg">
<path d="M128.913 140.031C128.167 131.817 127.298 123.981 126.305 116.522C125.394 108.979 124.483 101.646 123.572 94.5221C123.324 92.7621 122.951 91.6726 122.455 91.2535C121.958 90.7507 121.337 90.4993 120.592 90.4993C119.019 90.4993 117.073 91.9659 114.755 94.8993L111.898 91.505C115.293 86.8116 118.522 83.2497 121.585 80.8192C124.649 78.3888 127.712 77.1735 130.775 77.1735C134.004 77.1735 136.405 78.1373 137.978 80.065C139.552 81.9926 140.545 84.9678 140.959 88.9907C141.539 94.0193 142.035 99.2993 142.449 104.831C142.863 110.362 143.236 115.894 143.567 121.425C146.962 114.804 150.315 108.057 153.626 101.185C157.021 94.3126 160.333 87.2726 163.562 80.065H174.366C174.78 82.8307 175.194 86.1412 175.608 89.9964C176.022 93.7678 176.436 97.7907 176.85 102.065C177.347 106.255 177.802 110.362 178.216 114.385C178.63 118.408 179.044 122.054 179.458 125.322C182.273 121.467 184.881 117.654 187.282 113.882C189.683 110.111 192.043 106.13 194.361 101.939L192.871 97.5393C192.291 95.8631 191.712 94.145 191.132 92.385C190.552 90.625 190.263 88.9488 190.263 87.3564C190.263 83.7526 191.298 81.1126 193.367 79.4364C195.437 77.6764 197.921 76.7964 200.819 76.7964C201.978 76.7964 203.054 77.0059 204.048 77.425C205.041 77.7602 205.828 78.1373 206.407 78.5564C207.07 79.5621 207.525 80.6097 207.774 81.6992C208.022 82.7888 208.146 84.2973 208.146 86.225C208.146 88.0688 207.774 90.1221 207.028 92.385C206.366 94.6478 204.959 97.7907 202.806 101.814C199.743 107.429 195.727 113.589 190.759 120.294C185.875 126.914 180.327 133.494 174.118 140.031L165.052 141.036L163.81 140.031C163.396 136.846 162.941 133.158 162.444 128.968C161.947 124.694 161.45 120.419 160.954 116.145C160.457 111.787 159.96 107.89 159.463 104.454C156.648 110.069 153.585 115.977 150.273 122.179C147.044 128.381 143.733 134.332 140.338 140.031L130.279 141.036L128.913 140.031Z" fill="white"/>
<path d="M241.305 84.0876C239.566 84.0876 237.703 84.8419 235.716 86.3505C233.812 87.7752 231.991 89.7867 230.252 92.3848C228.513 94.9829 227.023 97.9581 225.781 101.31C224.622 104.663 223.96 108.183 223.794 111.87C229.424 109.859 233.853 107.638 237.082 105.208C240.311 102.693 242.588 100.137 243.913 97.5391C245.238 94.941 245.9 92.5105 245.9 90.2476C245.9 88.1524 245.445 86.6019 244.534 85.5962C243.623 84.5905 242.547 84.0876 241.305 84.0876ZM228.017 141.79C221.559 141.79 216.301 139.695 212.244 135.505C208.27 131.314 206.283 125.531 206.283 118.156C206.283 112.709 207.194 107.554 209.015 102.693C210.92 97.7486 213.528 93.3905 216.839 89.6191C220.151 85.7638 224.042 82.7467 228.513 80.5676C232.984 78.3048 237.828 77.1733 243.044 77.1733C248.674 77.1733 252.937 78.4305 255.835 80.9448C258.816 83.4591 260.306 86.7276 260.306 90.7505C260.306 96.0305 257.325 100.975 251.364 105.585C245.486 110.11 236.379 113.924 224.042 117.025C224.456 121.048 225.74 124.023 227.892 125.95C230.045 127.878 232.819 128.842 236.213 128.842C239.856 128.842 243.085 127.92 245.9 126.076C248.715 124.232 251.075 122.095 252.979 119.665L256.456 122.179C254.8 125.364 252.565 128.465 249.75 131.482C247.018 134.499 243.83 136.971 240.187 138.899C236.544 140.827 232.487 141.79 228.017 141.79Z" fill="white"/>
<path d="M281.045 140.031C280.217 131.817 279.348 124.023 278.437 116.648C277.609 109.189 276.699 101.855 275.705 94.6478C275.457 92.804 275.043 91.6726 274.463 91.2535C273.966 90.7507 273.387 90.4993 272.725 90.4993C271.979 90.4993 271.11 90.8345 270.117 91.505C269.206 92.1754 268.13 93.3069 266.888 94.8993L264.031 91.505C267.426 86.8116 270.655 83.2497 273.718 80.8192C276.781 78.3888 279.886 77.1735 283.032 77.1735C286.179 77.1735 288.538 78.1792 290.111 80.1907C291.684 82.2021 292.719 85.2612 293.216 89.3678C293.878 95.2345 294.458 101.311 294.955 107.596C295.451 113.798 295.907 120.042 296.321 126.328C302.365 118.366 307.705 110.111 312.341 101.562L311.099 97.4135C310.52 95.7373 309.94 94.0612 309.361 92.385C308.864 90.625 308.616 88.9488 308.616 87.3564C308.616 83.7526 309.568 81.1126 311.472 79.4364C313.459 77.6764 315.943 76.7964 318.923 76.7964C320.083 76.7964 321.159 77.0059 322.152 77.425C323.229 77.7602 324.057 78.1373 324.636 78.5564C325.299 79.5621 325.754 80.6097 326.002 81.6992C326.251 82.7888 326.375 84.2973 326.375 86.225C326.375 87.985 326.044 89.9964 325.381 92.2593C324.719 94.5221 323.27 97.7069 321.035 101.814C317.971 107.345 313.832 113.505 308.616 120.294C303.4 126.998 297.604 133.577 291.229 140.031L282.287 141.036L281.045 140.031Z" fill="white"/>
<path d="M347.446 139.905L331.301 140.911L329.562 139.402L339.746 90.2479L331.053 88.865L331.922 84.2136L357.257 77.0479L359.617 79.0593L357.505 90.1221C361.645 86.0993 365.826 82.9564 370.049 80.6936C374.354 78.3469 378.411 77.1736 382.219 77.1736C384.951 77.1736 387.228 78.0536 389.05 79.8136C390.871 81.5736 391.782 84.2136 391.782 87.7336C391.782 88.1526 391.782 88.6136 391.782 89.1164C391.782 89.5355 391.741 89.9545 391.658 90.3736C395.797 86.1831 399.978 82.9564 404.201 80.6936C408.506 78.3469 412.563 77.1736 416.372 77.1736C419.021 77.1736 421.256 78.0536 423.078 79.8136C424.899 81.5736 425.81 84.2136 425.81 87.7336C425.81 89.4098 425.645 91.1698 425.313 93.0136C425.065 94.8574 424.692 96.7431 424.196 98.6707L418.359 122.431C418.028 123.604 417.738 124.652 417.489 125.574C417.324 126.412 417.241 127.166 417.241 127.836C417.241 129.513 417.903 130.351 419.228 130.351C421.298 130.351 424.361 127.753 428.418 122.556L432.144 125.071C430.488 127.92 428.46 130.644 426.058 133.242C423.74 135.756 421.049 137.81 417.986 139.402C415.006 140.995 411.694 141.791 408.051 141.791C405.153 141.791 402.876 141.12 401.22 139.779C399.647 138.355 398.861 136.385 398.861 133.871C398.861 131.943 399.068 129.974 399.482 127.962C399.979 125.951 400.475 124.023 400.972 122.179L405.567 103.322C406.064 101.395 406.436 99.6345 406.685 98.0421C407.016 96.366 407.182 95.025 407.182 94.0193C407.182 92.5945 406.85 91.5888 406.188 91.0021C405.608 90.4155 404.863 90.1221 403.953 90.1221C402.214 90.1221 400.185 90.7088 397.867 91.8821C395.632 93.0555 393.148 94.8993 390.416 97.4136L387.187 113.002C386.276 117.444 385.365 121.928 384.455 126.454C383.627 130.895 382.799 135.379 381.971 139.905L365.826 140.911L364.087 139.402L371.787 101.939C372.201 100.263 372.532 98.7545 372.781 97.4136C373.029 95.9888 373.153 94.7736 373.153 93.7679C373.153 92.5107 372.822 91.5888 372.16 91.0021C371.58 90.4155 370.835 90.1221 369.924 90.1221C368.103 90.1221 366.033 90.7088 363.715 91.8821C361.397 93.0555 358.83 94.8574 356.015 97.2879L352.662 113.002C351.751 117.444 350.882 121.928 350.054 126.454C349.226 130.895 348.357 135.379 347.446 139.905Z" fill="white"/>
</svg>
