<svg width="544" height="217" viewBox="0 0 544 217" fill="none" xmlns="http://www.w3.org/2000/svg">
<path d="M152.992 67.4C145.646 63.1333 137.632 61 128.95 61C120.269 61 112.255 63.1333 104.908 67.4C97.5622 71.6667 91.6853 77.5333 87.4112 84.8667C83.1371 92.2 81 100.2 81 108.867C81 117.533 83.1371 125.533 87.4112 132.867C91.6853 140.2 97.5622 146.067 104.908 150.333C112.255 154.6 120.269 156.733 128.95 156.733C137.632 156.733 145.646 154.6 152.992 150.333C160.338 146.067 166.215 140.2 170.49 132.867C174.764 125.533 176.901 117.533 176.901 108.867C176.901 100.2 174.764 92.2 170.49 84.8667C166.215 77.5333 160.338 71.6667 152.992 67.4ZM131.889 126.2C126.413 126.2 122.138 124.6 118.799 121.533C116.529 119.4 115.059 116.867 114.392 113.8H166.215C165.681 118.2 164.345 122.333 162.476 126.2H132.022H131.889ZM114.392 104.067C115.059 101.133 116.529 98.4667 118.799 96.3333C122.138 93.2667 126.413 91.6667 131.889 91.6667H162.476C164.479 95.5333 165.681 99.6667 166.215 104.067H114.392ZM96.4937 89.8C99.8329 84.0667 104.374 79.4 110.117 76.0667C115.861 72.7333 122.138 71 129.084 71C136.029 71 142.307 72.7333 148.05 76.0667C150.989 77.8 153.527 79.8 155.931 82.2H131.755C126.279 82.2 121.337 83.4 117.063 85.6667C112.789 87.9333 109.45 91.1333 107.179 95.1333C105.576 97.9333 104.508 101 103.973 104.2H92.086C92.6203 99.1333 94.2231 94.3333 96.7608 89.9333L96.4937 89.8ZM147.917 141.667C142.173 145 135.896 146.733 128.95 146.733C122.005 146.733 115.727 145 109.984 141.667C104.241 138.333 99.6993 133.667 96.3601 127.933C93.8224 123.533 92.2196 118.867 91.6853 113.8H103.573C104.107 117 105.176 120.067 106.778 122.867C109.183 126.867 112.522 129.933 116.662 132.333C120.936 134.6 125.878 135.8 131.355 135.8H155.397C153.126 138.067 150.588 140.067 147.783 141.667H147.917Z" fill="white"/>
<path d="M254.504 124.333L245.288 89.2666C244.62 86.8666 243.418 84.8666 241.681 83.5332C239.945 82.0666 237.808 81.3999 235.27 81.3999C232.732 81.3999 230.729 82.0666 228.993 83.5332C227.256 84.9999 226.054 86.8666 225.386 89.2666L216.304 124.2L205.084 82.1999H191.994L205.618 128.333C207.221 134.067 210.693 136.867 215.903 136.867C221.112 136.867 220.845 136.067 222.581 134.6C224.184 133.133 225.386 131 226.054 128.333L235.27 92.8666L244.353 128.333C245.822 134.067 249.295 136.867 254.637 136.867C259.98 136.867 263.319 134.067 264.922 128.333L278.412 82.1999H265.456L254.37 124.333H254.504Z" fill="white"/>
<path d="M323.956 84.4667C319.548 81.9334 314.606 80.7334 309.13 80.7334C303.653 80.7334 298.845 81.9334 294.437 84.4667C290.03 87.0001 286.557 90.4667 284.019 94.7334C281.481 99.0001 280.279 103.8 280.279 109C280.279 114.2 281.481 119 284.019 123.267C286.557 127.533 290.03 131 294.437 133.533C298.845 136.067 303.787 137.267 309.13 137.267C314.472 137.267 319.548 136.067 323.956 133.533C328.363 131 331.836 127.533 334.374 123.267C336.911 119 338.114 114.2 338.114 109C338.114 103.8 336.911 99.0001 334.374 94.7334C331.836 90.4667 328.363 87.0001 323.956 84.4667ZM323.555 117.667C322.219 120.333 320.216 122.333 317.811 123.933C315.407 125.4 312.469 126.2 309.263 126.2C306.058 126.2 303.253 125.4 300.715 123.933C298.311 122.467 296.307 120.333 294.972 117.8C293.636 115.267 292.835 112.333 292.835 109C292.835 105.667 293.502 102.867 294.972 100.2C296.307 97.5334 298.311 95.5334 300.715 93.9334C303.119 92.4667 306.058 91.6667 309.263 91.6667C312.469 91.6667 315.274 92.4667 317.811 93.9334C320.216 95.4001 322.219 97.5334 323.555 100.067C324.89 102.6 325.692 105.533 325.692 108.867C325.692 112.2 325.024 115 323.555 117.667Z" fill="white"/>
<path d="M362.823 85.1332C360.285 86.9999 358.549 89.5332 357.347 92.5999V82.0666H345.059V135.667H357.48V111.8C357.48 105.4 358.949 100.867 362.022 98.0666C365.094 95.2666 369.368 93.7999 374.977 93.7999H375.245V81.3999H374.844C370.169 81.3999 366.162 82.5999 362.823 85.1332Z" fill="white"/>
<path d="M397.017 123.4C395.815 122.067 395.281 119.933 395.281 117.133V61.5332H382.859V118.733C382.859 124.733 384.462 129.133 387.534 131.933C390.606 134.733 395.415 136.2 401.692 136.2H402.894V125.667C400.089 125.667 398.086 124.867 396.884 123.533L397.017 123.4Z" fill="white"/>
<path d="M449.508 61.5332V88.8665C448.306 87.2665 446.837 85.7999 444.967 84.4665C441.227 81.9332 436.819 80.7332 431.744 80.7332C426.668 80.7332 421.593 81.9332 417.586 84.3332C413.445 86.7332 410.239 90.1999 407.969 94.4665C405.698 98.8665 404.496 103.667 404.496 109C404.496 114.333 405.565 119.267 407.835 123.533C410.106 127.8 413.311 131.133 417.452 133.667C421.593 136.067 426.401 137.267 431.744 137.267C437.086 137.267 438.155 136.733 440.96 135.533C443.765 134.333 446.169 132.733 448.039 130.6C448.573 130.067 448.974 129.4 449.374 128.867V135.8H461.796V61.5332H449.374H449.508ZM447.772 117.8C446.436 120.467 444.432 122.6 441.895 124.067C439.357 125.533 436.552 126.333 433.213 126.333C429.874 126.333 427.069 125.533 424.665 124.067C422.26 122.6 420.39 120.467 419.055 117.8C417.719 115.133 417.051 112.2 417.051 108.867C417.051 105.533 417.719 102.6 419.055 99.9332C420.39 97.2665 422.26 95.1332 424.665 93.6665C427.069 92.1999 430.007 91.3999 433.213 91.3999C436.418 91.3999 439.357 92.1999 441.895 93.6665C444.432 95.1332 446.302 97.2665 447.772 99.9332C449.107 102.6 449.909 105.533 449.909 108.867C449.909 112.2 449.241 115.133 447.772 117.8Z" fill="white"/>
</svg>
